<svg width="12" height="18" viewBox="0 0 12 18" fill="none" xmlns="http://www.w3.org/2000/svg">
<path d="M6.00002 17.3346C5.80558 17.3346 5.63891 17.2791 5.50002 17.168C5.36113 17.0569 5.25697 16.911 5.18752 16.7305C4.92363 15.9527 4.5903 15.2235 4.18752 14.543C3.79863 13.8624 3.25002 13.0638 2.54169 12.1471C1.83335 11.2305 1.25696 10.3555 0.81252 9.52214C0.381965 8.6888 0.166687 7.68186 0.166687 6.5013C0.166687 4.8763 0.729187 3.5013 1.85419 2.3763C2.99308 1.23741 4.37502 0.667969 6.00002 0.667969C7.62502 0.667969 9.00002 1.23741 10.125 2.3763C11.2639 3.5013 11.8334 4.8763 11.8334 6.5013C11.8334 7.76519 11.5903 8.82075 11.1042 9.66797C10.632 10.5013 10.0834 11.3277 9.45835 12.1471C8.70835 13.1471 8.13891 13.9805 7.75002 14.6471C7.37502 15.2999 7.06252 15.9944 6.81252 16.7305C6.74308 16.9249 6.63197 17.0777 6.47919 17.1888C6.3403 17.286 6.18058 17.3346 6.00002 17.3346ZM6.00002 8.58464C6.58335 8.58464 7.07641 8.38325 7.47919 7.98047C7.88196 7.57769 8.08335 7.08464 8.08335 6.5013C8.08335 5.91797 7.88196 5.42491 7.47919 5.02213C7.07641 4.61936 6.58335 4.41797 6.00002 4.41797C5.41669 4.41797 4.92363 4.61936 4.52085 5.02213C4.11808 5.42491 3.91669 5.91797 3.91669 6.5013C3.91669 7.08464 4.11808 7.57769 4.52085 7.98047C4.92363 8.38325 5.41669 8.58464 6.00002 8.58464Z" fill="#4C4C4C"/>
</svg>
