<svg width="24" height="25" viewBox="0 0 24 25" fill="none" xmlns="http://www.w3.org/2000/svg">
<path d="M0.5 12.5C0.5 6.14873 5.64873 1 12 1C18.3513 1 23.5 6.14873 23.5 12.5C23.5 18.8513 18.3513 24 12 24C5.64873 24 0.5 18.8513 0.5 12.5Z" stroke="#CDCDD7"/>
<g clip-path="url(#clip0_733_5349)">
<path d="M15.0909 18.5832C14.9068 18.5832 14.7576 18.7324 14.7576 18.9165C14.7576 19.1006 14.9068 19.2499 15.0909 19.2499V18.5832ZM9.18182 19.2499C9.36591 19.2499 9.51515 19.1006 9.51515 18.9165C9.51515 18.7324 9.36591 18.5832 9.18182 18.5832V19.2499ZM9.9697 18.0276C10.1538 18.0276 10.303 17.8784 10.303 17.6943C10.303 17.5102 10.1538 17.361 9.9697 17.361V18.0276ZM13.5152 17.361C13.3311 17.361 13.1818 17.5102 13.1818 17.6943C13.1818 17.8784 13.3311 18.0276 13.5152 18.0276V17.361ZM8.39394 20.1665H16.2083V19.4999H8.39394V20.1665ZM17 19.3749V19.3105H16.3333V19.3749H17ZM8.33333 19.4393V19.3749H7.66667V19.4393H8.33333ZM8.45833 19.2499H8.59091V18.5832H8.45833V19.2499ZM8.59091 19.2499H9.18182V18.5832H8.59091V19.2499ZM8.92424 18.9165V18.2852H8.25758V18.9165H8.92424ZM9.18182 18.0276H9.9697V17.361H9.18182V18.0276ZM9.51515 17.6943V17.1388H8.84848V17.6943H9.51515ZM15.1515 17.1388V17.3888H15.8182V17.1388H15.1515ZM15.1515 17.3888V17.6943H15.8182V17.3888H15.1515ZM15.4848 17.361H13.5152V18.0276H15.4848V17.361ZM15.4848 18.0276H15.6061V17.361H15.4848V18.0276ZM16.2727 18.5832H15.0909V19.2499H16.2727V18.5832ZM15.9394 18.361V18.9165H16.6061V18.361H15.9394ZM13.5152 16.8054H14.8182V16.1388H13.5152V16.8054ZM13.8485 16.4721V10.1667H13.1818V16.4721H13.8485ZM9.84849 16.8054H11.3485V16.1388H9.84849V16.8054ZM11.3485 16.8054H13.5152V16.1388H11.3485V16.8054ZM11.6818 16.4721L11.6818 10.1667L11.0152 10.1667L11.0152 16.4721H11.6818ZM9.51515 17.1388C9.51515 16.9547 9.66439 16.8054 9.84849 16.8054V16.1388C9.2962 16.1388 8.84848 16.5865 8.84848 17.1388H9.51515ZM8.92424 18.2852C8.92424 18.143 9.03956 18.0276 9.18182 18.0276V17.361C8.67137 17.361 8.25758 17.7748 8.25758 18.2852H8.92424ZM15.6061 18.0276C15.7902 18.0276 15.9394 18.1769 15.9394 18.361H16.6061C16.6061 17.8087 16.1583 17.361 15.6061 17.361V18.0276ZM8.33333 19.3749C8.33333 19.3058 8.3893 19.2499 8.45833 19.2499V18.5832C8.02111 18.5832 7.66667 18.9376 7.66667 19.3749H8.33333ZM8.39394 19.4999C8.36047 19.4999 8.33333 19.4727 8.33333 19.4393H7.66667C7.66667 19.8409 7.99228 20.1665 8.39394 20.1665V19.4999ZM17 19.3105C17 18.9088 16.6744 18.5832 16.2727 18.5832V19.2499C16.3062 19.2499 16.3333 19.277 16.3333 19.3105H17ZM15.8182 17.1388C15.8182 16.5865 15.3705 16.1388 14.8182 16.1388V16.8054C15.0023 16.8054 15.1515 16.9547 15.1515 17.1388H15.8182ZM16.2083 20.1665C16.6456 20.1665 17 19.8121 17 19.3749H16.3333C16.3333 19.4439 16.2774 19.4999 16.2083 19.4999V20.1665Z" fill="#3C3C3C"/>
<circle cx="12.6667" cy="7.83342" r="2.66667" stroke="#3C3C3C" stroke-width="0.666667"/>
<path d="M14.3998 7.8335C14.3998 8.27794 14.0532 9.16683 12.6665 9.16683" stroke="#3C3C3C" stroke-width="0.666667" stroke-linecap="round"/>
</g>
<defs>
<clipPath id="clip0_733_5349">
<rect width="16" height="16" fill="white" transform="translate(4 4.5)"/>
</clipPath>
</defs>
</svg>
