<svg width="16" height="16" viewBox="0 0 16 16" fill="none" xmlns="http://www.w3.org/2000/svg">
<path d="M6.28278 2.04195C7.12112 1.56965 7.54028 1.3335 7.9987 1.3335C8.45711 1.3335 8.87628 1.56965 9.71461 2.04195L10.8813 2.69924C11.7515 3.1895 12.1866 3.43463 12.426 3.84459C12.6654 4.25454 12.6654 4.75454 12.6654 5.75455V6.91244C12.6654 7.91245 12.6654 8.41245 12.426 8.82241C12.1866 9.23236 11.7515 9.47749 10.8813 9.96776L9.71461 10.625C8.87628 11.0973 8.45711 11.3335 7.9987 11.3335C7.54028 11.3335 7.12112 11.0973 6.28278 10.625L5.11612 9.96776C4.2459 9.47749 3.8108 9.23236 3.57141 8.82241C3.33203 8.41245 3.33203 7.91245 3.33203 6.91244V5.75455C3.33203 4.75454 3.33203 4.25454 3.57141 3.84459C3.8108 3.43463 4.2459 3.1895 5.11612 2.69924L6.28278 2.04195Z" stroke="#525252" stroke-linejoin="round"/>
<path d="M6 6.77778C6 6.77778 6.5 6.77778 7 7.66667C7 7.66667 8.58824 5.44444 10 5" stroke="#525252" stroke-linecap="round" stroke-linejoin="round"/>
<path d="M11.255 10L11.7018 12.14C11.9889 13.5149 12.1324 14.2024 11.8376 14.5282C11.5427 14.854 11.0307 14.5737 10.0066 14.0132L8.49095 13.1836C8.24892 13.0511 8.12791 12.9848 8 12.9848C7.87209 12.9848 7.75108 13.0511 7.50905 13.1836L5.99339 14.0132C4.96932 14.5737 4.45728 14.854 4.16244 14.5282C3.86759 14.2024 4.01113 13.5149 4.29821 12.14L4.74501 10" stroke="#525252" stroke-linecap="round" stroke-linejoin="round"/>
</svg>
