<svg width="60" height="60" viewBox="0 0 60 60" fill="none" xmlns="http://www.w3.org/2000/svg">
<rect width="60" height="60" rx="30" fill="#F7F7FF"/>
<path d="M30 38.2643C32.9455 38.2643 35.3334 35.8765 35.3334 32.931C35.3334 29.9855 32.9455 27.5977 30 27.5977C27.0545 27.5977 24.6667 29.9855 24.6667 32.931C24.6667 35.8765 27.0545 38.2643 30 38.2643Z" stroke="#000087" stroke-width="2" stroke-miterlimit="10" stroke-linecap="round" stroke-linejoin="round"/>
<path d="M30.3334 31.2656V32.5056C30.3334 32.9723 30.0934 33.4123 29.68 33.6523L28.6667 34.2656" stroke="#000087" stroke-width="2" stroke-miterlimit="10" stroke-linecap="round" stroke-linejoin="round"/>
<path d="M24.6667 43.3333H35.3334C40.6934 43.3333 41.6534 41.1867 41.9334 38.5733L42.9334 27.9067C43.2934 24.6533 42.36 22 36.6667 22H23.3334C17.64 22 16.7067 24.6533 17.0667 27.9067L18.0667 38.5733C18.3467 41.1867 19.3067 43.3333 24.6667 43.3333Z" stroke="#000087" stroke-width="2" stroke-miterlimit="10" stroke-linecap="round" stroke-linejoin="round"/>
<path d="M24.6667 22.0013V20.9346C24.6667 18.5746 24.6667 16.668 28.9334 16.668H31.0667C35.3334 16.668 35.3334 18.5746 35.3334 20.9346V22.0013" stroke="#000087" stroke-width="2" stroke-miterlimit="10" stroke-linecap="round" stroke-linejoin="round"/>
<path d="M42.8667 28.668C40.56 30.348 38 31.5213 35.3467 32.188" stroke="#000087" stroke-width="2" stroke-miterlimit="10" stroke-linecap="round" stroke-linejoin="round"/>
<path d="M17.4933 29.0273C19.72 30.5473 22.1467 31.6273 24.6667 32.2407" stroke="#000087" stroke-width="2" stroke-miterlimit="10" stroke-linecap="round" stroke-linejoin="round"/>
</svg>
