<svg width="44" height="44" viewBox="0 0 44 44" fill="none" xmlns="http://www.w3.org/2000/svg">
<path d="M0.5 22C0.5 10.1259 10.1259 0.5 22 0.5C33.8741 0.5 43.5 10.1259 43.5 22C43.5 33.8741 33.8741 43.5 22 43.5C10.1259 43.5 0.5 33.8741 0.5 22Z" stroke="#EDEDED"/>
<path d="M15 31V15C15 14.45 15.1958 13.9792 15.5875 13.5875C15.9792 13.1958 16.45 13 17 13H27C27.55 13 28.0208 13.1958 28.4125 13.5875C28.8042 13.9792 29 14.45 29 15V31L22 28L15 31ZM17 27.95L22 25.8L27 27.95V15H17V27.95Z" fill="#1D1B20"/>
</svg>
