<svg width="20" height="20" viewBox="0 0 20 20" fill="none" xmlns="http://www.w3.org/2000/svg">
<path d="M9.36633 1.8916H10.6329C12.1292 1.8916 12.7415 2.30255 13.0245 2.74219C13.3378 3.22893 13.3497 3.87931 13.3497 4.6084V5.05762H13.9669C15.5375 5.05765 16.5417 5.3936 17.1495 5.97559L17.2657 6.0957C17.9241 6.82406 17.9582 7.81432 17.8927 8.63281C17.8889 8.66403 17.8864 8.69042 17.8849 8.70801L17.881 8.74805L17.8771 8.77148L17.8224 9.27637C17.5122 9.49625 17.1889 9.71806 16.8839 9.88379L16.8761 9.8877L16.8693 9.89258C16.8538 9.90188 16.8392 9.90995 16.8282 9.91699C16.8157 9.92499 16.8103 9.92925 16.8019 9.93457L16.7716 9.95215L16.7599 9.95801L16.7482 9.96484C15.8344 10.4986 14.8562 10.9273 13.838 11.2344L13.5421 11.3232V11.666C13.5421 13.6192 11.9533 15.2079 10.0001 15.208C8.0618 15.208 6.48073 13.6418 6.45813 11.7119L6.45422 11.3975L6.15149 11.3145L5.77747 11.2061C5.03101 10.9775 4.30117 10.6811 3.60461 10.3252L3.25891 10.1426L3.25403 10.1406L3.07532 10.043C3.0195 10.0118 2.96702 9.98129 2.91711 9.94922L2.9054 9.94141L2.89368 9.93555L2.54504 9.72949L2.18958 9.50195L2.13196 8.83105L2.13098 8.81934L2.12903 8.80762L2.12219 8.75879C2.04562 7.979 2.04159 7.0037 2.6134 6.24316L2.73547 6.09375C3.31899 5.44077 4.35586 5.05762 6.03333 5.05762H6.64954V4.6084C6.64954 3.87925 6.66236 3.22894 6.97571 2.74219C7.25874 2.30258 7.8703 1.89166 9.36633 1.8916ZM10.0001 8.54102C8.27842 8.54102 6.87526 9.94435 6.87512 11.666C6.87512 11.8017 6.88423 11.94 6.90442 12.0713L6.9054 12.0703C7.1026 13.6044 8.41617 14.791 10.0001 14.791C11.6077 14.7909 12.9326 13.5696 13.1056 12.0039L13.1085 11.9805V11.958C13.1161 11.8741 13.1251 11.7747 13.1251 11.666C13.125 9.94439 11.7218 8.54109 10.0001 8.54102ZM9.36633 2.24121C8.86821 2.24123 8.46231 2.27465 8.13782 2.36035C7.80601 2.44801 7.53244 2.5973 7.33899 2.84473C7.15066 3.08561 7.07658 3.37217 7.04211 3.65527C7.00806 3.93503 7.00793 4.26278 7.00793 4.6084V5.05762H12.9913V4.6084C12.9913 4.26278 12.9922 3.93502 12.9581 3.65527C12.9237 3.37215 12.8486 3.08562 12.6603 2.84473C12.4669 2.59752 12.1941 2.44798 11.8624 2.36035C11.5378 2.2746 11.1313 2.24121 10.6329 2.24121H9.36633Z" fill="#4C4C4C" stroke="#4C4C4C" stroke-width="0.833333"/>
<path d="M11.1679 10.9463C11.2471 10.8725 11.3831 10.8749 11.4619 10.959C11.5266 11.0283 11.5326 11.1417 11.4765 11.2217L11.4501 11.252L9.70209 12.8691C9.62675 12.9243 9.56543 12.9413 9.52533 12.9414C9.48494 12.9414 9.44586 12.9315 9.41107 12.9082L9.37787 12.8799L9.37689 12.8789L8.5517 12.0625C8.474 11.9834 8.47425 11.8481 8.55267 11.7695C8.63154 11.6907 8.76763 11.6908 8.84662 11.7695L9.52924 12.4521L9.82318 12.1816L11.165 10.9482L11.1679 10.9463Z" fill="#4C4C4C" stroke="#4C4C4C" stroke-width="0.833333"/>
<path d="M17.279 14.9238C17.1949 15.7247 16.9946 16.4467 16.4489 16.9775C15.9057 17.5057 14.943 17.918 13.1677 17.918H6.81805C5.0424 17.918 4.07985 17.5057 3.53778 16.9785C2.9942 16.4497 2.79569 15.7319 2.71552 14.9375H2.71649L2.44794 12.0664C2.88831 12.302 3.33993 12.5211 3.80243 12.7119L4.33466 12.918L4.33661 12.9189C4.4226 12.9495 4.49863 13.0135 4.5495 13.1084L4.59149 13.2139L4.59247 13.2168C5.26731 15.5557 7.44332 17.293 10.0016 17.293C12.5232 17.2928 14.6622 15.6271 15.3737 13.3154L15.4372 13.0898L15.4391 13.085C15.4657 12.9789 15.5242 12.8927 15.6052 12.8359L15.6931 12.7891H15.695C16.3457 12.5334 16.9662 12.2326 17.5534 11.9062L17.279 14.9238Z" fill="#4C4C4C" stroke="#4C4C4C" stroke-width="0.833333"/>
</svg>
