<svg width="24" height="25" viewBox="0 0 24 25" fill="none" xmlns="http://www.w3.org/2000/svg">
<path d="M0.5 12.5C0.5 6.14873 5.64873 1 12 1C18.3513 1 23.5 6.14873 23.5 12.5C23.5 18.8513 18.3513 24 12 24C5.64873 24 0.5 18.8513 0.5 12.5Z" stroke="#CDCDD7"/>
<mask id="path-2-outside-1_724_5223" maskUnits="userSpaceOnUse" x="3.82227" y="7.5" width="11" height="11" fill="black">
<rect fill="white" x="3.82227" y="7.5" width="11" height="11"/>
<path d="M5.88747 15.5192C5.88747 16.362 6.57065 17.0452 7.41339 17.0452C8.25614 17.0452 8.93931 16.362 8.93931 15.5192C8.93931 14.6765 8.25614 13.9933 7.41339 13.9933C6.57065 13.9933 5.88747 14.6765 5.88747 15.5192Z"/>
</mask>
<path d="M8.02376 9.41555L8.3219 9.56462V9.56462L8.02376 9.41555ZM7.10821 11.2467L7.40635 11.3957C7.40253 11.4034 7.39843 11.4108 7.39404 11.4182L7.10821 11.2467ZM5.2771 15.5192V15.1859V15.5192ZM5.6239 15.1859C5.808 15.1859 5.95723 15.3351 5.95723 15.5192C5.95723 15.7033 5.808 15.8526 5.6239 15.8526V15.1859ZM9.54968 15.8526C9.36559 15.8526 9.21635 15.7033 9.21635 15.5192C9.21635 15.3351 9.36559 15.1859 9.54968 15.1859V15.8526ZM13.8223 15.1859C14.0064 15.1859 14.1556 15.3351 14.1556 15.5192C14.1556 15.7033 14.0064 15.8526 13.8223 15.8526V15.1859ZM8.93931 8.83333C8.84499 8.83333 8.76238 8.871 8.66045 8.99073C8.54838 9.12239 8.44754 9.31335 8.3219 9.56462L7.72562 9.26648C7.84413 9.02947 7.97911 8.76265 8.1528 8.5586C8.33664 8.34263 8.58973 8.16667 8.93931 8.16667V8.83333ZM8.3219 9.56462L7.40635 11.3957L6.81006 11.0976L7.72562 9.26648L8.3219 9.56462ZM7.10821 11.2467C7.39404 11.4182 7.39389 11.4184 7.39374 11.4187C7.39369 11.4187 7.39354 11.419 7.39344 11.4192C7.39323 11.4195 7.39302 11.4198 7.39281 11.4202C7.39239 11.4209 7.39195 11.4216 7.39149 11.4223C7.39058 11.4238 7.38961 11.4253 7.38858 11.427C7.38652 11.4302 7.3842 11.4337 7.38161 11.4375C7.37645 11.4451 7.37022 11.4538 7.36284 11.4634C7.34805 11.4825 7.32866 11.5052 7.30385 11.53C7.25401 11.5799 7.18353 11.637 7.08698 11.6906C6.89248 11.7987 6.60608 11.8852 6.19265 11.8852V11.2185C6.51167 11.2185 6.68305 11.1524 6.76322 11.1079C6.804 11.0852 6.82507 11.066 6.83245 11.0586C6.83626 11.0548 6.83689 11.0537 6.83498 11.0562C6.83403 11.0574 6.83246 11.0595 6.83033 11.0627C6.82927 11.0642 6.82807 11.066 6.82674 11.0681C6.82607 11.0691 6.82538 11.0703 6.82465 11.0714C6.82429 11.072 6.82391 11.0726 6.82354 11.0732C6.82335 11.0736 6.82315 11.0739 6.82296 11.0742C6.82286 11.0743 6.82272 11.0746 6.82267 11.0747C6.82252 11.0749 6.82238 11.0752 7.10821 11.2467ZM6.19265 11.8852C5.97875 11.8852 5.65904 11.9387 5.40533 12.0848C5.16819 12.2214 5.00006 12.4274 5.00006 12.7726H4.3334C4.3334 12.1412 4.67391 11.7368 5.07258 11.5071C5.45467 11.2871 5.89791 11.2185 6.19265 11.2185V11.8852ZM5.00006 12.7726V14.9089H4.3334V12.7726H5.00006ZM5.00006 14.9089C5.00006 14.9394 5.02288 15.0121 5.09838 15.0876C5.17387 15.1631 5.24656 15.1859 5.2771 15.1859L5.2771 15.8526C5.01633 15.8526 4.78383 15.7159 4.62697 15.559C4.47011 15.4021 4.3334 15.1696 4.3334 14.9089H5.00006ZM5.2771 15.1859H5.6239V15.8526H5.2771V15.1859ZM9.54968 15.1859H13.8223V15.8526H9.54968V15.1859ZM8.93931 8.16667H13.8223V8.83333H8.93931V8.16667ZM6.55414 15.5192C6.55414 15.9938 6.93884 16.3785 7.41339 16.3785V17.7118C6.20246 17.7118 5.2208 16.7302 5.2208 15.5192H6.55414ZM7.41339 16.3785C7.88795 16.3785 8.27265 15.9938 8.27265 15.5192H9.60598C9.60598 16.7302 8.62433 17.7118 7.41339 17.7118V16.3785ZM8.27265 15.5192C8.27265 15.0447 7.88795 14.66 7.41339 14.66V13.3267C8.62433 13.3267 9.60598 14.3083 9.60598 15.5192H8.27265ZM7.41339 14.66C6.93884 14.66 6.55414 15.0447 6.55414 15.5192H5.2208C5.2208 14.3083 6.20246 13.3267 7.41339 13.3267V14.66Z" fill="#525252" mask="url(#path-2-outside-1_724_5223)"/>
<mask id="path-4-outside-2_724_5223" maskUnits="userSpaceOnUse" x="9.40918" y="7.5" width="11" height="11" fill="black">
<rect fill="white" x="9.40918" y="7.5" width="11" height="11"/>
<path d="M18.344 15.5192C18.344 16.362 17.6608 17.0452 16.8181 17.0452C15.9753 17.0452 15.2921 16.362 15.2921 15.5192C15.2921 14.6765 15.9753 13.9933 16.8181 13.9933C17.6608 13.9933 18.344 14.6765 18.344 15.5192Z"/>
</mask>
<path d="M16.2077 9.41555L15.9095 9.56462V9.56462L16.2077 9.41555ZM17.1232 11.2467L16.8251 11.3957C16.8289 11.4034 16.833 11.4108 16.8374 11.4182L17.1232 11.2467ZM18.9543 15.5192V15.1859V15.5192ZM18.6075 15.1859C18.4234 15.1859 18.2742 15.3351 18.2742 15.5192C18.2742 15.7033 18.4234 15.8526 18.6075 15.8526V15.1859ZM14.6818 15.8526C14.8659 15.8526 15.0151 15.7033 15.0151 15.5192C15.0151 15.3351 14.8659 15.1859 14.6818 15.1859V15.8526ZM10.4092 15.1859C10.2251 15.1859 10.0758 15.3351 10.0758 15.5192C10.0758 15.7033 10.2251 15.8526 10.4092 15.8526V15.1859ZM15.2921 8.83333C15.3865 8.83333 15.4691 8.871 15.571 8.99073C15.6831 9.12239 15.7839 9.31335 15.9095 9.56462L16.5058 9.26648C16.3873 9.02947 16.2523 8.76265 16.0786 8.5586C15.8948 8.34263 15.6417 8.16667 15.2921 8.16667V8.83333ZM15.9095 9.56462L16.8251 11.3957L17.4214 11.0976L16.5058 9.26648L15.9095 9.56462ZM17.1232 11.2467C16.8374 11.4182 16.8376 11.4184 16.8377 11.4187C16.8378 11.4187 16.8379 11.419 16.838 11.4192C16.8382 11.4195 16.8384 11.4198 16.8386 11.4202C16.8391 11.4209 16.8395 11.4216 16.84 11.4223C16.8409 11.4238 16.8418 11.4253 16.8429 11.427C16.8449 11.4302 16.8472 11.4337 16.8498 11.4375C16.855 11.4451 16.8612 11.4538 16.8686 11.4634C16.8834 11.4825 16.9028 11.5052 16.9276 11.53C16.9774 11.5799 17.0479 11.637 17.1445 11.6906C17.339 11.7987 17.6254 11.8852 18.0388 11.8852V11.2185C17.7198 11.2185 17.5484 11.1524 17.4682 11.1079C17.4274 11.0852 17.4064 11.066 17.399 11.0586C17.3952 11.0548 17.3946 11.0537 17.3965 11.0562C17.3974 11.0574 17.399 11.0595 17.4011 11.0627C17.4022 11.0642 17.4034 11.066 17.4047 11.0681C17.4054 11.0691 17.4061 11.0703 17.4068 11.0714C17.4072 11.072 17.4075 11.0726 17.4079 11.0732C17.4081 11.0736 17.4083 11.0739 17.4085 11.0742C17.4086 11.0743 17.4087 11.0746 17.4088 11.0747C17.4089 11.0749 17.4091 11.0752 17.1232 11.2467ZM18.0388 11.8852C18.2527 11.8852 18.5724 11.9387 18.8261 12.0848C19.0633 12.2214 19.2314 12.4274 19.2314 12.7726H19.898C19.898 12.1412 19.5575 11.7368 19.1589 11.5071C18.7768 11.2871 18.3335 11.2185 18.0388 11.2185V11.8852ZM19.2314 12.7726V14.9089H19.898V12.7726H19.2314ZM19.2314 14.9089C19.2314 14.9394 19.2086 15.0121 19.1331 15.0876C19.0576 15.1631 18.9849 15.1859 18.9543 15.1859L18.9543 15.8526C19.2151 15.8526 19.4476 15.7159 19.6045 15.559C19.7613 15.4021 19.898 15.1696 19.898 14.9089H19.2314ZM18.9543 15.1859H18.6075V15.8526H18.9543V15.1859ZM14.6818 15.1859H10.4092V15.8526H14.6818V15.1859ZM15.2921 8.16667H10.4092V8.83333H15.2921V8.16667ZM17.6773 15.5192C17.6773 15.9938 17.2926 16.3785 16.8181 16.3785V17.7118C18.029 17.7118 19.0106 16.7302 19.0106 15.5192H17.6773ZM16.8181 16.3785C16.3435 16.3785 15.9588 15.9938 15.9588 15.5192H14.6255C14.6255 16.7302 15.6071 17.7118 16.8181 17.7118V16.3785ZM15.9588 15.5192C15.9588 15.0447 16.3435 14.66 16.8181 14.66V13.3267C15.6071 13.3267 14.6255 14.3083 14.6255 15.5192H15.9588ZM16.8181 14.66C17.2926 14.66 17.6773 15.0447 17.6773 15.5192H19.0106C19.0106 14.3083 18.029 13.3267 16.8181 13.3267V14.66Z" fill="#525252" mask="url(#path-4-outside-2_724_5223)"/>
<path d="M15.1346 9.5H12.5872C12.5504 9.5 12.5205 9.52985 12.5205 9.56667V11.9858C12.5205 12.0226 12.5504 12.0525 12.5872 12.0525H16.3925C16.4425 12.0525 16.4748 11.9994 16.4517 11.955L15.1937 9.53591C15.1823 9.51384 15.1595 9.5 15.1346 9.5Z" stroke="#3C3C3C" stroke-width="0.666667"/>
<path d="M9.22479 9.5H11.7722C11.809 9.5 11.8389 9.52985 11.8389 9.56667V11.9858C11.8389 12.0226 11.809 12.0525 11.7722 12.0525H7.96685C7.91683 12.0525 7.88462 11.9994 7.9077 11.955L9.16564 9.53591C9.17712 9.51384 9.19992 9.5 9.22479 9.5Z" stroke="#3C3C3C" stroke-width="0.666667"/>
</svg>
