<svg width="24" height="24" viewBox="0 0 24 24" fill="none" xmlns="http://www.w3.org/2000/svg">
<g clip-path="url(#clip0_1039_71523)">
<mask id="path-1-outside-1_1039_71523" maskUnits="userSpaceOnUse" x="-0.267578" y="5" width="16" height="16" fill="black">
<rect fill="white" x="-0.267578" y="5" width="16" height="16"/>
<path d="M2.83023 16.5289C2.83023 17.793 3.855 18.8177 5.11911 18.8177C6.38323 18.8177 7.40799 17.793 7.40799 16.5289C7.40799 15.2647 6.38323 14.24 5.11911 14.24C3.855 14.24 2.83023 15.2647 2.83023 16.5289Z"/>
</mask>
<path d="M6.03467 7.37333L6.70549 7.70874L6.70549 7.70874L6.03467 7.37333ZM4.66133 10.12L5.33215 10.4554C5.32357 10.4726 5.31433 10.4894 5.30445 10.5059L4.66133 10.12ZM1.91468 16.5289L1.91467 15.7789H1.91468V16.5289ZM2.43488 15.7789C2.84909 15.7789 3.18488 16.1146 3.18488 16.5289C3.18488 16.9431 2.84909 17.2789 2.43488 17.2789V15.7789ZM8.32355 17.2789C7.90934 17.2789 7.57355 16.9431 7.57355 16.5289C7.57355 16.1146 7.90934 15.7789 8.32355 15.7789V17.2789ZM14.7324 15.7789C15.1466 15.7789 15.4824 16.1146 15.4824 16.5289C15.4824 16.9431 15.1466 17.2789 14.7324 17.2789V15.7789ZM7.40799 6.75C7.36223 6.75 7.30224 6.75463 7.18007 6.89815C7.03507 7.06849 6.89662 7.32647 6.70549 7.70874L5.36384 7.03792C5.53893 6.68774 5.75422 6.25907 6.03786 5.92585C6.34434 5.56582 6.7879 5.25 7.40799 5.25V6.75ZM6.70549 7.70874L5.33215 10.4554L3.99051 9.78458L5.36384 7.03792L6.70549 7.70874ZM4.66133 10.12C5.30445 10.5059 5.30412 10.5064 5.30379 10.507C5.30367 10.5072 5.30333 10.5077 5.30311 10.5081C5.30265 10.5089 5.30219 10.5096 5.30172 10.5104C5.30078 10.5119 5.29982 10.5135 5.29883 10.5151C5.29685 10.5183 5.29477 10.5216 5.29259 10.525C5.28821 10.5319 5.28342 10.5392 5.27818 10.5469C5.26769 10.5623 5.25543 10.5793 5.24122 10.5978C5.21278 10.6346 5.17666 10.6768 5.13158 10.7218C5.04089 10.8125 4.91664 10.9124 4.7509 11.0045C4.41628 11.1904 3.94355 11.3278 3.288 11.3278V9.82777C3.73112 9.82777 3.94506 9.73625 4.02244 9.69326C4.06269 9.6709 4.07578 9.65633 4.07092 9.66119C4.06876 9.66335 4.06268 9.66972 4.05355 9.68156C4.049 9.68746 4.04371 9.69469 4.03779 9.7034C4.03482 9.70776 4.0317 9.71248 4.02844 9.71759C4.0268 9.72015 4.02514 9.7228 4.02343 9.72556C4.02258 9.72693 4.02172 9.72834 4.02085 9.72976C4.02041 9.73048 4.01998 9.7312 4.01954 9.73192C4.01932 9.73229 4.01899 9.73283 4.01888 9.73302C4.01855 9.73357 4.01821 9.73412 4.66133 10.12ZM3.288 11.3278C2.99747 11.3278 2.56423 11.4024 2.23179 11.5939C1.93666 11.7639 1.74912 11.9984 1.74912 12.4089H0.249122C0.249122 11.3544 0.824544 10.6734 1.48311 10.2941C2.10438 9.93624 2.81558 9.82777 3.288 9.82777V11.3278ZM1.74912 12.4089V15.6133H0.249122V12.4089H1.74912ZM1.74912 15.6133C1.74912 15.5871 1.7427 15.587 1.75522 15.6127C1.76728 15.6375 1.78985 15.6711 1.82337 15.7046C1.85688 15.7381 1.89044 15.7607 1.91524 15.7728C1.94098 15.7853 1.94088 15.7789 1.91467 15.7789L1.91468 17.2789C1.43719 17.2789 1.02851 17.0311 0.762705 16.7653C0.496899 16.4995 0.249122 16.0908 0.249122 15.6133H1.74912ZM1.91468 15.7789H2.43488V17.2789H1.91468V15.7789ZM8.32355 15.7789H14.7324V17.2789H8.32355V15.7789ZM7.40799 5.25H14.7324V6.75H7.40799V5.25ZM4.33023 16.5289C4.33023 16.9646 4.68342 17.3177 5.11911 17.3177V20.3177C3.02657 20.3177 1.33023 18.6214 1.33023 16.5289H4.33023ZM5.11911 17.3177C5.5548 17.3177 5.908 16.9646 5.908 16.5289H8.90799C8.90799 18.6214 7.21166 20.3177 5.11911 20.3177V17.3177ZM5.908 16.5289C5.908 16.0932 5.5548 15.74 5.11911 15.74V12.74C7.21165 12.74 8.90799 14.4363 8.90799 16.5289H5.908ZM5.11911 15.74C4.68342 15.74 4.33023 16.0932 4.33023 16.5289H1.33023C1.33023 14.4363 3.02657 12.74 5.11911 12.74V15.74Z" fill="#525252" mask="url(#path-1-outside-1_1039_71523)"/>
<mask id="path-3-outside-2_1039_71523" maskUnits="userSpaceOnUse" x="8.61523" y="5" width="16" height="16" fill="black">
<rect fill="white" x="8.61523" y="5" width="16" height="16"/>
<path d="M21.5174 16.5289C21.5174 17.793 20.4927 18.8177 19.2285 18.8177C17.9644 18.8177 16.9397 17.793 16.9397 16.5289C16.9397 15.2647 17.9644 14.24 19.2285 14.24C20.4927 14.24 21.5174 15.2647 21.5174 16.5289Z"/>
</mask>
<path d="M18.313 7.37333L17.6422 7.70874L17.6422 7.70874L18.313 7.37333ZM19.6863 10.12L19.0155 10.4554C19.0241 10.4726 19.0333 10.4894 19.0432 10.5059L19.6863 10.12ZM22.433 16.5289L22.433 15.7789H22.433V16.5289ZM21.9128 15.7789C21.4986 15.7789 21.1628 16.1146 21.1628 16.5289C21.1628 16.9431 21.4986 17.2789 21.9128 17.2789V15.7789ZM16.0241 17.2789C16.4383 17.2789 16.7741 16.9431 16.7741 16.5289C16.7741 16.1146 16.4383 15.7789 16.0241 15.7789V17.2789ZM9.61523 15.7789C9.20102 15.7789 8.86523 16.1146 8.86523 16.5289C8.86523 16.9431 9.20102 17.2789 9.61523 17.2789V15.7789ZM16.9397 6.75C16.9854 6.75 17.0454 6.75463 17.1676 6.89815C17.3126 7.06849 17.451 7.32647 17.6422 7.70874L18.9838 7.03792C18.8087 6.68774 18.5934 6.25907 18.3098 5.92585C18.0033 5.56582 17.5598 5.25 16.9397 5.25V6.75ZM17.6422 7.70874L19.0155 10.4554L20.3571 9.78458L18.9838 7.03792L17.6422 7.70874ZM19.6863 10.12C19.0432 10.5059 19.0435 10.5064 19.0439 10.507C19.044 10.5072 19.0443 10.5077 19.0445 10.5081C19.045 10.5089 19.0455 10.5096 19.0459 10.5104C19.0469 10.5119 19.0478 10.5135 19.0488 10.5151C19.0508 10.5183 19.0529 10.5216 19.0551 10.525C19.0594 10.5319 19.0642 10.5392 19.0695 10.5469C19.08 10.5623 19.0922 10.5793 19.1064 10.5978C19.1349 10.6346 19.171 10.6768 19.2161 10.7218C19.3068 10.8125 19.431 10.9124 19.5968 11.0045C19.9314 11.1904 20.4041 11.3278 21.0597 11.3278V9.82777C20.6165 9.82777 20.4026 9.73625 20.3252 9.69326C20.285 9.6709 20.2719 9.65633 20.2767 9.66119C20.2789 9.66335 20.285 9.66972 20.2941 9.68156C20.2987 9.68746 20.3039 9.69469 20.3099 9.7034C20.3128 9.70776 20.316 9.71248 20.3192 9.71759C20.3209 9.72015 20.3225 9.7228 20.3242 9.72556C20.3251 9.72693 20.3259 9.72834 20.3268 9.72976C20.3272 9.73048 20.3277 9.7312 20.3281 9.73192C20.3283 9.73229 20.3287 9.73283 20.3288 9.73302C20.3291 9.73357 20.3294 9.73412 19.6863 10.12ZM21.0597 11.3278C21.3502 11.3278 21.7834 11.4024 22.1159 11.5939C22.411 11.7639 22.5985 11.9984 22.5985 12.4089H24.0985C24.0985 11.3544 23.5231 10.6734 22.8645 10.2941C22.2433 9.93624 21.5321 9.82777 21.0597 9.82777V11.3278ZM22.5985 12.4089V15.6133H24.0985V12.4089H22.5985ZM22.5985 15.6133C22.5985 15.5871 22.605 15.587 22.5924 15.6127C22.5804 15.6375 22.5578 15.6711 22.5243 15.7046C22.4908 15.7381 22.4572 15.7607 22.4324 15.7728C22.4067 15.7853 22.4068 15.7789 22.433 15.7789L22.433 17.2789C22.9105 17.2789 23.3191 17.0311 23.585 16.7653C23.8508 16.4995 24.0985 16.0908 24.0985 15.6133H22.5985ZM22.433 15.7789H21.9128V17.2789H22.433V15.7789ZM16.0241 15.7789H9.61523V17.2789H16.0241V15.7789ZM16.9397 5.25H9.61523V6.75H16.9397V5.25ZM20.0174 16.5289C20.0174 16.9646 19.6642 17.3177 19.2285 17.3177V20.3177C21.3211 20.3177 23.0174 18.6214 23.0174 16.5289H20.0174ZM19.2285 17.3177C18.7929 17.3177 18.4397 16.9646 18.4397 16.5289H15.4397C15.4397 18.6214 17.136 20.3177 19.2285 20.3177V17.3177ZM18.4397 16.5289C18.4397 16.0932 18.7929 15.74 19.2285 15.74V12.74C17.136 12.74 15.4397 14.4363 15.4397 16.5289H18.4397ZM19.2285 15.74C19.6642 15.74 20.0174 16.0932 20.0174 16.5289H23.0174C23.0174 14.4363 21.3211 12.74 19.2285 12.74V15.74Z" fill="#525252" mask="url(#path-3-outside-2_1039_71523)"/>
<path d="M16.7024 7.5H12.8813C12.826 7.5 12.7812 7.54477 12.7812 7.6V11.2287C12.7812 11.2839 12.826 11.3287 12.8813 11.3287H18.5893C18.6643 11.3287 18.7126 11.2491 18.678 11.1825L16.7911 7.55386C16.7739 7.52077 16.7397 7.5 16.7024 7.5Z" stroke="#3C3C3C" stroke-width="1.5"/>
<path d="M7.8367 7.5H11.6578C11.713 7.5 11.7578 7.54477 11.7578 7.6V11.2287C11.7578 11.2839 11.713 11.3287 11.6578 11.3287H5.94979C5.87475 11.3287 5.82645 11.2491 5.86107 11.1825L7.74798 7.55386C7.76519 7.52077 7.79939 7.5 7.8367 7.5Z" stroke="#3C3C3C" stroke-width="1.5"/>
</g>
<defs>
<clipPath id="clip0_1039_71523">
<rect width="24" height="24" fill="white"/>
</clipPath>
</defs>
</svg>
