<svg width="16" height="16" viewBox="0 0 16 16" fill="none" xmlns="http://www.w3.org/2000/svg">
<path d="M11.1315 12.6532H4.86485C4.58485 12.6532 4.27151 12.4332 4.17818 12.1666L1.41818 4.44658C1.02485 3.33991 1.48485 2.99991 2.43151 3.67991L5.03151 5.53991C5.46485 5.83991 5.95818 5.68658 6.14485 5.19991L7.31818 2.07324C7.69151 1.07324 8.31151 1.07324 8.68485 2.07324L9.85818 5.19991C10.0448 5.68658 10.5382 5.83991 10.9648 5.53991L13.4048 3.79991C14.4448 3.05324 14.9448 3.43324 14.5182 4.63991L11.8248 12.1799C11.7248 12.4332 11.4115 12.6532 11.1315 12.6532Z" stroke="#525252" stroke-linecap="round" stroke-linejoin="round"/>
<path d="M4.33203 14.6665H11.6654" stroke="#525252" stroke-linecap="round" stroke-linejoin="round"/>
<path d="M6.33203 9.3335H9.66536" stroke="#525252" stroke-linecap="round" stroke-linejoin="round"/>
</svg>
