<svg width="44" height="44" viewBox="0 0 44 44" fill="none" xmlns="http://www.w3.org/2000/svg">
<path d="M0 22C0 9.84974 9.84974 0 22 0C34.1503 0 44 9.84974 44 22C44 34.1503 34.1503 44 22 44C9.84974 44 0 34.1503 0 22Z" fill="#E8E8FF"/>
<path d="M27 31.5H17C16.8661 31.5 16.75 31.3839 16.75 31.25C16.75 31.1161 16.8661 31 17 31H27C27.1339 31 27.25 31.1161 27.25 31.25C27.25 31.3839 27.1339 31.5 27 31.5Z" fill="url(#paint0_linear_892_3849)" stroke="url(#paint1_linear_892_3849)"/>
<path d="M30.6428 15.9255L30.641 15.9268L26.6416 18.7864L30.6428 15.9255ZM30.6428 15.9255C31.0359 15.6418 31.5602 16.0345 31.3906 16.4984L31.3893 16.5019L27.2296 28.1511C27.2296 28.1512 27.2295 28.1514 27.2295 28.1515C27.1605 28.3432 26.9685 28.48 26.7602 28.48H17.2302C17.0158 28.48 16.8297 28.3479 16.7621 28.1549L16.7622 28.1549L16.7611 28.1519L12.6014 16.5028C12.6014 16.5027 12.6013 16.5026 12.6013 16.5024C12.4385 16.0426 12.9616 15.6335 13.3718 15.9184L17.3669 18.775C18.169 19.3623 19.2948 19.0088 19.6384 18.0855C19.6386 18.085 19.6388 18.0845 19.639 18.0839L21.538 13.0567L21.538 13.0567L21.5395 13.0526C21.6989 12.6192 22.3115 12.6192 22.471 13.0526L22.4709 13.0526L22.4721 13.0556L24.3621 18.0956L24.3624 18.0964M30.6428 15.9255L24.3624 18.0964M24.3624 18.0964C24.7083 19.014 25.8441 19.3576 26.641 18.7868L24.3624 18.0964ZM19.5002 25.25H24.5002C25.1864 25.25 25.7502 24.6862 25.7502 24C25.7502 23.3139 25.1864 22.75 24.5002 22.75H19.5002C18.8141 22.75 18.2502 23.3139 18.2502 24C18.2502 24.6862 18.8141 25.25 19.5002 25.25Z" fill="url(#paint2_linear_892_3849)" stroke="url(#paint3_linear_892_3849)"/>
<defs>
<linearGradient id="paint0_linear_892_3849" x1="16.0811" y1="31.5572" x2="27.8709" y2="31.3413" gradientUnits="userSpaceOnUse">
<stop stop-color="#00A8DF"/>
<stop offset="0.74" stop-color="#1031AA"/>
</linearGradient>
<linearGradient id="paint1_linear_892_3849" x1="16.0811" y1="31.5572" x2="27.8709" y2="31.3413" gradientUnits="userSpaceOnUse">
<stop stop-color="#00A8DF"/>
<stop offset="0.74" stop-color="#1031AA"/>
</linearGradient>
<linearGradient id="paint2_linear_892_3849" x1="11.7768" y1="24.0342" x2="32.1409" y2="23.9765" gradientUnits="userSpaceOnUse">
<stop stop-color="#00A8DF"/>
<stop offset="0.74" stop-color="#1031AA"/>
</linearGradient>
<linearGradient id="paint3_linear_892_3849" x1="11.7768" y1="24.0342" x2="32.1409" y2="23.9765" gradientUnits="userSpaceOnUse">
<stop stop-color="#00A8DF"/>
<stop offset="0.74" stop-color="#1031AA"/>
</linearGradient>
</defs>
</svg>
