<svg width="139" height="41" viewBox="0 0 139 41" fill="none" xmlns="http://www.w3.org/2000/svg">
<path d="M0 3.34286L6 0V41L0.276393 38.1382C0.107001 38.0535 0 37.8804 0 37.691V3.34286Z" fill="#1212B8"/>
<path d="M0 3.33594L139 3L128 20L139 38H0V3.33594Z" fill="#5555DD"/>
<path d="M14.25 12C14.25 9.92893 15.9289 8.25 18 8.25H110C112.071 8.25 113.75 9.92893 113.75 12V28C113.75 30.0711 112.071 31.75 110 31.75H18C15.9289 31.75 14.25 30.0711 14.25 28V12Z" fill="#DFDFF9"/>
<path d="M14.25 12C14.25 9.92893 15.9289 8.25 18 8.25H110C112.071 8.25 113.75 9.92893 113.75 12V28C113.75 30.0711 112.071 31.75 110 31.75H18C15.9289 31.75 14.25 30.0711 14.25 28V12Z" stroke="#2C2CCD" stroke-width="0.5"/>
<path d="M35 30H25C24.59 30 24.25 29.66 24.25 29.25C24.25 28.84 24.59 28.5 25 28.5H35C35.41 28.5 35.75 28.84 35.75 29.25C35.75 29.66 35.41 30 35 30Z" fill="#000087"/>
<path d="M38.35 13.52L34.35 16.38C33.82 16.76 33.06 16.53 32.83 15.92L30.94 10.88C30.62 10.01 29.39 10.01 29.07 10.88L27.17 15.91C26.94 16.53 26.19 16.76 25.66 16.37L21.66 13.51C20.86 12.95 19.8 13.74 20.13 14.67L24.29 26.32C24.43 26.72 24.81 26.98 25.23 26.98H34.76C35.18 26.98 35.56 26.71 35.7 26.32L39.86 14.67C40.2 13.74 39.14 12.95 38.35 13.52ZM32.5 22.75H27.5C27.09 22.75 26.75 22.41 26.75 22C26.75 21.59 27.09 21.25 27.5 21.25H32.5C32.91 21.25 33.25 21.59 33.25 22C33.25 22.41 32.91 22.75 32.5 22.75Z" fill="#000087"/>
<path d="M53.0568 24.5V15.7727H58.3239V16.7102H54.1136V19.6591H58.0511V20.5966H54.1136V23.5625H58.392V24.5H53.0568ZM61.098 20.5625V24.5H60.0923V17.9545H61.0639V18.9773H61.1491C61.3026 18.6449 61.5355 18.3778 61.848 18.1761C62.1605 17.9716 62.5639 17.8693 63.0582 17.8693C63.5014 17.8693 63.8892 17.9602 64.2216 18.142C64.554 18.321 64.8125 18.5938 64.9972 18.9602C65.1818 19.3239 65.2741 19.7841 65.2741 20.3409V24.5H64.2685V20.4091C64.2685 19.8949 64.1349 19.4943 63.8679 19.2074C63.6009 18.9176 63.2344 18.7727 62.7685 18.7727C62.4474 18.7727 62.1605 18.8423 61.9077 18.9815C61.6577 19.1207 61.4602 19.3239 61.3153 19.5909C61.1705 19.858 61.098 20.1818 61.098 20.5625ZM69.9585 17.9545V18.8068H66.5664V17.9545H69.9585ZM67.555 16.3864H68.5607V22.625C68.5607 22.9091 68.6019 23.1222 68.6843 23.2642C68.7695 23.4034 68.8775 23.4972 69.0082 23.5455C69.1417 23.5909 69.2823 23.6136 69.43 23.6136C69.5408 23.6136 69.6317 23.608 69.7028 23.5966C69.7738 23.5824 69.8306 23.571 69.8732 23.5625L70.0778 24.4659C70.0096 24.4915 69.9144 24.517 69.7923 24.5426C69.6701 24.571 69.5153 24.5852 69.3278 24.5852C69.0437 24.5852 68.7653 24.5241 68.4925 24.402C68.2227 24.2798 67.9982 24.0938 67.8192 23.8438C67.6431 23.5938 67.555 23.2784 67.555 22.8977V16.3864ZM74.1452 24.6364C73.5146 24.6364 72.9705 24.4972 72.5131 24.2188C72.0586 23.9375 71.7077 23.5455 71.4606 23.0426C71.2163 22.5369 71.0941 21.9489 71.0941 21.2784C71.0941 20.608 71.2163 20.017 71.4606 19.5057C71.7077 18.9915 72.0515 18.5909 72.4918 18.304C72.935 18.0142 73.4521 17.8693 74.043 17.8693C74.3839 17.8693 74.7205 17.9261 75.0529 18.0398C75.3853 18.1534 75.6879 18.3381 75.9606 18.5938C76.2333 18.8466 76.4506 19.1818 76.6126 19.5994C76.7745 20.017 76.8555 20.5312 76.8555 21.142V21.5682H71.81V20.6989H75.8327C75.8327 20.3295 75.7589 20 75.6112 19.7102C75.4663 19.4205 75.2589 19.1918 74.989 19.0241C74.7219 18.8565 74.4066 18.7727 74.043 18.7727C73.6424 18.7727 73.2958 18.8722 73.0032 19.071C72.7134 19.267 72.4904 19.5227 72.3342 19.8381C72.1779 20.1534 72.0998 20.4915 72.0998 20.8523V21.4318C72.0998 21.9261 72.185 22.3452 72.3555 22.6889C72.5288 23.0298 72.7688 23.2898 73.0756 23.4688C73.3825 23.6449 73.739 23.733 74.1452 23.733C74.4094 23.733 74.6481 23.696 74.8612 23.6222C75.0771 23.5455 75.2631 23.4318 75.4194 23.2812C75.5756 23.1278 75.6964 22.9375 75.7816 22.7102L76.7532 22.983C76.6509 23.3125 76.479 23.6023 76.2376 23.8523C75.9961 24.0994 75.6978 24.2926 75.3427 24.4318C74.9876 24.5682 74.5884 24.6364 74.1452 24.6364ZM78.3853 24.5V17.9545H79.3569V18.9432H79.4251C79.5444 18.6193 79.7603 18.3565 80.0728 18.1548C80.3853 17.9531 80.7376 17.8523 81.1296 17.8523C81.2035 17.8523 81.2958 17.8537 81.4066 17.8565C81.5174 17.8594 81.6012 17.8636 81.658 17.8693V18.892C81.6239 18.8835 81.5458 18.8707 81.4237 18.8537C81.3043 18.8338 81.1779 18.8239 81.0444 18.8239C80.7262 18.8239 80.4421 18.8906 80.1921 19.0241C79.945 19.1548 79.7489 19.3366 79.604 19.5696C79.462 19.7997 79.391 20.0625 79.391 20.358V24.5H78.3853ZM82.8501 26.9545V17.9545H83.8217V18.9943H83.9411C84.0149 18.8807 84.1172 18.7358 84.2479 18.5597C84.3814 18.3807 84.5717 18.2216 84.8189 18.0824C85.0689 17.9403 85.407 17.8693 85.8331 17.8693C86.3842 17.8693 86.87 18.0071 87.2905 18.2827C87.7109 18.5582 88.0391 18.9489 88.2749 19.4545C88.5107 19.9602 88.6286 20.5568 88.6286 21.2443C88.6286 21.9375 88.5107 22.5384 88.2749 23.0469C88.0391 23.5526 87.7124 23.9446 87.2947 24.223C86.8771 24.4986 86.3956 24.6364 85.8501 24.6364C85.4297 24.6364 85.093 24.5668 84.8402 24.4276C84.5874 24.2855 84.3928 24.125 84.2564 23.946C84.12 23.7642 84.0149 23.6136 83.9411 23.4943H83.8558V26.9545H82.8501ZM83.8388 21.2273C83.8388 21.7216 83.9112 22.1577 84.0561 22.5355C84.201 22.9105 84.4126 23.2045 84.6911 23.4176C84.9695 23.6278 85.3104 23.733 85.7138 23.733C86.1342 23.733 86.4851 23.6222 86.7663 23.4006C87.0504 23.1761 87.2635 22.875 87.4055 22.4972C87.5504 22.1165 87.6229 21.6932 87.6229 21.2273C87.6229 20.767 87.5518 20.3523 87.4098 19.983C87.2706 19.6108 87.0589 19.3168 86.7749 19.1009C86.4936 18.8821 86.1399 18.7727 85.7138 18.7727C85.3047 18.7727 84.9609 18.8764 84.6825 19.0838C84.4041 19.2884 84.1939 19.5753 84.0518 19.9446C83.9098 20.3111 83.8388 20.7386 83.8388 21.2273ZM90.1626 24.5V17.9545H91.1342V18.9432H91.2024C91.3217 18.6193 91.5376 18.3565 91.8501 18.1548C92.1626 17.9531 92.5149 17.8523 92.907 17.8523C92.9808 17.8523 93.0732 17.8537 93.1839 17.8565C93.2947 17.8594 93.3786 17.8636 93.4354 17.8693V18.892C93.4013 18.8835 93.3232 18.8707 93.201 18.8537C93.0817 18.8338 92.9553 18.8239 92.8217 18.8239C92.5036 18.8239 92.2195 18.8906 91.9695 19.0241C91.7223 19.1548 91.5263 19.3366 91.3814 19.5696C91.2393 19.7997 91.1683 20.0625 91.1683 20.358V24.5H90.1626ZM94.6275 24.5V17.9545H95.6332V24.5H94.6275ZM95.1388 16.8636C94.9428 16.8636 94.7738 16.7969 94.6317 16.6634C94.4925 16.5298 94.4229 16.3693 94.4229 16.1818C94.4229 15.9943 94.4925 15.8338 94.6317 15.7003C94.7738 15.5668 94.9428 15.5 95.1388 15.5C95.3349 15.5 95.5025 15.5668 95.6417 15.7003C95.7837 15.8338 95.8548 15.9943 95.8548 16.1818C95.8548 16.3693 95.7837 16.5298 95.6417 16.6634C95.5025 16.7969 95.3349 16.8636 95.1388 16.8636ZM102.112 19.4205L101.208 19.6761C101.151 19.5256 101.067 19.3793 100.957 19.2372C100.849 19.0923 100.701 18.973 100.513 18.8793C100.326 18.7855 100.086 18.7386 99.7933 18.7386C99.3928 18.7386 99.0589 18.831 98.7919 19.0156C98.5277 19.1974 98.3956 19.429 98.3956 19.7102C98.3956 19.9602 98.4865 20.1577 98.6683 20.3026C98.8501 20.4474 99.1342 20.5682 99.5206 20.6648L100.492 20.9034C101.077 21.0455 101.513 21.2628 101.8 21.5554C102.087 21.8452 102.231 22.2187 102.231 22.6761C102.231 23.0511 102.123 23.3864 101.907 23.6818C101.694 23.9773 101.396 24.2102 101.012 24.3807C100.629 24.5511 100.183 24.6364 99.674 24.6364C99.0064 24.6364 98.4538 24.4915 98.0163 24.2017C97.5788 23.9119 97.3018 23.4886 97.1854 22.9318L98.1399 22.6932C98.2308 23.0455 98.4027 23.3097 98.6555 23.4858C98.9112 23.6619 99.245 23.75 99.657 23.75C100.126 23.75 100.498 23.6506 100.773 23.4517C101.052 23.25 101.191 23.0085 101.191 22.7273C101.191 22.5 101.112 22.3097 100.952 22.1562C100.793 22 100.549 21.8835 100.219 21.8068L99.1286 21.5511C98.5291 21.4091 98.0888 21.1889 97.8075 20.8906C97.5291 20.5895 97.3899 20.2131 97.3899 19.7614C97.3899 19.392 97.4936 19.0653 97.701 18.7812C97.9112 18.4972 98.1967 18.2741 98.5575 18.1122C98.9212 17.9503 99.3331 17.8693 99.7933 17.8693C100.441 17.8693 100.95 18.0114 101.319 18.2955C101.691 18.5795 101.955 18.9545 102.112 19.4205ZM106.489 24.6364C105.858 24.6364 105.314 24.4972 104.857 24.2188C104.402 23.9375 104.051 23.5455 103.804 23.0426C103.56 22.5369 103.438 21.9489 103.438 21.2784C103.438 20.608 103.56 20.017 103.804 19.5057C104.051 18.9915 104.395 18.5909 104.836 18.304C105.279 18.0142 105.796 17.8693 106.387 17.8693C106.728 17.8693 107.064 17.9261 107.397 18.0398C107.729 18.1534 108.032 18.3381 108.304 18.5938C108.577 18.8466 108.794 19.1818 108.956 19.5994C109.118 20.017 109.199 20.5312 109.199 21.142V21.5682H104.154V20.6989H108.176C108.176 20.3295 108.103 20 107.955 19.7102C107.81 19.4205 107.603 19.1918 107.333 19.0241C107.066 18.8565 106.75 18.7727 106.387 18.7727C105.986 18.7727 105.64 18.8722 105.347 19.071C105.057 19.267 104.834 19.5227 104.678 19.8381C104.522 20.1534 104.444 20.4915 104.444 20.8523V21.4318C104.444 21.9261 104.529 22.3452 104.699 22.6889C104.873 23.0298 105.113 23.2898 105.419 23.4688C105.726 23.6449 106.083 23.733 106.489 23.733C106.753 23.733 106.992 23.696 107.205 23.6222C107.421 23.5455 107.607 23.4318 107.763 23.2812C107.919 23.1278 108.04 22.9375 108.125 22.7102L109.097 22.983C108.995 23.3125 108.823 23.6023 108.581 23.8523C108.34 24.0994 108.042 24.2926 107.686 24.4318C107.331 24.5682 106.932 24.6364 106.489 24.6364Z" fill="#000087"/>
</svg>
