<svg width="34" height="32" viewBox="0 0 34 32" fill="none" xmlns="http://www.w3.org/2000/svg">
<path d="M24.5 15.175V10.075C24.5 8.95 24.02 8.5 22.8275 8.5H19.7975C18.605 8.5 18.125 8.95 18.125 10.075V15.175C18.125 16.3 18.605 16.75 19.7975 16.75H22.8275C24.02 16.75 24.5 16.3 24.5 15.175Z" stroke="#2E2E2E" stroke-width="1.5" stroke-linecap="round" stroke-linejoin="round"/>
<path d="M24.5 21.925V20.575C24.5 19.45 24.02 19 22.8275 19H19.7975C18.605 19 18.125 19.45 18.125 20.575V21.925C18.125 23.05 18.605 23.5 19.7975 23.5H22.8275C24.02 23.5 24.5 23.05 24.5 21.925Z" stroke="#2E2E2E" stroke-width="1.5" stroke-linecap="round" stroke-linejoin="round"/>
<path d="M15.875 16.825V21.925C15.875 23.05 15.395 23.5 14.2025 23.5H11.1725C9.98 23.5 9.5 23.05 9.5 21.925V16.825C9.5 15.7 9.98 15.25 11.1725 15.25H14.2025C15.395 15.25 15.875 15.7 15.875 16.825Z" stroke="#2E2E2E" stroke-width="1.5" stroke-linecap="round" stroke-linejoin="round"/>
<path d="M15.875 10.075V11.425C15.875 12.55 15.395 13 14.2025 13H11.1725C9.98 13 9.5 12.55 9.5 11.425V10.075C9.5 8.95 9.98 8.5 11.1725 8.5H14.2025C15.395 8.5 15.875 8.95 15.875 10.075Z" stroke="#2E2E2E" stroke-width="1.5" stroke-linecap="round" stroke-linejoin="round"/>
</svg>
