<svg width="34" height="32" viewBox="0 0 34 32" fill="none" xmlns="http://www.w3.org/2000/svg">
<path d="M0.25 4C0.25 1.92893 1.92893 0.25 4 0.25H30C32.0711 0.25 33.75 1.92893 33.75 4V28C33.75 30.0711 32.0711 31.75 30 31.75H4C1.92893 31.75 0.25 30.0711 0.25 28V4Z" fill="#DFDFF9"/>
<path d="M0.25 4C0.25 1.92893 1.92893 0.25 4 0.25H30C32.0711 0.25 33.75 1.92893 33.75 4V28C33.75 30.0711 32.0711 31.75 30 31.75H4C1.92893 31.75 0.25 30.0711 0.25 28V4Z" stroke="#2C2CCD" stroke-width="0.5"/>
<path d="M14 11.5H23.75M14 16H23.75M14 20.5H23.75M10.25 11.5H10.2575M10.25 16H10.2575M10.25 20.5H10.2575" stroke="#2C2CCD" stroke-width="2" stroke-linecap="round" stroke-linejoin="round"/>
</svg>
