<svg width="44" height="44" viewBox="0 0 44 44" fill="none" xmlns="http://www.w3.org/2000/svg">
<path d="M0 22C0 9.84974 9.84974 0 22 0C34.1503 0 44 9.84974 44 22C44 34.1503 34.1503 44 22 44C9.84974 44 0 34.1503 0 22Z" fill="#000087"/>
<path d="M19.9418 19.0497C19.8045 18.6188 19.6198 18.233 19.3878 17.892C19.1605 17.5464 18.8883 17.2528 18.571 17.0114C18.2538 16.7652 17.8916 16.5781 17.4844 16.4503C17.0819 16.3224 16.6392 16.2585 16.1562 16.2585C15.3371 16.2585 14.5985 16.4692 13.9403 16.8906C13.2822 17.312 12.7614 17.9299 12.3778 18.7443C11.9991 19.554 11.8097 20.5459 11.8097 21.7202C11.8097 22.8991 12.0014 23.8958 12.3849 24.7102C12.7685 25.5246 13.294 26.1425 13.9616 26.5639C14.6293 26.9853 15.3892 27.196 16.2415 27.196C17.0322 27.196 17.7211 27.035 18.3082 26.7131C18.9001 26.3911 19.357 25.9366 19.679 25.3494C20.0057 24.7576 20.169 24.0616 20.169 23.2614L20.7372 23.3679H16.5753V21.5568H22.2926V23.2116C22.2926 24.4332 22.0322 25.4938 21.5114 26.3935C20.9953 27.2884 20.2803 27.9796 19.3665 28.4673C18.4574 28.955 17.4157 29.1989 16.2415 29.1989C14.9252 29.1989 13.7699 28.8958 12.7756 28.2898C11.786 27.6837 11.0142 26.8243 10.4602 25.7116C9.90625 24.5942 9.62926 23.2685 9.62926 21.7344C9.62926 20.5743 9.79025 19.5327 10.1122 18.6094C10.4342 17.6861 10.8864 16.9025 11.4688 16.2585C12.0559 15.6098 12.7448 15.1151 13.5355 14.7741C14.331 14.4285 15.1998 14.2557 16.142 14.2557C16.928 14.2557 17.6596 14.3717 18.3366 14.6037C19.0185 14.8357 19.6245 15.1648 20.1548 15.5909C20.6899 16.017 21.1326 16.5237 21.483 17.1108C21.8333 17.6932 22.0701 18.3395 22.1932 19.0497H19.9418ZM25.0785 29V14.4545H34.0984V16.3438H27.2731V20.7756H33.4521V22.6577H27.2731V29H25.0785Z" fill="#FAFAFA"/>
</svg>
