<svg width="40" height="40" viewBox="0 0 40 40" fill="none" xmlns="http://www.w3.org/2000/svg">
<path d="M16.3586 20.0007C16.3586 17.9902 17.989 16.3599 20.0008 16.3599C22.0125 16.3599 23.6438 17.9902 23.6438 20.0007C23.6438 22.0112 22.0125 23.6415 20.0008 23.6415C17.989 23.6415 16.3586 22.0112 16.3586 20.0007ZM14.3893 20.0007C14.3893 23.098 16.9015 25.6088 20.0008 25.6088C23.1 25.6088 25.6122 23.098 25.6122 20.0007C25.6122 16.9033 23.1 14.3926 20.0008 14.3926C16.9015 14.3926 14.3893 16.9033 14.3893 20.0007ZM24.523 14.1702C24.5229 14.4294 24.5997 14.6829 24.7437 14.8984C24.8877 15.114 25.0925 15.2821 25.3321 15.3814C25.5716 15.4807 25.8353 15.5067 26.0897 15.4563C26.3441 15.4058 26.5778 15.2811 26.7613 15.0978C26.9448 14.9146 27.0698 14.6812 27.1205 14.4269C27.1712 14.1727 27.1453 13.9092 27.0461 13.6697C26.947 13.4302 26.779 13.2254 26.5634 13.0813C26.3478 12.9372 26.0943 12.8603 25.8349 12.8602H25.8344C25.4867 12.8603 25.1533 12.9984 24.9075 13.244C24.6616 13.4896 24.5233 13.8228 24.523 14.1702ZM15.5858 28.8906C14.5204 28.8421 13.9412 28.6647 13.5564 28.5149C13.0462 28.3164 12.6822 28.08 12.2994 27.698C11.9167 27.316 11.6797 26.9525 11.482 26.4426C11.332 26.0581 11.1545 25.4792 11.1061 24.4144C11.0531 23.2632 11.0425 22.9174 11.0425 20.0008C11.0425 17.0842 11.0539 16.7393 11.1061 15.5871C11.1546 14.5223 11.3334 13.9445 11.482 13.559C11.6806 13.0491 11.9172 12.6852 12.2994 12.3027C12.6816 11.9202 13.0453 11.6834 13.5564 11.4858C13.9411 11.3359 14.5204 11.1585 15.5858 11.1101C16.7377 11.0571 17.0837 11.0466 20.0008 11.0466C22.9178 11.0466 23.2642 11.058 24.417 11.1101C25.4825 11.1586 26.0606 11.3372 26.4464 11.4858C26.9567 11.6834 27.3207 11.9207 27.7034 12.3027C28.0862 12.6847 28.3222 13.0491 28.5209 13.559C28.6709 13.9434 28.8484 14.5223 28.8968 15.5871C28.9498 16.7393 28.9604 17.0842 28.9604 20.0008C28.9604 22.9174 28.9498 23.2622 28.8968 24.4144C28.8483 25.4792 28.6699 26.058 28.5209 26.4426C28.3222 26.9525 28.0857 27.3163 27.7034 27.698C27.3212 28.0796 26.9567 28.3164 26.4464 28.5149C26.0618 28.6648 25.4825 28.8422 24.417 28.8906C23.2651 28.9435 22.9191 28.9541 20.0008 28.9541C17.0824 28.9541 16.7374 28.9435 15.5858 28.8906ZM15.4953 9.14524C14.332 9.19819 13.537 9.38255 12.8428 9.65253C12.1238 9.93133 11.5151 10.3054 10.9069 10.9123C10.2987 11.5192 9.92538 12.1284 9.6464 12.847C9.37626 13.5412 9.19179 14.3353 9.13881 15.4979C9.08496 16.6624 9.07263 17.0347 9.07263 20.0007C9.07263 22.9666 9.08496 23.3389 9.13881 24.5034C9.19179 25.6662 9.37626 26.4601 9.6464 27.1544C9.92538 27.8725 10.2988 28.4825 10.9069 29.0891C11.515 29.6957 12.1238 30.0693 12.8428 30.3488C13.5383 30.6188 14.332 30.8032 15.4953 30.8561C16.6611 30.9091 17.033 30.9223 20.0008 30.9223C22.9685 30.9223 23.341 30.91 24.5062 30.8561C25.6697 30.8032 26.4641 30.6188 27.1588 30.3488C27.8773 30.0693 28.4864 29.696 29.0946 29.0891C29.7029 28.4822 30.0754 27.8725 30.3551 27.1544C30.6253 26.4601 30.8106 25.6661 30.8627 24.5034C30.9157 23.3381 30.928 22.9666 30.928 20.0007C30.928 17.0347 30.9157 16.6624 30.8627 15.4979C30.8097 14.3352 30.6253 13.5408 30.3551 12.847C30.0754 12.1288 29.7019 11.5201 29.0946 10.9123C28.4874 10.3044 27.8773 9.93133 27.1597 9.65253C26.4641 9.38255 25.6696 9.19732 24.5071 9.14524C23.3419 9.09229 22.9694 9.0791 20.0016 9.0791C17.0339 9.0791 16.6611 9.09142 15.4953 9.14524Z" fill="url(#paint0_radial_191_18614)"/>
<path d="M16.3586 20.0007C16.3586 17.9902 17.989 16.3599 20.0008 16.3599C22.0125 16.3599 23.6438 17.9902 23.6438 20.0007C23.6438 22.0112 22.0125 23.6415 20.0008 23.6415C17.989 23.6415 16.3586 22.0112 16.3586 20.0007ZM14.3893 20.0007C14.3893 23.098 16.9015 25.6088 20.0008 25.6088C23.1 25.6088 25.6122 23.098 25.6122 20.0007C25.6122 16.9033 23.1 14.3926 20.0008 14.3926C16.9015 14.3926 14.3893 16.9033 14.3893 20.0007ZM24.523 14.1702C24.5229 14.4294 24.5997 14.6829 24.7437 14.8984C24.8877 15.114 25.0925 15.2821 25.3321 15.3814C25.5716 15.4807 25.8353 15.5067 26.0897 15.4563C26.3441 15.4058 26.5778 15.2811 26.7613 15.0978C26.9448 14.9146 27.0698 14.6812 27.1205 14.4269C27.1712 14.1727 27.1453 13.9092 27.0461 13.6697C26.947 13.4302 26.779 13.2254 26.5634 13.0813C26.3478 12.9372 26.0943 12.8603 25.8349 12.8602H25.8344C25.4867 12.8603 25.1533 12.9984 24.9075 13.244C24.6616 13.4896 24.5233 13.8228 24.523 14.1702ZM15.5858 28.8906C14.5204 28.8421 13.9412 28.6647 13.5564 28.5149C13.0462 28.3164 12.6822 28.08 12.2994 27.698C11.9167 27.316 11.6797 26.9525 11.482 26.4426C11.332 26.0581 11.1545 25.4792 11.1061 24.4144C11.0531 23.2632 11.0425 22.9174 11.0425 20.0008C11.0425 17.0842 11.0539 16.7393 11.1061 15.5871C11.1546 14.5223 11.3334 13.9445 11.482 13.559C11.6806 13.0491 11.9172 12.6852 12.2994 12.3027C12.6816 11.9202 13.0453 11.6834 13.5564 11.4858C13.9411 11.3359 14.5204 11.1585 15.5858 11.1101C16.7377 11.0571 17.0837 11.0466 20.0008 11.0466C22.9178 11.0466 23.2642 11.058 24.417 11.1101C25.4825 11.1586 26.0606 11.3372 26.4464 11.4858C26.9567 11.6834 27.3207 11.9207 27.7034 12.3027C28.0862 12.6847 28.3222 13.0491 28.5209 13.559C28.6709 13.9434 28.8484 14.5223 28.8968 15.5871C28.9498 16.7393 28.9604 17.0842 28.9604 20.0008C28.9604 22.9174 28.9498 23.2622 28.8968 24.4144C28.8483 25.4792 28.6699 26.058 28.5209 26.4426C28.3222 26.9525 28.0857 27.3163 27.7034 27.698C27.3212 28.0796 26.9567 28.3164 26.4464 28.5149C26.0618 28.6648 25.4825 28.8422 24.417 28.8906C23.2651 28.9435 22.9191 28.9541 20.0008 28.9541C17.0824 28.9541 16.7374 28.9435 15.5858 28.8906ZM15.4953 9.14524C14.332 9.19819 13.537 9.38255 12.8428 9.65253C12.1238 9.93133 11.5151 10.3054 10.9069 10.9123C10.2987 11.5192 9.92538 12.1284 9.6464 12.847C9.37626 13.5412 9.19179 14.3353 9.13881 15.4979C9.08496 16.6624 9.07263 17.0347 9.07263 20.0007C9.07263 22.9666 9.08496 23.3389 9.13881 24.5034C9.19179 25.6662 9.37626 26.4601 9.6464 27.1544C9.92538 27.8725 10.2988 28.4825 10.9069 29.0891C11.515 29.6957 12.1238 30.0693 12.8428 30.3488C13.5383 30.6188 14.332 30.8032 15.4953 30.8561C16.6611 30.9091 17.033 30.9223 20.0008 30.9223C22.9685 30.9223 23.341 30.91 24.5062 30.8561C25.6697 30.8032 26.4641 30.6188 27.1588 30.3488C27.8773 30.0693 28.4864 29.696 29.0946 29.0891C29.7029 28.4822 30.0754 27.8725 30.3551 27.1544C30.6253 26.4601 30.8106 25.6661 30.8627 24.5034C30.9157 23.3381 30.928 22.9666 30.928 20.0007C30.928 17.0347 30.9157 16.6624 30.8627 15.4979C30.8097 14.3352 30.6253 13.5408 30.3551 12.847C30.0754 12.1288 29.7019 11.5201 29.0946 10.9123C28.4874 10.3044 27.8773 9.93133 27.1597 9.65253C26.4641 9.38255 25.6696 9.19732 24.5071 9.14524C23.3419 9.09229 22.9694 9.0791 20.0016 9.0791C17.0339 9.0791 16.6611 9.09142 15.4953 9.14524Z" fill="url(#paint1_radial_191_18614)"/>
<defs>
<radialGradient id="paint0_radial_191_18614" cx="0" cy="0" r="1" gradientUnits="userSpaceOnUse" gradientTransform="translate(11.9764 31.0255) scale(28.5315 28.5144)">
<stop offset="0.09" stop-color="#FA8F21"/>
<stop offset="0.78" stop-color="#D82D7E"/>
</radialGradient>
<radialGradient id="paint1_radial_191_18614" cx="0" cy="0" r="1" gradientUnits="userSpaceOnUse" gradientTransform="translate(22.3275 32.004) scale(22.4868 22.4733)">
<stop offset="0.64" stop-color="#8C3AAA" stop-opacity="0"/>
<stop offset="1" stop-color="#8C3AAA"/>
</radialGradient>
</defs>
</svg>
