<svg width="18" height="18" viewBox="0 0 18 18" fill="none" xmlns="http://www.w3.org/2000/svg">
<path d="M9.0013 13.1665C10.1541 13.1665 11.1367 12.7603 11.9492 11.9478C12.7617 11.1353 13.168 10.1526 13.168 8.99984C13.168 7.84706 12.7617 6.86442 11.9492 6.05192C11.1367 5.23942 10.1541 4.83317 9.0013 4.83317C7.84852 4.83317 6.86589 5.23942 6.05339 6.05192C5.24089 6.86442 4.83464 7.84706 4.83464 8.99984C4.83464 10.1526 5.24089 11.1353 6.05339 11.9478C6.86589 12.7603 7.84852 13.1665 9.0013 13.1665ZM9.0013 17.3332C7.84852 17.3332 6.76519 17.1144 5.7513 16.6769C4.73741 16.2394 3.85547 15.6457 3.10547 14.8957C2.35547 14.1457 1.76172 13.2637 1.32422 12.2498C0.886719 11.2359 0.667969 10.1526 0.667969 8.99984C0.667969 7.84706 0.886719 6.76373 1.32422 5.74984C1.76172 4.73595 2.35547 3.854 3.10547 3.104C3.85547 2.354 4.73741 1.76025 5.7513 1.32275C6.76519 0.885254 7.84852 0.666504 9.0013 0.666504C10.1541 0.666504 11.2374 0.885254 12.2513 1.32275C13.2652 1.76025 14.1471 2.354 14.8971 3.104C15.6471 3.854 16.2409 4.73595 16.6784 5.74984C17.1159 6.76373 17.3346 7.84706 17.3346 8.99984C17.3346 10.1526 17.1159 11.2359 16.6784 12.2498C16.2409 13.2637 15.6471 14.1457 14.8971 14.8957C14.1471 15.6457 13.2652 16.2394 12.2513 16.6769C11.2374 17.1144 10.1541 17.3332 9.0013 17.3332ZM9.0013 15.6665C10.8624 15.6665 12.4388 15.0207 13.7305 13.729C15.0221 12.4373 15.668 10.8609 15.668 8.99984C15.668 7.13873 15.0221 5.56234 13.7305 4.27067C12.4388 2.979 10.8624 2.33317 9.0013 2.33317C7.14019 2.33317 5.5638 2.979 4.27214 4.27067C2.98047 5.56234 2.33464 7.13873 2.33464 8.99984C2.33464 10.8609 2.98047 12.4373 4.27214 13.729C5.5638 15.0207 7.14019 15.6665 9.0013 15.6665Z" fill="#000087"/>
</svg>
