<svg width="41" height="40" viewBox="0 0 41 40" fill="none" xmlns="http://www.w3.org/2000/svg">
<path d="M16.9618 20.0002C16.9618 17.9897 18.5922 16.3594 20.6039 16.3594C22.6157 16.3594 24.2469 17.9897 24.2469 20.0002C24.2469 22.0107 22.6157 23.641 20.6039 23.641C18.5922 23.641 16.9618 22.0107 16.9618 20.0002ZM14.9925 20.0002C14.9925 23.0976 17.5047 25.6083 20.6039 25.6083C23.7031 25.6083 26.2154 23.0976 26.2154 20.0002C26.2154 16.9028 23.7031 14.3921 20.6039 14.3921C17.5047 14.3921 14.9925 16.9028 14.9925 20.0002ZM25.1262 14.1697C25.1261 14.4289 25.2029 14.6824 25.3469 14.8979C25.4909 15.1135 25.6956 15.2816 25.9352 15.3809C26.1748 15.4802 26.4385 15.5062 26.6929 15.4558C26.9473 15.4053 27.181 15.2806 27.3644 15.0974C27.5479 14.9141 27.6729 14.6807 27.7236 14.4265C27.7743 14.1722 27.7484 13.9087 27.6493 13.6692C27.5501 13.4297 27.3821 13.2249 27.1665 13.0808C26.9509 12.9367 26.6974 12.8598 26.4381 12.8597H26.4375C26.0899 12.8598 25.7565 12.9979 25.5106 13.2435C25.2647 13.4892 25.1265 13.8223 25.1262 14.1697ZM16.189 28.8901C15.1235 28.8416 14.5444 28.6642 14.1596 28.5144C13.6493 28.3159 13.2853 28.0795 12.9026 27.6975C12.5198 27.3155 12.2829 26.952 12.0851 26.4421C11.9351 26.0577 11.7576 25.4787 11.7092 24.4139C11.6562 23.2627 11.6456 22.9169 11.6456 20.0003C11.6456 17.0837 11.6571 16.7388 11.7092 15.5867C11.7577 14.5218 11.9365 13.944 12.0851 13.5585C12.2838 13.0486 12.5203 12.6847 12.9026 12.3022C13.2848 11.9197 13.6485 11.6829 14.1596 11.4853C14.5442 11.3354 15.1235 11.158 16.189 11.1096C17.3409 11.0566 17.6869 11.0461 20.6039 11.0461C23.5209 11.0461 23.8673 11.0575 25.0202 11.1096C26.0856 11.1581 26.6638 11.3368 27.0496 11.4853C27.5598 11.6829 27.9238 11.9202 28.3066 12.3022C28.6893 12.6842 28.9254 13.0486 29.124 13.5585C29.274 13.9429 29.4515 14.5218 29.4999 15.5867C29.5529 16.7388 29.5635 17.0837 29.5635 20.0003C29.5635 22.9169 29.5529 23.2617 29.4999 24.4139C29.4514 25.4787 29.2731 26.0575 29.124 26.4421C28.9254 26.952 28.6888 27.3158 28.3066 27.6975C27.9244 28.0791 27.5598 28.3159 27.0496 28.5144C26.6649 28.6643 26.0856 28.8417 25.0202 28.8901C23.8683 28.9431 23.5223 28.9536 20.6039 28.9536C17.6856 28.9536 17.3405 28.9431 16.189 28.8901ZM16.0985 9.14475C14.9351 9.1977 14.1401 9.38206 13.4459 9.65204C12.7269 9.93085 12.1183 10.3049 11.51 10.9118C10.9018 11.5187 10.5285 12.1279 10.2496 12.8465C9.97941 13.5407 9.79494 14.3348 9.74196 15.4974C9.68811 16.662 9.67578 17.0342 9.67578 20.0002C9.67578 22.9662 9.68811 23.3384 9.74196 24.5029C9.79494 25.6657 9.97941 26.4597 10.2496 27.1539C10.5285 27.872 10.9019 28.482 11.51 29.0886C12.1182 29.6952 12.7269 30.0688 13.4459 30.3484C14.1415 30.6183 14.9351 30.8027 16.0985 30.8556C17.2643 30.9086 17.6362 30.9218 20.6039 30.9218C23.5717 30.9218 23.9442 30.9095 25.1094 30.8556C26.2728 30.8027 27.0673 30.6183 27.7619 30.3484C28.4805 30.0688 29.0896 29.6955 29.6978 29.0886C30.306 28.4817 30.6785 27.872 30.9583 27.1539C31.2284 26.4597 31.4138 25.6656 31.4659 24.5029C31.5189 23.3376 31.5312 22.9662 31.5312 20.0002C31.5312 17.0342 31.5189 16.662 31.4659 15.4974C31.4129 14.3347 31.2284 13.5403 30.9583 12.8465C30.6785 12.1284 30.305 11.5196 29.6978 10.9118C29.0905 10.3039 28.4805 9.93085 27.7628 9.65204C27.0673 9.38206 26.2727 9.19683 25.1102 9.14475C23.945 9.09181 23.5725 9.07861 20.6048 9.07861C17.6371 9.07861 17.2643 9.09093 16.0985 9.14475Z" fill="url(#paint0_radial_435_78377)"/>
<path d="M16.9618 20.0002C16.9618 17.9897 18.5922 16.3594 20.6039 16.3594C22.6157 16.3594 24.2469 17.9897 24.2469 20.0002C24.2469 22.0107 22.6157 23.641 20.6039 23.641C18.5922 23.641 16.9618 22.0107 16.9618 20.0002ZM14.9925 20.0002C14.9925 23.0976 17.5047 25.6083 20.6039 25.6083C23.7031 25.6083 26.2154 23.0976 26.2154 20.0002C26.2154 16.9028 23.7031 14.3921 20.6039 14.3921C17.5047 14.3921 14.9925 16.9028 14.9925 20.0002ZM25.1262 14.1697C25.1261 14.4289 25.2029 14.6824 25.3469 14.8979C25.4909 15.1135 25.6956 15.2816 25.9352 15.3809C26.1748 15.4802 26.4385 15.5062 26.6929 15.4558C26.9473 15.4053 27.181 15.2806 27.3644 15.0974C27.5479 14.9141 27.6729 14.6807 27.7236 14.4265C27.7743 14.1722 27.7484 13.9087 27.6493 13.6692C27.5501 13.4297 27.3821 13.2249 27.1665 13.0808C26.9509 12.9367 26.6974 12.8598 26.4381 12.8597H26.4375C26.0899 12.8598 25.7565 12.9979 25.5106 13.2435C25.2647 13.4892 25.1265 13.8223 25.1262 14.1697ZM16.189 28.8901C15.1235 28.8416 14.5444 28.6642 14.1596 28.5144C13.6493 28.3159 13.2853 28.0795 12.9026 27.6975C12.5198 27.3155 12.2829 26.952 12.0851 26.4421C11.9351 26.0577 11.7576 25.4787 11.7092 24.4139C11.6562 23.2627 11.6456 22.9169 11.6456 20.0003C11.6456 17.0837 11.6571 16.7388 11.7092 15.5867C11.7577 14.5218 11.9365 13.944 12.0851 13.5585C12.2838 13.0486 12.5203 12.6847 12.9026 12.3022C13.2848 11.9197 13.6485 11.6829 14.1596 11.4853C14.5442 11.3354 15.1235 11.158 16.189 11.1096C17.3409 11.0566 17.6869 11.0461 20.6039 11.0461C23.5209 11.0461 23.8673 11.0575 25.0202 11.1096C26.0856 11.1581 26.6638 11.3368 27.0496 11.4853C27.5598 11.6829 27.9238 11.9202 28.3066 12.3022C28.6893 12.6842 28.9254 13.0486 29.124 13.5585C29.274 13.9429 29.4515 14.5218 29.4999 15.5867C29.5529 16.7388 29.5635 17.0837 29.5635 20.0003C29.5635 22.9169 29.5529 23.2617 29.4999 24.4139C29.4514 25.4787 29.2731 26.0575 29.124 26.4421C28.9254 26.952 28.6888 27.3158 28.3066 27.6975C27.9244 28.0791 27.5598 28.3159 27.0496 28.5144C26.6649 28.6643 26.0856 28.8417 25.0202 28.8901C23.8683 28.9431 23.5223 28.9536 20.6039 28.9536C17.6856 28.9536 17.3405 28.9431 16.189 28.8901ZM16.0985 9.14475C14.9351 9.1977 14.1401 9.38206 13.4459 9.65204C12.7269 9.93085 12.1183 10.3049 11.51 10.9118C10.9018 11.5187 10.5285 12.1279 10.2496 12.8465C9.97941 13.5407 9.79494 14.3348 9.74196 15.4974C9.68811 16.662 9.67578 17.0342 9.67578 20.0002C9.67578 22.9662 9.68811 23.3384 9.74196 24.5029C9.79494 25.6657 9.97941 26.4597 10.2496 27.1539C10.5285 27.872 10.9019 28.482 11.51 29.0886C12.1182 29.6952 12.7269 30.0688 13.4459 30.3484C14.1415 30.6183 14.9351 30.8027 16.0985 30.8556C17.2643 30.9086 17.6362 30.9218 20.6039 30.9218C23.5717 30.9218 23.9442 30.9095 25.1094 30.8556C26.2728 30.8027 27.0673 30.6183 27.7619 30.3484C28.4805 30.0688 29.0896 29.6955 29.6978 29.0886C30.306 28.4817 30.6785 27.872 30.9583 27.1539C31.2284 26.4597 31.4138 25.6656 31.4659 24.5029C31.5189 23.3376 31.5312 22.9662 31.5312 20.0002C31.5312 17.0342 31.5189 16.662 31.4659 15.4974C31.4129 14.3347 31.2284 13.5403 30.9583 12.8465C30.6785 12.1284 30.305 11.5196 29.6978 10.9118C29.0905 10.3039 28.4805 9.93085 27.7628 9.65204C27.0673 9.38206 26.2727 9.19683 25.1102 9.14475C23.945 9.09181 23.5725 9.07861 20.6048 9.07861C17.6371 9.07861 17.2643 9.09093 16.0985 9.14475Z" fill="url(#paint1_radial_435_78377)"/>
<defs>
<radialGradient id="paint0_radial_435_78377" cx="0" cy="0" r="1" gradientUnits="userSpaceOnUse" gradientTransform="translate(12.5795 31.025) scale(28.5315 28.5144)">
<stop offset="0.09" stop-color="#FA8F21"/>
<stop offset="0.78" stop-color="#D82D7E"/>
</radialGradient>
<radialGradient id="paint1_radial_435_78377" cx="0" cy="0" r="1" gradientUnits="userSpaceOnUse" gradientTransform="translate(22.9306 32.0035) scale(22.4868 22.4733)">
<stop offset="0.64" stop-color="#8C3AAA" stop-opacity="0"/>
<stop offset="1" stop-color="#8C3AAA"/>
</radialGradient>
</defs>
</svg>
