<svg width="40" height="40" viewBox="0 0 40 40" fill="none" xmlns="http://www.w3.org/2000/svg">
<path d="M9.17413 10.7404C9.17413 9.87625 9.89761 9.1748 10.7894 9.1748H29.4151C30.3073 9.1748 31.0304 9.87625 31.0304 10.7404V29.4657C31.0304 30.3301 30.3073 31.0311 29.4151 31.0311H10.7894C9.8977 31.0311 9.17413 30.3302 9.17413 29.466V10.7402V10.7404Z" fill="#006699"/>
<path d="M15.8158 27.4659V17.6261H12.5453V27.4659H15.8162H15.8158ZM14.1812 16.2829C15.3215 16.2829 16.0314 15.5273 16.0314 14.5831C16.0101 13.6173 15.3215 12.8828 14.2029 12.8828C13.0836 12.8828 12.3525 13.6173 12.3525 14.583C12.3525 15.5273 13.0621 16.2828 14.1598 16.2828H14.181L14.1812 16.2829ZM17.6262 27.4659H20.8965V21.9715C20.8965 21.6778 20.9178 21.3834 21.0042 21.1736C21.2406 20.5858 21.7787 19.9773 22.6824 19.9773C23.8655 19.9773 24.3391 20.8796 24.3391 22.2025V27.4659H27.6094V21.8241C27.6094 18.8019 25.9961 17.3954 23.8444 17.3954C22.0802 17.3954 21.3054 18.3815 20.875 19.053H20.8967V17.6265H17.6263C17.669 18.5496 17.6261 27.4662 17.6261 27.4662L17.6262 27.4659Z" fill="#FAFAFA"/>
</svg>
