<svg width="10" height="15" viewBox="0 0 10 15" fill="none" xmlns="http://www.w3.org/2000/svg">
<path d="M5 14.1668C4.84444 14.1668 4.71111 14.1224 4.6 14.0335C4.48888 13.9446 4.40555 13.8279 4.35 13.6835C4.13888 13.0613 3.87222 12.4779 3.54999 11.9335C3.23888 11.3891 2.79999 10.7502 2.23333 10.0168C1.66666 9.2835 1.20555 8.5835 0.849995 7.91683C0.50555 7.25016 0.333328 6.44461 0.333328 5.50016C0.333328 4.20016 0.783328 3.10016 1.68333 2.20016C2.59444 1.28905 3.7 0.833496 5 0.833496C6.3 0.833496 7.4 1.28905 8.29999 2.20016C9.21111 3.10016 9.66666 4.20016 9.66666 5.50016C9.66666 6.51127 9.47222 7.35572 9.08333 8.0335C8.70555 8.70016 8.26666 9.36127 7.76666 10.0168C7.16666 10.8168 6.71111 11.4835 6.4 12.0168C6.1 12.5391 5.85 13.0946 5.65 13.6835C5.59444 13.8391 5.50555 13.9613 5.38333 14.0502C5.27222 14.1279 5.14444 14.1668 5 14.1668ZM5 7.16683C5.46666 7.16683 5.86111 7.00572 6.18333 6.6835C6.50555 6.36127 6.66666 5.96683 6.66666 5.50016C6.66666 5.0335 6.50555 4.63905 6.18333 4.31683C5.86111 3.99461 5.46666 3.8335 5 3.8335C4.53333 3.8335 4.13888 3.99461 3.81666 4.31683C3.49444 4.63905 3.33333 5.0335 3.33333 5.50016C3.33333 5.96683 3.49444 6.36127 3.81666 6.6835C4.13888 7.00572 4.53333 7.16683 5 7.16683Z" fill="#868686"/>
</svg>
