<svg width="121" height="120" viewBox="0 0 121 120" fill="none" xmlns="http://www.w3.org/2000/svg">
<g clip-path="url(#clip0_261_41871)">
<mask id="mask0_261_41871" style="mask-type:luminance" maskUnits="userSpaceOnUse" x="0" y="0" width="121" height="120">
<path d="M120.5 0H0.5V120H120.5V0Z" fill="white"/>
</mask>
<g mask="url(#mask0_261_41871)">
<mask id="mask1_261_41871" style="mask-type:luminance" maskUnits="userSpaceOnUse" x="-4" y="-4" width="129" height="128">
<path d="M-3.5 -4H124.5V124H-3.5V-4Z" fill="white"/>
</mask>
<g mask="url(#mask1_261_41871)">
<mask id="mask2_261_41871" style="mask-type:luminance" maskUnits="userSpaceOnUse" x="-4" y="-4" width="129" height="128">
<path d="M-3.5 -4H124.5V124H-3.5V-4Z" fill="white"/>
</mask>
<g mask="url(#mask2_261_41871)">
<g opacity="0.895908">
<path d="M17.7686 49.8511C18.3027 49.8511 18.7363 50.1263 18.7363 50.4653C18.7363 50.8043 18.3027 51.0795 17.7686 51.0795C17.2344 51.0795 16.8008 50.8043 16.8008 50.4653C16.8008 50.1263 17.2344 49.8511 17.7686 49.8511Z" fill="#FFD13B"/>
</g>
<g opacity="0.999534">
<path d="M63.625 35.9389L62.4814 34.4137L63.8815 31.6236L65.0251 33.1489L63.625 35.9389Z" fill="#FFB53B"/>
</g>
<g opacity="0.948419">
<path d="M69.3795 74.5066L68.1765 73.4627L69.3121 71.8063L70.5151 72.8501L69.3795 74.5066Z" fill="#71E183"/>
</g>
<g opacity="0.75168">
<path d="M11.9211 99.5103L11.5299 98.4432L12.3369 96.2454L12.7281 97.3125L11.9211 99.5103Z" fill="#FFC33B"/>
</g>
<path d="M24.9953 43.3672L24.5238 42.2387L25.4016 39.9492L25.8731 41.0777L24.9953 43.3672Z" fill="#FFAE3B"/>
<g opacity="0.999534">
<path d="M93.9688 62.0497L93.1584 61.0522L94.1004 59.2652L94.9108 60.2627L93.9688 62.0497Z" fill="#FFCA3B"/>
</g>
<g opacity="0.895908">
<path d="M42.0003 60.6781L40.7414 60.1058L41.6169 59.5582L42.8758 60.1305L42.0003 60.6781Z" fill="#FF533B"/>
</g>
<g opacity="0.948419">
<path d="M92.339 28.6632L93.0983 30.3685L90.9516 29.9122L92.339 28.6632Z" fill="#FF6F3B"/>
</g>
<path d="M29.2935 64.4598L30.2877 67.449L27.1694 66.7862L29.2935 64.4598Z" fill="#FF613B"/>
<path d="M83.5325 90.5524L84.8226 93.0944L81.3201 92.3499L83.5325 90.5524Z" fill="#FF6F3B"/>
<g opacity="0.75168">
<path d="M28.6678 20.2348L28.058 19.5935L28.7011 18.498L29.3109 19.1393L28.6678 20.2348Z" fill="#71E183"/>
</g>
<g opacity="0.665826">
<path d="M83.4991 33.3282L82.9233 32.7861L83.4924 31.8961L84.0682 32.4383L83.4991 33.3282Z" fill="#FFCA3B"/>
</g>
<g opacity="0.75168">
<path d="M22.8957 61.6074L22.8339 63.8056L22.0581 63.6407L22.8957 61.6074Z" fill="#FCC852"/>
</g>
<g opacity="0.983944">
<path d="M94.3134 100.274L95.0029 102.759L92.6729 102.264L94.3134 100.274Z" fill="#FCCE52"/>
</g>
<g opacity="0.895908">
<path d="M58.1055 33.6295L58.7451 35.8646L56.6122 35.4112L58.1055 33.6295Z" fill="#FCCE52"/>
</g>
<path d="M31.9619 88.1553L32.8568 90.7108L30.1049 90.1259L31.9619 88.1553Z" fill="#FCB652"/>
<g opacity="0.82935">
<path d="M80.96 46.0925L81.6556 47.8858L79.5951 47.4479L80.96 46.0925Z" fill="#FCB652"/>
</g>
<g opacity="0.75168">
<path d="M85.7812 17.5624C85.902 17.0859 86.0352 16.6309 86.1803 16.2026" stroke="#FCD452" stroke-width="4.46656"/>
</g>
<g opacity="0.895908">
<path d="M74.1855 90.0769C74.5041 90.37 74.7801 90.7111 75.0039 91.1099" stroke="#71E183" stroke-width="4.35452"/>
</g>
<g opacity="0.948419">
<path d="M35.7893 27.1395C35.5065 26.4624 35.2478 25.7099 35.0156 24.8745" stroke="#FCA452" stroke-width="2.63013"/>
</g>
<g opacity="0.999534">
<path d="M23.0777 96.3181C22.922 96.9427 22.7378 97.5405 22.531 98.0886" stroke="#FCB652" stroke-width="3.17978"/>
</g>
<path d="M10.972 26.8236C10.2531 26.705 9.48347 26.3912 8.64062 25.8169" stroke="#FFAE3B" stroke-width="1.72104"/>
</g>
<mask id="mask3_261_41871" style="mask-type:luminance" maskUnits="userSpaceOnUse" x="-4" y="-4" width="129" height="128">
<path d="M124.5 124H-3.5V-4H124.5V124Z" fill="white"/>
</mask>
<g mask="url(#mask3_261_41871)">
<path d="M98.5059 74.8486C97.8948 74.8486 97.3986 74.2724 97.3986 73.5627C97.3986 72.853 97.8948 72.2767 98.5059 72.2767C99.1171 72.2767 99.6133 72.853 99.6133 73.5627C99.6133 74.2724 99.1171 74.8486 98.5059 74.8486Z" fill="#FFAC23"/>
<g opacity="0.931318">
<path d="M59.4563 61.3113L60.4957 60.0671L63.4465 60.2562L62.407 61.5004L59.4563 61.3113Z" fill="#FFA423"/>
</g>
<path d="M55.1352 50.8854L55.9782 49.732L58.43 49.9565L57.587 51.11L55.1352 50.8854Z" fill="#71E183"/>
<path d="M104.178 27.1358L104.546 25.9601L105.89 26.3893L105.522 27.5651L104.178 27.1358Z" fill="#FF9C23"/>
<path d="M21.8474 60.2095L23.5947 58.9091L28.2323 58.8373L26.485 60.1378L21.8474 60.2095Z" fill="#FF9C23"/>
<path d="M76.1093 59.6154L77.4719 57.8677L81.3875 58.1731L80.0249 59.9207L76.1093 59.6154Z" fill="#71E183"/>
<path d="M89.9554 64.4865L88.8936 65.9842L88.5219 63.3394L89.9554 64.4865Z" fill="#71E183"/>
<path d="M37.2879 33.1504L36.2526 34.6761L35.8722 31.9691L37.2879 33.1504Z" fill="#FFB423"/>
<path d="M12.7249 30.6383C12.7563 29.7386 13.3846 29.0292 14.1269 29.0551C14.8693 29.081 15.4465 29.8326 15.4151 30.7323C15.3837 31.632 14.7554 32.3414 14.0131 32.3155C13.2707 32.2896 12.6935 31.5381 12.7249 30.6383Z" fill="#FFA423"/>
<path d="M75.3292 92.4132L76.4978 90.717L79.9364 91.0761L78.7678 92.7724L75.3292 92.4132Z" fill="#71E183"/>
<path d="M29.943 85.4983L30.8831 84.1493L33.643 84.4305L32.7029 85.7795L29.943 85.4983Z" fill="#71E183"/>
<path d="M53.4297 18.6327L55.124 17.7378L59.4716 17.4879L57.7774 18.3827L53.4297 18.6327Z" fill="#FCC252"/>
<path d="M75.3231 49.7426L72.7671 51.4257L72.4022 48.8292L75.3231 49.7426Z" fill="#FCC852"/>
<path d="M34.0191 18.5251L31.8277 19.9073L31.5316 17.8005L34.0191 18.5251Z" fill="#FCB052"/>
<path d="M60.4314 86.2692L58.3422 87.5105L58.081 85.6518L60.4314 86.2692Z" fill="#71E183"/>
<path d="M81.9204 29.6386L80.186 31.147L79.8374 28.6667L81.9204 29.6386Z" fill="#FCAA52"/>
<path d="M43.7049 74.0445L42.4436 75.255L42.1588 73.2285L43.7049 74.0445Z" fill="#71E183"/>
<path d="M31.7852 92.874C26.4212 91.7328 23.0577 89.4863 26.4997 86.7503C27.1222 86.2555 27.7102 85.8625 28.2644 85.5625" stroke="#FFBA00" stroke-width="3.07035"/>
<path d="M54.7888 32.1139C53.3893 31.9196 51.9152 31.7943 50.5586 31.5303" stroke="#71E183" stroke-width="6.06322"/>
<path d="M72.8934 76.5933C74.3937 79.3588 75.8168 80.1822 75.9151 75.7418C76.1241 66.3063 66.7441 67.2737 61.2914 72.0408" stroke="#FFD500" stroke-width="3.02606"/>
<path d="M44.2964 54.1129C43.3354 55.3446 42.4158 56.5226 41.2109 57.1621" stroke="#71E183" stroke-width="2.4472"/>
<path d="M96.5157 97.716C96.5183 97.7169 96.5209 97.7176 96.5235 97.7185C99.2857 98.5671 101.325 97.6825 103.125 96.4702" stroke="#71E183" stroke-width="2.72181"/>
</g>
</g>
<mask id="mask4_261_41871" style="mask-type:luminance" maskUnits="userSpaceOnUse" x="32" y="32" width="57" height="56">
<path d="M32.7656 32.2646H88.2323V87.7313H32.7656V32.2646Z" fill="white"/>
</mask>
<g mask="url(#mask4_261_41871)">
<g opacity="0.59379">
<path d="M60.3918 36.9321C72.8642 36.9321 82.9907 47.0587 82.9907 59.531C82.9907 72.0033 72.8642 82.1299 60.3918 82.1299C47.9195 82.1299 37.793 72.0033 37.793 59.531C37.793 47.0587 47.9195 36.9321 60.3918 36.9321Z" fill="#22A55F"/>
</g>
<path d="M60.3927 40.314C71.0459 40.314 79.6955 48.9636 79.6955 59.6168C79.6955 70.27 71.0459 78.9196 60.3927 78.9196C49.7394 78.9196 41.0898 70.27 41.0898 59.6168C41.0898 48.9636 49.7394 40.314 60.3927 40.314Z" fill="#22A55F"/>
<path d="M51.5625 60.486L57.1417 65.9569L68.4083 54.311" stroke="white" stroke-width="3.25" stroke-linecap="round" stroke-linejoin="round"/>
</g>
</g>
</g>
<defs>
<clipPath id="clip0_261_41871">
<rect width="120" height="120" fill="white" transform="translate(0.5)"/>
</clipPath>
</defs>
</svg>
