<svg width="25" height="24" viewBox="0 0 25 24" fill="none" xmlns="http://www.w3.org/2000/svg">
<path d="M19.5 9C19.5 10.45 19.07 11.78 18.33 12.89C17.25 14.49 15.54 15.62 13.55 15.91C13.21 15.97 12.86 16 12.5 16C12.14 16 11.79 15.97 11.45 15.91C9.46 15.62 7.75 14.49 6.67 12.89C5.93 11.78 5.5 10.45 5.5 9C5.5 5.13 8.63 2 12.5 2C16.37 2 19.5 5.13 19.5 9Z" fill="#FDBA40" stroke="white" stroke-linecap="round" stroke-linejoin="round"/>
<path d="M21.7491 18.4699L20.0991 18.8599C19.7291 18.9499 19.4391 19.2299 19.3591 19.5999L19.0091 21.0699C18.8191 21.8699 17.7991 22.1099 17.2691 21.4799L12.4991 15.9999L7.7291 21.4899C7.1991 22.1199 6.1791 21.8799 5.9891 21.0799L5.6391 19.6099C5.5491 19.2399 5.2591 18.9499 4.8991 18.8699L3.2491 18.4799C2.4891 18.2999 2.2191 17.3499 2.7691 16.7999L6.6691 12.8999C7.7491 14.4999 9.4591 15.6299 11.4491 15.9199C11.7891 15.9799 12.1391 16.0099 12.4991 16.0099C12.8591 16.0099 13.2091 15.9799 13.5491 15.9199C15.5391 15.6299 17.2491 14.4999 18.3291 12.8999L22.2291 16.7999C22.7791 17.3399 22.5091 18.2899 21.7491 18.4699Z" fill="#FDBA40" stroke="white" stroke-linecap="round" stroke-linejoin="round"/>
<path d="M13.08 5.98L13.67 7.15999C13.75 7.31999 13.96 7.48 14.15 7.51L15.22 7.68999C15.9 7.79999 16.06 8.3 15.57 8.79L14.74 9.61998C14.6 9.75998 14.52 10.03 14.57 10.23L14.81 11.26C15 12.07 14.57 12.39 13.85 11.96L12.85 11.37C12.67 11.26 12.37 11.26 12.19 11.37L11.19 11.96C10.47 12.38 10.04 12.07 10.23 11.26L10.47 10.23C10.51 10.04 10.44 9.75998 10.3 9.61998L9.46997 8.79C8.97997 8.3 9.13997 7.80999 9.81997 7.68999L10.89 7.51C11.07 7.48 11.28 7.31999 11.36 7.15999L11.95 5.98C12.24 5.34 12.76 5.34 13.08 5.98Z" fill="white"/>
</svg>
