<svg width="16" height="16" viewBox="0 0 16 16" fill="none" xmlns="http://www.w3.org/2000/svg">
<path d="M12.6654 6.00016C12.6654 6.96683 12.3787 7.85351 11.8854 8.59351C11.1654 9.66017 10.0254 10.4135 8.6987 10.6068C8.47203 10.6468 8.2387 10.6668 7.9987 10.6668C7.7587 10.6668 7.52536 10.6468 7.2987 10.6068C5.97203 10.4135 4.83203 9.66017 4.11203 8.59351C3.6187 7.85351 3.33203 6.96683 3.33203 6.00016C3.33203 3.42016 5.4187 1.3335 7.9987 1.3335C10.5787 1.3335 12.6654 3.42016 12.6654 6.00016Z" stroke="#525252" stroke-linecap="round" stroke-linejoin="round"/>
<path d="M14.1674 12.3134L13.0674 12.5734C12.8207 12.6334 12.6274 12.8201 12.574 13.0668L12.3407 14.0468C12.214 14.5801 11.534 14.7401 11.1807 14.3201L8.0007 10.6668L4.8207 14.3268C4.46737 14.7468 3.78737 14.5868 3.6607 14.0534L3.42737 13.0734C3.36737 12.8268 3.17404 12.6334 2.93404 12.5801L1.83404 12.3201C1.32737 12.2001 1.14737 11.5668 1.51404 11.2001L4.11404 8.6001C4.83404 9.66676 5.97404 10.4201 7.3007 10.6134C7.52737 10.6534 7.7607 10.6734 8.0007 10.6734C8.2407 10.6734 8.47404 10.6534 8.7007 10.6134C10.0274 10.4201 11.1674 9.66676 11.8874 8.6001L14.4874 11.2001C14.854 11.5601 14.674 12.1934 14.1674 12.3134Z" stroke="#525252" stroke-linecap="round" stroke-linejoin="round"/>
<path d="M8.38925 3.9865L8.78259 4.77317C8.83592 4.87983 8.97592 4.9865 9.10259 5.0065L9.81592 5.1265C10.2693 5.19983 10.3759 5.53317 10.0493 5.85984L9.49592 6.41316C9.40259 6.50649 9.34925 6.6865 9.38259 6.81984L9.54259 7.5065C9.66925 8.0465 9.38259 8.25982 8.90259 7.97316L8.23592 7.57983C8.11592 7.50649 7.91592 7.50649 7.79592 7.57983L7.12925 7.97316C6.64925 8.25316 6.36259 8.0465 6.48925 7.5065L6.64925 6.81984C6.67592 6.69317 6.62925 6.50649 6.53592 6.41316L5.98259 5.85984C5.65592 5.53317 5.76259 5.2065 6.21592 5.1265L6.92925 5.0065C7.04925 4.9865 7.18925 4.87983 7.24259 4.77317L7.63592 3.9865C7.82925 3.55984 8.17592 3.55984 8.38925 3.9865Z" stroke="#525252" stroke-linecap="round" stroke-linejoin="round"/>
</svg>
