<svg width="24" height="25" viewBox="0 0 24 25" fill="none" xmlns="http://www.w3.org/2000/svg">
<path d="M0.5 12.5C0.5 6.14873 5.64873 1 12 1C18.3513 1 23.5 6.14873 23.5 12.5C23.5 18.8513 18.3513 24 12 24C5.64873 24 0.5 18.8513 0.5 12.5Z" stroke="#CDCDD7"/>
<circle cx="12.0002" cy="12.4999" r="6.66667" stroke="#3C3C3C" stroke-width="0.666667"/>
<path d="M7.61493 14.096C7.36305 13.404 7.27853 12.6622 7.36828 11.9312C7.45803 11.2002 7.7195 10.5009 8.13132 9.89035C8.54314 9.27981 9.09361 8.77539 9.73772 8.41836C10.3818 8.06132 11.1013 7.8618 11.8373 7.83609C12.5733 7.81039 13.3049 7.95925 13.9724 8.27049C14.6398 8.58172 15.2242 9.04651 15.6776 9.62684C16.131 10.2072 16.4406 10.8866 16.5811 11.6095C16.7216 12.3324 16.689 13.0783 16.486 13.7862" stroke="#3C3C3C" stroke-width="0.666667" stroke-linecap="round" stroke-linejoin="round" stroke-dasharray="12 12"/>
<path d="M13.6874 11.1938L12.6889 11.7968C12.3353 12.0047 11.9608 12.1919 11.6072 12.3582C11.5032 12.3998 11.3784 12.4622 11.2535 12.5246C10.8167 12.7533 10.5879 13.2315 10.6919 13.7098C10.7751 14.084 11.0871 14.3959 11.4616 14.4791C11.5448 14.4999 11.628 14.4999 11.7112 14.4999C12.1064 14.4999 12.4601 14.2711 12.6473 13.9177C12.6889 13.8137 12.7513 13.689 12.8137 13.5642C13.001 13.2107 13.1674 12.8364 13.3754 12.483L13.9787 11.4849C14.0203 11.4018 13.9995 11.3186 13.9371 11.2354C13.8747 11.1522 13.7706 11.1522 13.6874 11.1938ZM13.0217 12.2543C12.7929 12.6285 12.6057 13.0028 12.4393 13.3771C12.3977 13.5018 12.3353 13.6058 12.2729 13.7305C12.148 14.0008 11.8568 14.1256 11.5656 14.0632C11.3367 14.0216 11.1495 13.8345 11.1079 13.6058C11.0455 13.3147 11.1703 13.0236 11.4408 12.8988C11.5448 12.8365 11.6696 12.7949 11.7944 12.7325C12.1689 12.5454 12.5641 12.3582 12.9177 12.1503L13.1882 11.984L13.0217 12.2543Z" fill="#3C3C3C" stroke="#525252" stroke-width="0.666667"/>
</svg>
