<svg width="393" height="591" viewBox="0 0 393 591" fill="none" xmlns="http://www.w3.org/2000/svg">
<g clip-path="url(#clip0_2195_98173)">
<rect width="393" height="591" fill="#8989E9"/>
<g opacity="0.1" clip-path="url(#clip1_2195_98173)">
<circle cx="-31.6734" cy="295.473" r="79.2833" transform="rotate(-45 -31.6734 295.473)" fill="url(#paint0_linear_2195_98173)"/>
<circle cx="425.702" cy="295.474" r="79.2833" transform="rotate(-45 425.702 295.474)" fill="url(#paint1_linear_2195_98173)"/>
<circle cx="100.909" cy="456.634" r="55.6436" transform="rotate(-90 100.909 456.634)" fill="url(#paint2_linear_2195_98173)"/>
<circle cx="101.948" cy="136.352" r="55.6436" transform="rotate(-90 101.948 136.352)" fill="url(#paint3_linear_2195_98173)"/>
<circle cx="282.183" cy="456.634" r="55.6436" transform="rotate(-90 282.183 456.634)" fill="url(#paint4_linear_2195_98173)"/>
<circle cx="64.8638" cy="295.776" r="55.6436" transform="rotate(-45 64.8638 295.776)" fill="url(#paint5_linear_2195_98173)"/>
<circle cx="329.192" cy="295.777" r="55.6436" transform="rotate(-45 329.192 295.777)" fill="url(#paint6_linear_2195_98173)"/>
<circle cx="282.183" cy="135.339" r="55.6436" transform="rotate(-90 282.183 135.339)" fill="url(#paint7_linear_2195_98173)"/>
</g>
</g>
<defs>
<linearGradient id="paint0_linear_2195_98173" x1="-31.6734" y1="216.189" x2="-31.6734" y2="374.756" gradientUnits="userSpaceOnUse">
<stop stop-color="white"/>
<stop offset="1" stop-color="#C4C4C4" stop-opacity="0"/>
</linearGradient>
<linearGradient id="paint1_linear_2195_98173" x1="425.702" y1="216.19" x2="425.702" y2="374.757" gradientUnits="userSpaceOnUse">
<stop stop-color="white"/>
<stop offset="1" stop-color="#C4C4C4" stop-opacity="0"/>
</linearGradient>
<linearGradient id="paint2_linear_2195_98173" x1="100.909" y1="400.99" x2="100.909" y2="512.277" gradientUnits="userSpaceOnUse">
<stop stop-color="white"/>
<stop offset="1" stop-color="#C4C4C4" stop-opacity="0"/>
</linearGradient>
<linearGradient id="paint3_linear_2195_98173" x1="101.948" y1="80.7079" x2="101.948" y2="191.995" gradientUnits="userSpaceOnUse">
<stop stop-color="white"/>
<stop offset="1" stop-color="#C4C4C4" stop-opacity="0"/>
</linearGradient>
<linearGradient id="paint4_linear_2195_98173" x1="282.183" y1="400.99" x2="282.183" y2="512.277" gradientUnits="userSpaceOnUse">
<stop stop-color="white"/>
<stop offset="1" stop-color="#C4C4C4" stop-opacity="0"/>
</linearGradient>
<linearGradient id="paint5_linear_2195_98173" x1="64.8638" y1="240.133" x2="64.8638" y2="351.42" gradientUnits="userSpaceOnUse">
<stop stop-color="white"/>
<stop offset="1" stop-color="#C4C4C4" stop-opacity="0"/>
</linearGradient>
<linearGradient id="paint6_linear_2195_98173" x1="329.192" y1="240.134" x2="329.192" y2="351.421" gradientUnits="userSpaceOnUse">
<stop stop-color="white"/>
<stop offset="1" stop-color="#C4C4C4" stop-opacity="0"/>
</linearGradient>
<linearGradient id="paint7_linear_2195_98173" x1="282.183" y1="79.6952" x2="282.183" y2="190.982" gradientUnits="userSpaceOnUse">
<stop stop-color="white"/>
<stop offset="1" stop-color="#C4C4C4" stop-opacity="0"/>
</linearGradient>
<clipPath id="clip0_2195_98173">
<rect width="393" height="591" fill="white"/>
</clipPath>
<clipPath id="clip1_2195_98173">
<rect width="1084" height="433" fill="white" transform="translate(-345 79.6943)"/>
</clipPath>
</defs>
</svg>
