<svg width="44" height="44" viewBox="0 0 44 44" fill="none" xmlns="http://www.w3.org/2000/svg">
<path d="M0 22C0 9.84974 9.84974 0 22 0C34.1503 0 44 9.84974 44 22C44 34.1503 34.1503 44 22 44C9.84974 44 0 34.1503 0 22Z" fill="#E8E8FF"/>
<path d="M22 16.4399V19.7699" stroke="#3C3C3C" stroke-width="1.5" stroke-miterlimit="10" stroke-linecap="round"/>
<path d="M22.0199 12C18.3399 12 15.3599 14.98 15.3599 18.66V20.76C15.3599 21.44 15.0799 22.46 14.7299 23.04L13.4599 25.16C12.6799 26.47 13.2199 27.93 14.6599 28.41C19.4399 30 24.6099 30 29.3899 28.41C30.7399 27.96 31.3199 26.38 30.5899 25.16L29.3199 23.04C28.9699 22.46 28.6899 21.43 28.6899 20.76V18.66C28.6799 15 25.6799 12 22.0199 12Z" stroke="#3C3C3C" stroke-width="1.5" stroke-miterlimit="10" stroke-linecap="round"/>
<path d="M25.3299 28.8201C25.3299 30.6501 23.8299 32.1501 21.9999 32.1501C21.0899 32.1501 20.2499 31.7701 19.6499 31.1701C19.0499 30.5701 18.6699 29.7301 18.6699 28.8201" stroke="#3C3C3C" stroke-width="1.5" stroke-miterlimit="10"/>
</svg>
