<svg width="20" height="19" viewBox="0 0 20 19" fill="none" xmlns="http://www.w3.org/2000/svg">
<path d="M14.7604 0.564944L5.34484 2.27912C-0.982894 3.42659 -1.45413 6.7307 4.30054 9.60136L6.04074 10.471C6.5468 10.7288 6.90091 11.2008 7.00703 11.7587L7.34948 13.6647C8.49694 19.9924 11.7931 20.4696 14.6717 14.709L18.9497 6.14797C20.8688 2.30753 18.9843 -0.204034 14.7604 0.564944ZM14.7217 5.89495L10.4024 9.13595C10.0745 9.38203 9.59847 9.31414 9.35239 8.9862C9.10632 8.65825 9.17421 8.18224 9.50215 7.93616L13.8214 4.69516C14.1493 4.44908 14.6254 4.51697 14.8714 4.84492C15.1175 5.17286 15.0496 5.64888 14.7217 5.89495Z" fill="url(#paint0_linear_2671_62174)"/>
<defs>
<linearGradient id="paint0_linear_2671_62174" x1="6.84241" y1="15.477" x2="21.4997" y2="4.4242" gradientUnits="userSpaceOnUse">
<stop stop-color="#00A8DF"/>
<stop offset="0.74" stop-color="#1031AA"/>
</linearGradient>
</defs>
</svg>
