<svg width="44" height="44" viewBox="0 0 44 44" fill="none" xmlns="http://www.w3.org/2000/svg">
<path d="M0 22C0 9.84974 9.84974 0 22 0C34.1503 0 44 9.84974 44 22C44 34.1503 34.1503 44 22 44C9.84974 44 0 34.1503 0 22Z" fill="#E8E8FF"/>
<path d="M31.5 27.25H12.5L16.999 21.25C17.2739 21.6168 17.6264 22.086 18.0166 22.6064C18.9303 23.8251 20.0553 25.325 20.9004 26.4502L21.3506 27.0498L21.9502 26.5996L23.5498 25.4004L24.1504 24.9502L23.7002 24.3496L21.1865 20.999L24 17.249L31.5 27.25Z" stroke="#3C3C3C" stroke-width="1.5"/>
</svg>
