<svg width="16" height="16" viewBox="0 0 16 16" fill="none" xmlns="http://www.w3.org/2000/svg">
<path d="M5.33203 14C5.33203 13.0572 5.33203 12.5858 5.62492 12.2929C5.91782 12 6.38922 12 7.33203 12H8.66536C9.60817 12 10.0796 12 10.3725 12.2929C10.6654 12.5858 10.6654 13.0572 10.6654 14V14.6667H5.33203V14Z" stroke="#525252" stroke-linecap="round" stroke-linejoin="round"/>
<path d="M8 8.6665L8 11.9998" stroke="#525252" stroke-linecap="round" stroke-linejoin="round"/>
<path d="M4 14.6665H12" stroke="#525252" stroke-linecap="round" stroke-linejoin="round"/>
<path d="M8.69105 1.91117L9.39498 3.33065C9.49097 3.52824 9.74694 3.71778 9.96291 3.75407L11.2388 3.9678C12.0547 4.10491 12.2467 4.70173 11.6587 5.29049L10.6668 6.29058C10.4989 6.45995 10.4069 6.78659 10.4589 7.02048L10.7428 8.25849C10.9668 9.23842 10.4509 9.61749 9.59096 9.10534L8.39509 8.39157C8.17911 8.26253 7.82315 8.26253 7.60318 8.39157L6.40731 9.10534C5.5514 9.61749 5.03146 9.23439 5.25543 8.25849L5.5394 7.02048C5.5914 6.78659 5.49941 6.45995 5.33143 6.29058L4.33954 5.29049C3.7556 4.70173 3.94358 4.10491 4.75949 3.9678L6.03535 3.75407C6.24732 3.71778 6.5033 3.52824 6.59929 3.33065L7.30321 1.91117C7.68717 1.14094 8.3111 1.14094 8.69105 1.91117Z" stroke="#525252" stroke-linecap="round" stroke-linejoin="round"/>
</svg>
