<svg width="10" height="10" viewBox="0 0 10 10" fill="none" xmlns="http://www.w3.org/2000/svg">
<path d="M5.06669 4.52884C5.02502 4.52467 4.97502 4.52467 4.92919 4.52884C3.93752 4.49551 3.15002 3.68301 3.15002 2.68301C3.15002 1.66217 3.97502 0.833008 5.00002 0.833008C6.02086 0.833008 6.85003 1.66217 6.85003 2.68301C6.84586 3.68301 6.05836 4.49551 5.06669 4.52884Z" stroke="#238E15" stroke-linecap="round" stroke-linejoin="round"/>
<path d="M2.9833 6.06699C1.97497 6.74199 1.97497 7.84199 2.9833 8.51283C4.12913 9.27949 6.0083 9.27949 7.15413 8.51283C8.16247 7.83783 8.16247 6.73783 7.15413 6.06699C6.01247 5.30449 4.1333 5.30449 2.9833 6.06699Z" stroke="#238E15" stroke-linecap="round" stroke-linejoin="round"/>
</svg>
