<svg width="100" height="100" viewBox="0 0 100 100" fill="none" xmlns="http://www.w3.org/2000/svg">
<path opacity="0.4" d="M50 91.7083C73.0119 91.7083 91.6667 73.0535 91.6667 50.0417C91.6667 27.0298 73.0119 8.375 50 8.375C26.9882 8.375 8.33337 27.0298 8.33337 50.0417C8.33337 73.0535 26.9882 91.7083 50 91.7083Z" fill="#BABAF2"/>
<path d="M50 28.9141C41.375 28.9141 34.375 35.9141 34.375 44.5391C34.375 52.9974 41 59.8724 49.7917 60.1224C49.9167 60.1224 50.0833 60.1224 50.1667 60.1224C50.25 60.1224 50.375 60.1224 50.4583 60.1224C50.5 60.1224 50.5417 60.1224 50.5417 60.1224C58.9583 59.8307 65.5833 52.9974 65.625 44.5391C65.625 35.9141 58.625 28.9141 50 28.9141Z" fill="#000087"/>
<path d="M78.2499 80.6667C70.8332 87.5 60.9165 91.7083 49.9999 91.7083C39.0832 91.7083 29.1665 87.5 21.7499 80.6667C22.7499 76.875 25.4582 73.4167 29.4165 70.75C40.7915 63.1667 59.2915 63.1667 70.5832 70.75C74.5832 73.4167 77.2499 76.875 78.2499 80.6667Z" fill="#000087"/>
</svg>
