<svg width="44" height="44" viewBox="0 0 44 44" fill="none" xmlns="http://www.w3.org/2000/svg">
<path d="M0.5 22C0.5 10.1259 10.1259 0.5 22 0.5C33.8741 0.5 43.5 10.1259 43.5 22C43.5 33.8741 33.8741 43.5 22 43.5C10.1259 43.5 0.5 33.8741 0.5 22Z" stroke="#EDEDED"/>
<path d="M28 32C27.1667 32 26.4583 31.7083 25.875 31.125C25.2917 30.5417 25 29.8333 25 29C25 28.8833 25.0083 28.7625 25.025 28.6375C25.0417 28.5125 25.0667 28.4 25.1 28.3L18.05 24.2C17.7667 24.45 17.45 24.6458 17.1 24.7875C16.75 24.9292 16.3833 25 16 25C15.1667 25 14.4583 24.7083 13.875 24.125C13.2917 23.5417 13 22.8333 13 22C13 21.1667 13.2917 20.4583 13.875 19.875C14.4583 19.2917 15.1667 19 16 19C16.3833 19 16.75 19.0708 17.1 19.2125C17.45 19.3542 17.7667 19.55 18.05 19.8L25.1 15.7C25.0667 15.6 25.0417 15.4875 25.025 15.3625C25.0083 15.2375 25 15.1167 25 15C25 14.1667 25.2917 13.4583 25.875 12.875C26.4583 12.2917 27.1667 12 28 12C28.8333 12 29.5417 12.2917 30.125 12.875C30.7083 13.4583 31 14.1667 31 15C31 15.8333 30.7083 16.5417 30.125 17.125C29.5417 17.7083 28.8333 18 28 18C27.6167 18 27.25 17.9292 26.9 17.7875C26.55 17.6458 26.2333 17.45 25.95 17.2L18.9 21.3C18.9333 21.4 18.9583 21.5125 18.975 21.6375C18.9917 21.7625 19 21.8833 19 22C19 22.1167 18.9917 22.2375 18.975 22.3625C18.9583 22.4875 18.9333 22.6 18.9 22.7L25.95 26.8C26.2333 26.55 26.55 26.3542 26.9 26.2125C27.25 26.0708 27.6167 26 28 26C28.8333 26 29.5417 26.2917 30.125 26.875C30.7083 27.4583 31 28.1667 31 29C31 29.8333 30.7083 30.5417 30.125 31.125C29.5417 31.7083 28.8333 32 28 32ZM28 16C28.2833 16 28.5208 15.9042 28.7125 15.7125C28.9042 15.5208 29 15.2833 29 15C29 14.7167 28.9042 14.4792 28.7125 14.2875C28.5208 14.0958 28.2833 14 28 14C27.7167 14 27.4792 14.0958 27.2875 14.2875C27.0958 14.4792 27 14.7167 27 15C27 15.2833 27.0958 15.5208 27.2875 15.7125C27.4792 15.9042 27.7167 16 28 16ZM16 23C16.2833 23 16.5208 22.9042 16.7125 22.7125C16.9042 22.5208 17 22.2833 17 22C17 21.7167 16.9042 21.4792 16.7125 21.2875C16.5208 21.0958 16.2833 21 16 21C15.7167 21 15.4792 21.0958 15.2875 21.2875C15.0958 21.4792 15 21.7167 15 22C15 22.2833 15.0958 22.5208 15.2875 22.7125C15.4792 22.9042 15.7167 23 16 23ZM28 30C28.2833 30 28.5208 29.9042 28.7125 29.7125C28.9042 29.5208 29 29.2833 29 29C29 28.7167 28.9042 28.4792 28.7125 28.2875C28.5208 28.0958 28.2833 28 28 28C27.7167 28 27.4792 28.0958 27.2875 28.2875C27.0958 28.4792 27 28.7167 27 29C27 29.2833 27.0958 29.5208 27.2875 29.7125C27.4792 29.9042 27.7167 30 28 30Z" fill="#1D1B20"/>
</svg>
