<svg width="182" height="173" viewBox="0 0 182 173" fill="none" xmlns="http://www.w3.org/2000/svg">
<path d="M-54.4747 146.785C-57.5262 143.59 -57.4098 138.526 -54.2146 135.475L145.176 -54.9507C148.371 -58.0022 153.435 -57.8857 156.486 -54.6905L175.825 -34.4416C178.877 -31.2464 178.76 -26.1824 175.565 -23.1308L-23.8254 167.295C-27.0206 170.346 -32.0846 170.23 -35.1362 167.034L-54.4747 146.785Z" fill="#F8EFEF"/>
<path d="M53.1181 77.2171C57.0956 73.4184 57.2419 67.0562 53.4433 63.0787C49.6446 59.1012 43.2824 58.9549 39.3049 62.7535C35.3274 66.5522 35.1811 72.9145 38.9797 76.8919C42.7784 80.8694 49.1407 81.0157 53.1181 77.2171Z" stroke="#CB0D0D" stroke-width="1.5" stroke-linecap="round" stroke-linejoin="round"/>
<path d="M43.138 72.9206L47.1392 73.0126L47.3305 65.0034" stroke="#CB0D0D" stroke-width="1.5" stroke-linecap="round" stroke-linejoin="round"/>
<path d="M65.5602 48.7311C65.1968 48.4273 64.7868 48.3148 64.3302 48.3933C63.8713 48.4695 63.431 48.7091 63.0091 49.1119C62.7071 49.4004 62.4916 49.6978 62.3627 50.0043C62.2314 50.3084 62.1837 50.6015 62.2194 50.8836C62.2552 51.1611 62.3727 51.404 62.5718 51.6126C62.7389 51.7875 62.9239 51.8996 63.1267 51.9488C63.3319 51.9958 63.5429 51.9983 63.7595 51.9564C63.9762 51.9098 64.19 51.8408 64.4007 51.7496C64.6092 51.6559 64.8025 51.5584 64.9806 51.457L65.8782 50.9572C66.1681 50.7904 66.4833 50.6382 66.8241 50.5007C67.1648 50.3632 67.5173 50.274 67.8816 50.2332C68.2459 50.1923 68.6061 50.2288 68.9622 50.3424C69.3206 50.4538 69.6578 50.6749 69.9737 51.0057C70.372 51.4227 70.6178 51.8961 70.7111 52.4257C70.8068 52.953 70.7402 53.5047 70.5113 54.0808C70.2848 54.6546 69.8839 55.2162 69.3086 55.7656C68.7573 56.2921 68.1968 56.6602 67.627 56.8698C67.0572 57.0794 66.5051 57.1323 65.9707 57.0286C65.4339 56.9225 64.9418 56.6592 64.4944 56.2386L65.6089 55.1742C65.8846 55.4196 66.1826 55.5589 66.503 55.5921C66.8235 55.6206 67.1437 55.5646 67.4634 55.4243C67.7832 55.2793 68.0857 55.0706 68.3709 54.7982C68.6849 54.4983 68.9172 54.1825 69.0678 53.8507C69.2186 53.5142 69.28 53.1898 69.252 52.8774C69.2217 52.5626 69.0921 52.2853 68.8632 52.0456C68.6549 51.8275 68.422 51.7084 68.1646 51.6884C67.9096 51.6662 67.6332 51.7102 67.3352 51.8206C67.0397 51.9287 66.727 52.0738 66.3969 52.2561L65.3002 52.8498C64.5572 53.2523 63.8643 53.4626 63.2216 53.4806C62.5812 53.4964 62.0161 53.2478 61.5263 52.7349C61.1211 52.3106 60.8825 51.8304 60.8104 51.2943C60.7383 50.7581 60.8153 50.2149 61.0413 49.6645C61.265 49.1117 61.6237 48.5995 62.1175 48.1279C62.616 47.6518 63.1394 47.3192 63.6876 47.1302C64.2382 46.939 64.7703 46.8914 65.2838 46.9876C65.7951 47.0814 66.2443 47.3215 66.6316 47.7078L65.5602 48.7311ZM75.5911 49.745C75.0734 50.2395 74.5082 50.5523 73.8957 50.6836C73.2832 50.8148 72.6665 50.769 72.0457 50.5461C71.4249 50.3232 70.8421 49.9265 70.2973 49.356C69.7502 48.7832 69.3785 48.1804 69.182 47.5476C68.9856 46.9148 68.967 46.2955 69.1263 45.6897C69.2856 45.0838 69.6241 44.5337 70.1418 44.0392C70.6595 43.5448 71.2247 43.2319 71.8372 43.1007C72.4497 42.9694 73.0675 43.0164 73.6906 43.2417C74.3137 43.467 74.8988 43.8661 75.4459 44.439C75.9907 45.0094 76.3602 45.6099 76.5543 46.2402C76.7484 46.8706 76.7659 47.4887 76.6066 48.0946C76.4473 48.7004 76.1088 49.2506 75.5911 49.745ZM74.7328 48.8392C75.0684 48.5187 75.2617 48.1645 75.3128 47.7765C75.364 47.3885 75.3015 46.9968 75.1254 46.6012C74.9517 46.2034 74.6954 45.8271 74.3566 45.4724C74.0201 45.12 73.6572 44.8479 73.2677 44.6561C72.8784 44.4596 72.4877 44.3768 72.0955 44.4076C71.7033 44.4385 71.3394 44.6141 71.0038 44.9346C70.6659 45.2574 70.4713 45.6151 70.42 46.0077C70.3712 46.3981 70.4348 46.7934 70.6108 47.1936C70.7869 47.5892 71.0432 47.9631 71.3797 48.3155C71.7185 48.6702 72.0814 48.9446 72.4684 49.1387C72.8578 49.3305 73.2475 49.4098 73.6374 49.3766C74.0297 49.3411 74.3949 49.1619 74.7328 48.8392ZM73.3017 37.6391L80.3339 45.0024L79.2588 46.029L72.2266 38.6658L73.3017 37.6391ZM83.9504 41.7547C83.5046 42.1804 82.998 42.4466 82.4306 42.5531C81.8633 42.6549 81.2775 42.5887 80.6734 42.3544C80.0694 42.1155 79.4824 41.6976 78.9124 41.1008C78.3424 40.504 77.9543 39.8984 77.7481 39.2842C77.5442 38.6676 77.5097 38.0796 77.6445 37.5201C77.7792 36.9606 78.0683 36.4691 78.5118 36.0456C78.8545 35.7182 79.1851 35.5125 79.5035 35.4284C79.822 35.3396 80.1109 35.3158 80.3702 35.3569C80.6319 35.3958 80.85 35.4418 81.0246 35.495L81.0893 35.4332L78.4763 32.6972L79.5513 31.6705L86.5835 39.0338L85.5336 40.0364L84.713 39.1771L84.6231 39.263C84.6705 39.4422 84.7052 39.6657 84.7272 39.9335C84.7516 40.1989 84.7121 40.4887 84.6088 40.8028C84.5054 41.1169 84.286 41.4342 83.9504 41.7547ZM83.3121 40.6112C83.6213 40.3159 83.8047 39.9849 83.8624 39.6182C83.9202 39.2468 83.8646 38.8622 83.6955 38.4645C83.5289 38.0645 83.2602 37.6703 82.8894 37.282C82.5231 36.8985 82.1475 36.6156 81.7625 36.4333C81.3776 36.251 81.0018 36.1814 80.6351 36.2245C80.2684 36.2677 79.928 36.4392 79.614 36.739C79.2905 37.0481 79.1009 37.3895 79.0454 37.7633C78.99 38.1371 79.0456 38.5217 79.2123 38.917C79.3814 39.31 79.64 39.6887 79.9879 40.053C80.3404 40.4222 80.7126 40.7015 81.1044 40.891C81.4962 41.0805 81.8824 41.1585 82.263 41.1251C82.6436 41.087 82.9933 40.9157 83.3121 40.6112Z" fill="#CB0D0D"/>
</svg>
