<svg width="40" height="40" viewBox="0 0 40 40" fill="none" xmlns="http://www.w3.org/2000/svg">
<path fill-rule="evenodd" clip-rule="evenodd" d="M24.2674 17.2242C25.6071 18.1766 27.2114 18.6854 28.8551 18.6792V15.4217C28.532 15.4226 28.2097 15.388 27.8941 15.3185V17.9137C26.2467 17.9166 24.64 17.4019 23.301 16.4424V23.1421C23.2969 24.2415 22.9954 25.3193 22.4285 26.2612C21.8615 27.2031 21.0502 27.974 20.0806 28.4922C19.1111 29.0104 18.0193 29.2565 16.9212 29.2045C15.823 29.1525 14.7594 28.8043 13.8431 28.1968C14.6907 29.0543 15.7736 29.641 16.9548 29.8827C18.136 30.1244 19.3624 30.01 20.4786 29.5543C21.5948 29.0985 22.5507 28.3217 23.2251 27.3223C23.8996 26.3229 24.2623 25.1459 24.2674 23.9402V17.2242ZM25.4564 13.9015C24.7751 13.163 24.3571 12.2201 24.2674 11.2194V10.7959H23.3553C23.468 11.432 23.7134 12.0372 24.0754 12.5723C24.4374 13.1073 24.9079 13.5602 25.4564 13.9015ZM15.9551 25.6179C15.639 25.2045 15.4453 24.7106 15.396 24.1925C15.3467 23.6744 15.4438 23.1529 15.6763 22.6873C15.9089 22.2217 16.2674 21.8307 16.7112 21.5589C17.155 21.287 17.6662 21.1452 18.1866 21.1496C18.4739 21.1495 18.7595 21.1934 19.0335 21.2799V17.9137C18.7132 17.8713 18.3902 17.8531 18.0671 17.8594V20.4763C17.3999 20.2654 16.6778 20.3134 16.0444 20.6107C15.4109 20.9079 14.9126 21.4328 14.6485 22.0807C14.3843 22.7287 14.3738 23.4524 14.6189 24.1078C14.8641 24.7632 15.3469 25.3023 15.9714 25.6179H15.9551Z" fill="#EE1D52"/>
<path fill-rule="evenodd" clip-rule="evenodd" d="M23.3005 16.4206C24.6396 17.3802 26.2463 17.8949 27.8937 17.892V15.2968C26.955 15.0983 26.1024 14.6103 25.4559 13.9015C24.9074 13.5602 24.4369 13.1073 24.0749 12.5723C23.7129 12.0372 23.4675 11.432 23.3548 10.7959H20.955V23.9402C20.9528 24.522 20.7684 25.0885 20.4278 25.5602C20.0871 26.0319 19.6073 26.385 19.0557 26.5701C18.5041 26.7552 17.9084 26.7628 17.3523 26.5921C16.7961 26.4213 16.3073 26.0806 15.9546 25.6179C15.3957 25.3359 14.9481 24.8738 14.684 24.3061C14.4199 23.7385 14.3548 23.0985 14.4991 22.4893C14.6434 21.8801 14.9887 21.3373 15.4794 20.9484C15.97 20.5596 16.5773 20.3474 17.2034 20.346C17.4906 20.3469 17.7761 20.3909 18.0504 20.4763V17.8594C16.8655 17.8879 15.7147 18.2616 14.7392 18.9349C13.7637 19.6082 13.0061 20.5516 12.5593 21.6494C12.1124 22.7471 11.9958 23.9515 12.2238 25.1146C12.4518 26.2777 13.0144 27.3489 13.8426 28.1968C14.7591 28.8087 15.8244 29.1605 16.925 29.2148C18.0256 29.269 19.1203 29.0238 20.0926 28.5051C21.0648 27.9863 21.8781 27.2136 22.4459 26.2692C23.0137 25.3248 23.3147 24.2441 23.3168 23.1421L23.3005 16.4206Z" fill="black"/>
<path fill-rule="evenodd" clip-rule="evenodd" d="M27.894 15.2966V14.5962C27.032 14.5999 26.1867 14.3589 25.4562 13.9013C26.1011 14.6121 26.9544 15.1006 27.894 15.2966ZM23.3551 10.7957C23.3551 10.6708 23.3171 10.5405 23.3008 10.4157V9.99219H19.9889V23.1419C19.986 23.8782 19.6911 24.5833 19.169 25.1025C18.6468 25.6216 17.94 25.9123 17.2037 25.9109C16.7701 25.9131 16.3422 25.8126 15.9549 25.6177C16.3076 26.0804 16.7964 26.4211 17.3526 26.5919C17.9087 26.7627 18.5044 26.755 19.056 26.5699C19.6076 26.3849 20.0874 26.0317 20.4281 25.56C20.7687 25.0884 20.9531 24.5219 20.9553 23.94V10.7957H23.3551ZM18.0507 17.8538V17.11C16.6878 16.9249 15.3025 17.2068 14.1204 17.9098C12.9383 18.6128 12.0292 19.6954 11.5412 20.9812C11.0532 22.2671 11.015 23.6803 11.433 24.9906C11.851 26.3008 12.7005 27.4309 13.843 28.1966C13.021 27.3468 12.4644 26.276 12.241 25.115C12.0177 23.954 12.1374 22.7531 12.5854 21.659C13.0334 20.5649 13.7903 19.625 14.7638 18.9541C15.7372 18.2831 16.885 17.9102 18.0669 17.8809L18.0507 17.8538Z" fill="#69C9D0"/>
</svg>
