<svg width="16" height="16" viewBox="0 0 16 16" fill="none" xmlns="http://www.w3.org/2000/svg">
<path d="M6 3.27344C6.00955 3.70025 5.91641 4.12199 5.72852 4.50098L5.6416 4.66016L5.63672 4.66992C5.53666 4.84919 5.40907 5.02001 5.27246 5.16016L5.13281 5.29004L5.12012 5.2998L5.1084 5.31152C4.7238 5.67677 4.20616 5.91752 3.63965 5.9834L3.39355 6L3.38867 6.00098C2.92995 6.01756 2.47092 5.90073 2.07812 5.6875L1.33984 5.28711V8.83398H1.83301V9.33398H1.33301V5.07812C1.82995 5.66502 2.54975 5.99312 3.32617 5.99316H3.37988V5.99414L3.39258 5.99316C4.035 5.97701 4.63777 5.73705 5.10156 5.30762L5.10254 5.30859C5.32351 5.12162 5.50234 4.9006 5.6377 4.65527L5.63672 4.6543C5.88457 4.22603 6.00786 3.75443 6 3.27344ZM9.18457 9.22949L9.0625 9.27344C9.12582 9.25374 9.18623 9.22771 9.24512 9.19922C9.22484 9.20904 9.2054 9.22069 9.18457 9.22949ZM9.4375 9.08594C9.42786 9.09282 9.419 9.1008 9.40918 9.10742C9.41901 9.10081 9.42785 9.0928 9.4375 9.08594ZM5.99902 3.26465C5.99909 3.26693 5.99994 3.2692 6 3.27148V3.26953L5.99902 3.26465ZM5.93359 2.74121C5.95069 2.81796 5.96508 2.8957 5.97559 2.97461C5.96514 2.89573 5.95085 2.81802 5.93359 2.74121ZM5.85547 2.46191C5.8816 2.5386 5.90371 2.61682 5.92285 2.69629C5.90356 2.61693 5.88182 2.53862 5.85547 2.46191ZM10 1.32031V1.33398H5.28906L5.68652 2.07031C5.75021 2.18859 5.80292 2.31282 5.84766 2.44043C5.72792 2.1015 5.54155 1.79005 5.29688 1.52246L5.10059 1.32812L5.0957 1.32422L5.09473 1.32324C5.09532 1.32233 5.09627 1.32131 5.09766 1.32031H10Z" fill="#000087" stroke="#000087"/>
<path d="M5.33301 11.999C5.3745 11.999 5.41551 12.0011 5.45605 12.0049C5.41552 12.0012 5.37451 11.999 5.33301 11.999ZM5.33301 11.999C5.29118 11.999 5.24984 12.0011 5.20898 12.0049C5.24984 12.0011 5.29119 11.999 5.33301 11.999ZM4.30273 12.4863C4.11354 12.7165 4 13.011 4 13.332H3.94336L4.04688 12.9697C4.09838 12.7904 4.18687 12.6266 4.30273 12.4863ZM4.30273 12.4863C4.31182 12.4753 4.32162 12.4649 4.33105 12.4541M4.30273 12.4863C4.31185 12.4753 4.3216 12.4648 4.33105 12.4541M4.33105 12.4541C4.34615 12.437 4.36102 12.4197 4.37695 12.4033C4.36105 12.4197 4.34611 12.4369 4.33105 12.4541ZM6.3623 12.4863C6.47837 12.6267 6.56758 12.7901 6.61914 12.9697L6.72266 13.332H6.66602C6.66602 13.0107 6.55174 12.7166 6.3623 12.4863ZM10.9414 12.0264C11.4268 12.1266 11.8153 12.493 11.9521 12.9697L12.0566 13.332H12C12 12.6901 11.5457 12.1531 10.9414 12.0264ZM1.37402 11.7344C1.5341 12.5149 2.15009 13.1309 2.93066 13.291L3.12891 13.3213C2.25537 13.2326 1.54751 12.5811 1.37402 11.7354V11.7344ZM14.626 11.7354C14.5059 12.321 14.1293 12.8137 13.6191 13.0908L13.4443 13.1748C14.0423 12.9214 14.4926 12.3848 14.626 11.7344V11.7354ZM4.41504 12.3672C4.43194 12.3512 4.44909 12.3355 4.4668 12.3203C4.4491 12.3355 4.43192 12.3511 4.41504 12.3672ZM6.19824 12.3203C6.21597 12.3355 6.23308 12.3512 6.25 12.3672C6.23311 12.3511 6.21596 12.3355 6.19824 12.3203ZM4.49805 12.2939C4.52103 12.2755 4.54418 12.2572 4.56836 12.2402C4.54418 12.2572 4.52101 12.2754 4.49805 12.2939ZM6.09668 12.2402C6.12088 12.2572 6.14399 12.2755 6.16699 12.2939C6.14401 12.2755 6.12088 12.2572 6.09668 12.2402ZM4.5957 12.2207C4.62338 12.2023 4.65258 12.1863 4.68164 12.1699C4.65257 12.1863 4.62338 12.2023 4.5957 12.2207ZM5.98438 12.1699C6.0132 12.1861 6.04187 12.2025 6.06934 12.2207C6.04188 12.2025 6.01321 12.1861 5.98438 12.1699ZM4.70117 12.1582C4.73491 12.14 4.76931 12.1227 4.80469 12.1074C4.76928 12.1227 4.73491 12.14 4.70117 12.1582ZM5.86035 12.1074C5.89602 12.1228 5.93085 12.1398 5.96484 12.1582C5.93084 12.1399 5.89605 12.1228 5.86035 12.1074ZM4.84082 12.0928C4.86715 12.0823 4.89379 12.0723 4.9209 12.0635C4.89377 12.0723 4.86715 12.0823 4.84082 12.0928ZM5.74414 12.0635C5.77126 12.0723 5.79788 12.0823 5.82422 12.0928C5.79787 12.0823 5.77128 12.0723 5.74414 12.0635ZM4.96191 12.0518C4.98513 12.045 5.00852 12.0387 5.03223 12.0332C5.00851 12.0387 4.98513 12.045 4.96191 12.0518ZM5.63281 12.0332C5.65653 12.0387 5.67991 12.045 5.70312 12.0518C5.6799 12.0451 5.65654 12.0387 5.63281 12.0332ZM10.8076 12.0059C10.8486 12.01 10.8889 12.0166 10.9287 12.0244C10.889 12.0165 10.8486 12.0102 10.8076 12.0059ZM5.08984 12.0215C5.11182 12.0174 5.13392 12.0137 5.15625 12.0107C5.13392 12.0137 5.11182 12.0174 5.08984 12.0215ZM5.50879 12.0107C5.53112 12.0137 5.55322 12.0174 5.5752 12.0215C5.55322 12.0174 5.53113 12.0137 5.50879 12.0107ZM10.4453 12.0176C10.4492 12.0169 10.4531 12.0163 10.457 12.0156C10.4531 12.0162 10.4492 12.0169 10.4453 12.0176ZM10.6729 11.999C10.716 11.999 10.7587 12.0008 10.8008 12.0049C10.7574 12.0005 10.7134 11.9991 10.6689 11.999C10.6702 11.999 10.6715 11.999 10.6729 11.999ZM10.5527 12.0039C10.5766 12.0018 10.6008 12.0018 10.625 12.001C10.6007 12.0017 10.5766 12.0019 10.5527 12.0039ZM9.41211 9.10449C9.27035 9.2002 9.10912 9.26919 8.93555 9.30469L8.80273 9.3252C8.98196 9.30697 9.15064 9.25302 9.30176 9.1709L9.41211 9.10449ZM9.83887 8.63477C9.81846 8.67236 9.79627 8.70885 9.77246 8.74414L9.69531 8.84668C9.74971 8.78076 9.79779 8.70944 9.83887 8.63379V8.63477ZM11.2266 3.33203C11.2983 3.33204 11.369 3.33942 11.4385 3.35059C11.3688 3.33941 11.2981 3.33204 11.2266 3.33203ZM9.2832 13.332L9.36328 13.0508C9.34378 13.1415 9.33301 13.2355 9.33301 13.332H9.2832ZM12.8701 13.3213L13.0693 13.291C12.9391 13.3177 12.8041 13.332 12.666 13.332C12.7348 13.332 12.8031 13.3281 12.8701 13.3213ZM6.28809 12.4033C6.30838 12.4241 6.32775 12.4457 6.34668 12.4678C6.3278 12.4457 6.30835 12.4242 6.28809 12.4033Z" fill="#000087" stroke="#000087"/>
<path d="M5.33333 15.1667C4.32 15.1667 3.5 14.3467 3.5 13.3333C3.5 12.32 4.32 11.5 5.33333 11.5C6.34667 11.5 7.16667 12.32 7.16667 13.3333C7.16667 14.3467 6.34667 15.1667 5.33333 15.1667ZM5.33333 12.5C4.87333 12.5 4.5 12.8733 4.5 13.3333C4.5 13.7933 4.87333 14.1667 5.33333 14.1667C5.79333 14.1667 6.16667 13.7933 6.16667 13.3333C6.16667 12.8733 5.79333 12.5 5.33333 12.5Z" fill="#000087"/>
<path d="M10.6663 15.1667C9.65301 15.1667 8.83301 14.3467 8.83301 13.3333C8.83301 12.32 9.65301 11.5 10.6663 11.5C11.6797 11.5 12.4997 12.32 12.4997 13.3333C12.4997 14.3467 11.6797 15.1667 10.6663 15.1667ZM10.6663 12.5C10.2063 12.5 9.83301 12.8733 9.83301 13.3333C9.83301 13.7933 10.2063 14.1667 10.6663 14.1667C11.1263 14.1667 11.4997 13.7933 11.4997 13.3333C11.4997 12.8733 11.1263 12.5 10.6663 12.5Z" fill="#000087"/>
<path d="M14.6667 9.83333H12.6667C12.0267 9.83333 11.5 9.30667 11.5 8.66667V6.66667C11.5 6.02667 12.0267 5.5 12.6667 5.5H13.5267C13.7067 5.5 13.8733 5.59334 13.96 5.75334L15.1 7.75334C15.14 7.82667 15.1667 7.91333 15.1667 8V9.33333C15.1667 9.60667 14.94 9.83333 14.6667 9.83333ZM12.6667 6.5C12.5733 6.5 12.5 6.57333 12.5 6.66667V8.66667C12.5 8.76 12.5733 8.83333 12.6667 8.83333H14.1667V8.13334L13.2333 6.5H12.6667Z" fill="#000087"/>
<path d="M3.33366 6.5013C2.22699 6.5013 1.18699 5.91464 0.626994 4.9613C0.326994 4.4813 0.166992 3.91464 0.166992 3.33464C0.166992 2.3613 0.600345 1.46129 1.35368 0.861287C1.91368 0.414621 2.62033 0.167969 3.33366 0.167969C5.08033 0.167969 6.50033 1.58797 6.50033 3.33464C6.50033 3.91464 6.34032 4.48131 6.04032 4.96798C5.87366 5.24798 5.66032 5.50131 5.40698 5.71464C4.85365 6.22131 4.11366 6.5013 3.33366 6.5013ZM3.33366 1.16797C2.84033 1.16797 2.37364 1.33462 1.98031 1.64795C1.46697 2.05462 1.16699 2.67464 1.16699 3.33464C1.16699 3.72797 1.27364 4.11462 1.48031 4.44796C1.86697 5.10129 2.58033 5.5013 3.33366 5.5013C3.86033 5.5013 4.367 5.30797 4.75366 4.9613C4.927 4.81464 5.07367 4.6413 5.18034 4.45463C5.39367 4.11463 5.50033 3.72797 5.50033 3.33464C5.50033 2.1413 4.52699 1.16797 3.33366 1.16797Z" fill="#000087"/>
<path d="M4.04661 4.52606C3.91994 4.52606 3.79326 4.47942 3.69326 4.37942L2.2866 2.97276C2.09327 2.77943 2.09327 2.45943 2.2866 2.26609C2.47993 2.07276 2.79993 2.07276 2.99327 2.26609L4.39992 3.67275C4.59326 3.86608 4.59326 4.18608 4.39992 4.37942C4.29992 4.47942 4.17328 4.52606 4.04661 4.52606Z" fill="#000087"/>
<path d="M2.62038 4.54563C2.49372 4.54563 2.36707 4.49895 2.26707 4.39895C2.07374 4.20561 2.07374 3.88562 2.26707 3.69228L3.67373 2.28563C3.86706 2.09229 4.18706 2.09229 4.38039 2.28563C4.57373 2.47896 4.57373 2.79896 4.38039 2.99229L2.97374 4.39895C2.87374 4.49895 2.74705 4.54563 2.62038 4.54563Z" fill="#000087"/>
</svg>
