<svg width="16" height="16" viewBox="0 0 16 16" fill="none" xmlns="http://www.w3.org/2000/svg">
<path d="M1.33347 5.07881C1.33335 5.07926 1.33331 5.07974 1.33331 5.08032V9.33366H1.83331V8.83366H1.33999V6.12699V5.28664L2.07853 5.68757C2.47132 5.9008 2.92986 6.01723 3.38858 6.00065L3.39382 6.00046L3.39382 6.00049C4.05564 5.98352 4.66924 5.72887 5.10893 5.31117L5.12072 5.29996L5.13322 5.28955C5.32102 5.13305 5.5032 4.90917 5.6367 4.66997L5.64194 4.66059L5.64204 4.66065C5.88764 4.24202 6.0112 3.76077 6.00013 3.27265C6.00012 3.27237 6.00012 3.2721 6.00011 3.27183L1.33347 5.07881ZM1.33347 5.07881C1.83043 5.66545 2.55036 5.99365 3.32664 5.99365H3.32676H3.32687H3.32699H3.32711H3.32722H3.32734H3.32746H3.32757H3.32769H3.3278H3.32792H3.32804H3.32815H3.32827H3.32838H3.3285H3.32861H3.32873H3.32884H3.32895H3.32907H3.32918H3.3293H3.32941H3.32952H3.32964H3.32975H3.32986H3.32998H3.33009H3.3302H3.33032H3.33043H3.33054H3.33065H3.33076H3.33088H3.33099H3.3311H3.33121H3.33132H3.33143H3.33155H3.33166H3.33177H3.33188H3.33199H3.3321H3.33221H3.33232H3.33243H3.33254H3.33265H3.33276H3.33287H3.33298H3.33309H3.3332H3.33331H3.33342H3.33353H3.33364H3.33375H3.33385H3.33396H3.33407H3.33418H3.33429H3.3344H3.3345H3.33461H3.33472H3.33483H3.33493H3.33504H3.33515H3.33526H3.33536H3.33547H3.33558H3.33569H3.33579H3.3359H3.336H3.33611H3.33622H3.33632H3.33643H3.33654H3.33664H3.33675H3.33685H3.33696H3.33706H3.33717H3.33728H3.33738H3.33749H3.33759H3.3377H3.3378H3.33791H3.33801H3.33812H3.33822H3.33832H3.33843H3.33853H3.33864H3.33874H3.33885H3.33895H3.33905H3.33916H3.33926H3.33936H3.33947H3.33957H3.33967H3.33978H3.33988H3.33998H3.34009H3.34019H3.34029H3.34039H3.3405H3.3406H3.3407H3.34081H3.34091H3.34101H3.34111H3.34121H3.34132H3.34142H3.34152H3.34162H3.34172H3.34183H3.34193H3.34203H3.34213H3.34223H3.34233H3.34243H3.34254H3.34264H3.34274H3.34284H3.34294H3.34304H3.34314H3.34324H3.34334H3.34344H3.34354H3.34365H3.34375H3.34385H3.34395H3.34405H3.34415H3.34425H3.34435H3.34445H3.34455H3.34465H3.34475H3.34485H3.34495H3.34505H3.34515H3.34525H3.34535H3.34545H3.34555H3.34565H3.34574H3.34584H3.34594H3.34604H3.34614H3.34624H3.34634H3.34644H3.34654H3.34664H3.34674H3.34684H3.34694H3.34703H3.34713H3.34723H3.34733H3.34743H3.34753H3.34763H3.34773H3.34782H3.34792H3.34802H3.34812H3.34822H3.34832H3.34842H3.34851H3.34861H3.34871H3.34881H3.34891H3.34901H3.3491H3.3492H3.3493H3.3494H3.3495H3.34959H3.34969H3.34979H3.34989H3.34999H3.35009H3.35018H3.35028H3.35038H3.35048H3.35057H3.35067H3.35077H3.35087H3.35097H3.35106H3.35116H3.35126H3.35136H3.35146H3.35155H3.35165H3.35175H3.35185H3.35194H3.35204H3.35214H3.35224H3.35234H3.35243H3.35253H3.35263H3.35273H3.35282H3.35292H3.35302H3.35312H3.35321H3.35331H3.35341H3.35351H3.35361H3.3537H3.3538H3.3539H3.354H3.35409H3.35419H3.35429H3.35439H3.35448H3.35458H3.35468H3.35478H3.35488H3.35497H3.35507H3.35517H3.35527H3.35536H3.35546H3.35556H3.35566H3.35576H3.35585H3.35595H3.35605H3.35615H3.35625H3.35634H3.35644H3.35654H3.35664H3.35674H3.35683H3.35693H3.35703H3.35713H3.35723H3.35732H3.35742H3.35752H3.35762H3.35772H3.35782H3.35791H3.35801H3.35811H3.35821H3.35831H3.35841H3.3585H3.3586H3.3587H3.3588H3.3589H3.359H3.3591H3.35919H3.35929H3.35939H3.35949H3.35959H3.35969H3.35979H3.35989H3.35999H3.36009H3.36018H3.36028H3.36038H3.36048H3.36058H3.36068H3.36078H3.36088H3.36098H3.36108H3.36118H3.36128H3.36138H3.36148H3.36158H3.36168H3.36178H3.36188H3.36198H3.36208H3.36218H3.36228H3.36238H3.36248H3.36258H3.36268H3.36278H3.36288H3.36298H3.36308H3.36318H3.36328H3.36338H3.36348H3.36358H3.36368H3.36379H3.36389H3.36399H3.36409H3.36419H3.36429H3.36439H3.36449H3.3646H3.3647H3.3648H3.3649H3.365H3.3651H3.36521H3.36531H3.36541H3.36551H3.36561H3.36572H3.36582H3.36592H3.36602H3.36613H3.36623H3.36633H3.36644H3.36654H3.36664H3.36674H3.36685H3.36695H3.36705H3.36716H3.36726H3.36736H3.36747H3.36757H3.36768H3.36778H3.36788H3.36799H3.36809H3.3682H3.3683H3.3684H3.36851H3.36861H3.36872H3.36882H3.36893H3.36903H3.36914H3.36924H3.36935H3.36945H3.36956H3.36967H3.36977H3.36988H3.36998H3.37009H3.37019H3.3703H3.37041H3.37051H3.37062H3.37073H3.37083H3.37094H3.37105H3.37115H3.37126H3.37137H3.37147H3.37158H3.37169H3.3718H3.3719H3.37201H3.37212H3.37223H3.37234H3.37245H3.37255H3.37266H3.37277H3.37288H3.37299H3.3731H3.37321H3.37332H3.37342H3.37353H3.37364H3.37375H3.37386H3.37397H3.37408H3.37419H3.3743H3.37441H3.37452H3.37463H3.37475H3.37486H3.37497H3.37508H3.37519H3.3753H3.37541H3.37552H3.37564H3.37575H3.37586H3.37597H3.37608H3.3762H3.37631H3.37642H3.37653H3.37665H3.37676H3.37687H3.37699H3.3771H3.37721H3.37733H3.37744H3.37756H3.37767H3.37778H3.3779H3.37801H3.37813H3.37824H3.37836H3.37847H3.37859H3.3787H3.37882H3.37894H3.37905H3.37917H3.37928H3.3794H3.37952H3.37963H3.37975H3.37987H3.37998V5.99381L3.39248 5.9935C4.03981 5.97731 4.64837 5.73517 5.1136 5.29962C5.328 5.116 5.50191 4.8999 5.63469 4.66074C5.88509 4.23046 6.00811 3.75557 5.99991 3.27184L5.99986 3.26945C5.99963 3.25869 5.99933 3.24795 5.99897 3.23722L1.33347 5.07881ZM5.68641 2.07071C5.75925 2.20598 5.8199 2.34795 5.86789 2.49526C5.72104 2.04835 5.4571 1.64798 5.10054 1.32813L5.10057 1.3281L5.09591 1.32403C5.09546 1.32363 5.09511 1.32329 5.09485 1.32301C5.09539 1.3222 5.09622 1.32121 5.09738 1.32031H9.99998V1.33366H9.49998H6.12665H5.28954L5.68641 2.07071ZM8.66665 9.33366C8.87789 9.33366 9.07768 9.28448 9.25521 9.19696C9.07758 9.28466 8.87774 9.33366 8.66665 9.33366Z" fill="#000087" stroke="#000087"/>
<path d="M5.33331 11.9997C4.59717 11.9997 3.99998 12.5969 3.99998 13.333H3.94333L4.04723 12.9709C4.20789 12.4111 4.72411 11.9997 5.33331 11.9997ZM5.33331 11.9997C6.06946 11.9997 6.66665 12.5969 6.66665 13.333H6.7233L6.61939 12.9709C6.45874 12.4111 5.94252 11.9997 5.33331 11.9997ZM11.9527 12.9709L12.0566 13.333H12C12 12.598 11.4046 12.0015 10.67 11.9997C10.6711 11.9997 10.6722 11.9997 10.6733 11.9997C11.2804 11.9997 11.7915 12.4089 11.9527 12.9709ZM9.36037 13.0646C9.34263 13.1513 9.33331 13.2411 9.33331 13.333H9.28334L9.36037 13.0646ZM3.33331 13.333C2.22946 13.333 1.33331 12.4369 1.33331 11.333C1.33331 12.4358 2.2305 13.333 3.33331 13.333ZM8.66665 9.33301C9.40279 9.33301 9.99998 8.73582 9.99998 7.99967C9.99998 8.73687 9.40384 9.33301 8.66665 9.33301ZM14.6666 11.333C14.6666 12.4369 13.7705 13.333 12.6666 13.333C13.7695 13.333 14.6666 12.4358 14.6666 11.333Z" fill="#000087" stroke="#000087"/>
<path d="M5.33333 15.1667C4.32 15.1667 3.5 14.3467 3.5 13.3333C3.5 12.32 4.32 11.5 5.33333 11.5C6.34667 11.5 7.16667 12.32 7.16667 13.3333C7.16667 14.3467 6.34667 15.1667 5.33333 15.1667ZM5.33333 12.5C4.87333 12.5 4.5 12.8733 4.5 13.3333C4.5 13.7933 4.87333 14.1667 5.33333 14.1667C5.79333 14.1667 6.16667 13.7933 6.16667 13.3333C6.16667 12.8733 5.79333 12.5 5.33333 12.5Z" fill="#000087"/>
<path d="M10.6666 15.1667C9.65331 15.1667 8.83331 14.3467 8.83331 13.3333C8.83331 12.32 9.65331 11.5 10.6666 11.5C11.68 11.5 12.5 12.32 12.5 13.3333C12.5 14.3467 11.68 15.1667 10.6666 15.1667ZM10.6666 12.5C10.2066 12.5 9.83331 12.8733 9.83331 13.3333C9.83331 13.7933 10.2066 14.1667 10.6666 14.1667C11.1266 14.1667 11.5 13.7933 11.5 13.3333C11.5 12.8733 11.1266 12.5 10.6666 12.5Z" fill="#000087"/>
<path d="M14.6667 9.83333H12.6667C12.0267 9.83333 11.5 9.30667 11.5 8.66667V6.66667C11.5 6.02667 12.0267 5.5 12.6667 5.5H13.5267C13.7067 5.5 13.8733 5.59334 13.96 5.75334L15.1 7.75334C15.14 7.82667 15.1667 7.91333 15.1667 8V9.33333C15.1667 9.60667 14.94 9.83333 14.6667 9.83333ZM12.6667 6.5C12.5733 6.5 12.5 6.57333 12.5 6.66667V8.66667C12.5 8.76 12.5733 8.83333 12.6667 8.83333H14.1667V8.13334L13.2333 6.5H12.6667Z" fill="#000087"/>
<path d="M3.33335 6.50033C2.22669 6.50033 1.18669 5.91366 0.626689 4.96033C0.326689 4.48033 0.166687 3.91366 0.166687 3.33366C0.166687 2.36033 0.60004 1.46031 1.35337 0.860311C1.91337 0.413644 2.62002 0.166992 3.33335 0.166992C5.08002 0.166992 6.50002 1.58699 6.50002 3.33366C6.50002 3.91366 6.34002 4.48033 6.04002 4.967C5.87335 5.247 5.66001 5.50033 5.40668 5.71366C4.85334 6.22033 4.11335 6.50033 3.33335 6.50033ZM3.33335 1.16699C2.84002 1.16699 2.37333 1.33364 1.98 1.64697C1.46667 2.05364 1.16669 2.67366 1.16669 3.33366C1.16669 3.72699 1.27333 4.11365 1.48 4.44698C1.86667 5.10031 2.58002 5.50033 3.33335 5.50033C3.86002 5.50033 4.36669 5.30699 4.75336 4.96033C4.92669 4.81366 5.07337 4.64032 5.18003 4.45365C5.39337 4.11365 5.50002 3.72699 5.50002 3.33366C5.50002 2.14033 4.52669 1.16699 3.33335 1.16699Z" fill="#000087"/>
<path d="M4.04661 4.52704C3.91994 4.52704 3.79326 4.48039 3.69326 4.38039L2.2866 2.97374C2.09327 2.7804 2.09327 2.4604 2.2866 2.26707C2.47993 2.07374 2.79993 2.07374 2.99327 2.26707L4.39992 3.67373C4.59326 3.86706 4.59326 4.18706 4.39992 4.38039C4.29992 4.48039 4.17328 4.52704 4.04661 4.52704Z" fill="#000087"/>
<path d="M2.62008 4.54661C2.49341 4.54661 2.36677 4.49992 2.26677 4.39992C2.07343 4.20659 2.07343 3.88659 2.26677 3.69326L3.67342 2.2866C3.86676 2.09327 4.18675 2.09327 4.38009 2.2866C4.57342 2.47993 4.57342 2.79993 4.38009 2.99327L2.97343 4.39992C2.87343 4.49992 2.74674 4.54661 2.62008 4.54661Z" fill="#000087"/>
</svg>
