<svg width="208" height="90" viewBox="0 0 208 90" fill="none" xmlns="http://www.w3.org/2000/svg">
<g clip-path="url(#clip0_2250_97900)">
<path d="M12 17.77L18.18 21.5L16.54 14.47L22 9.74L14.81 9.13L12 2.5L9.19 9.13L2 9.74L7.46 14.47L5.82 21.5L12 17.77Z" fill="#00B67A"/>
</g>
<path d="M24.7045 7.875V6.36364H33.7102V7.875H30.0795V18H28.3295V7.875H24.7045ZM34.6577 18V9.27273H36.2997V10.6591H36.3906C36.5497 10.1894 36.83 9.82008 37.2315 9.55114C37.6368 9.27841 38.0952 9.14205 38.6065 9.14205C38.7126 9.14205 38.8376 9.14583 38.9815 9.15341C39.1293 9.16098 39.2448 9.17045 39.3281 9.18182V10.8068C39.2599 10.7879 39.1387 10.767 38.9645 10.7443C38.7902 10.7178 38.616 10.7045 38.4418 10.7045C38.0402 10.7045 37.6823 10.7898 37.3679 10.9602C37.0573 11.1269 36.8111 11.3598 36.6293 11.6591C36.4474 11.9545 36.3565 12.2917 36.3565 12.6705V18H34.6577ZM46.3267 14.3807V9.27273H48.0312V18H46.3608V16.4886H46.2699C46.0691 16.9545 45.7472 17.3428 45.304 17.6534C44.8646 17.9602 44.3172 18.1136 43.6619 18.1136C43.1013 18.1136 42.6051 17.9905 42.1733 17.7443C41.7453 17.4943 41.4081 17.125 41.1619 16.6364C40.9195 16.1477 40.7983 15.5436 40.7983 14.8239V9.27273H42.4972V14.6193C42.4972 15.214 42.6619 15.6875 42.9915 16.0398C43.321 16.392 43.7491 16.5682 44.2756 16.5682C44.5938 16.5682 44.91 16.4886 45.2244 16.3295C45.5426 16.1705 45.8059 15.9299 46.0142 15.608C46.2263 15.286 46.3305 14.8769 46.3267 14.3807ZM56.8537 11.4034L55.3139 11.6761C55.2495 11.4792 55.1473 11.2917 55.0071 11.1136C54.8707 10.9356 54.6851 10.7898 54.4503 10.6761C54.2154 10.5625 53.9219 10.5057 53.5696 10.5057C53.0885 10.5057 52.687 10.6136 52.3651 10.8295C52.0431 11.0417 51.8821 11.3163 51.8821 11.6534C51.8821 11.9451 51.9901 12.1799 52.206 12.358C52.4219 12.536 52.7704 12.6818 53.2514 12.7955L54.6378 13.1136C55.4408 13.2992 56.0393 13.5852 56.4332 13.9716C56.8272 14.358 57.0241 14.8598 57.0241 15.4773C57.0241 16 56.8726 16.4659 56.5696 16.875C56.2704 17.2803 55.8518 17.5985 55.3139 17.8295C54.7798 18.0606 54.1605 18.1761 53.456 18.1761C52.4787 18.1761 51.6813 17.9678 51.0639 17.5511C50.4465 17.1307 50.0677 16.5341 49.9276 15.7614L51.5696 15.5114C51.6719 15.9394 51.8821 16.2633 52.2003 16.483C52.5185 16.6989 52.9332 16.8068 53.4446 16.8068C54.0014 16.8068 54.4465 16.6913 54.7798 16.4602C55.1132 16.2254 55.2798 15.9394 55.2798 15.6023C55.2798 15.3295 55.1776 15.1004 54.973 14.9148C54.7723 14.7292 54.4635 14.589 54.0469 14.4943L52.5696 14.1705C51.7552 13.9848 51.1529 13.6894 50.7628 13.2841C50.3764 12.8788 50.1832 12.3655 50.1832 11.7443C50.1832 11.2292 50.3272 10.7784 50.6151 10.392C50.9029 10.0057 51.3007 9.70455 51.8082 9.48864C52.3158 9.26894 52.8973 9.15909 53.5526 9.15909C54.4957 9.15909 55.2382 9.36364 55.7798 9.77273C56.3215 10.178 56.6795 10.7216 56.8537 11.4034ZM62.9659 9.27273V10.6364H58.1989V9.27273H62.9659ZM59.4773 7.18182H61.1761V15.4375C61.1761 15.767 61.2254 16.0152 61.3239 16.1818C61.4223 16.3447 61.5492 16.4564 61.7045 16.517C61.8636 16.5739 62.036 16.6023 62.2216 16.6023C62.358 16.6023 62.4773 16.5928 62.5795 16.5739C62.6818 16.5549 62.7614 16.5398 62.8182 16.5284L63.125 17.9318C63.0265 17.9697 62.8864 18.0076 62.7045 18.0455C62.5227 18.0871 62.2955 18.1098 62.0227 18.1136C61.5758 18.1212 61.1591 18.0417 60.7727 17.875C60.3864 17.7083 60.0739 17.4508 59.8352 17.1023C59.5966 16.7538 59.4773 16.3163 59.4773 15.7898V7.18182ZM64.8452 21.2727V9.27273H66.5043V10.6875H66.6463C66.7448 10.5057 66.8868 10.2955 67.0724 10.0568C67.258 9.81818 67.5156 9.60985 67.8452 9.43182C68.1747 9.25 68.6103 9.15909 69.152 9.15909C69.8565 9.15909 70.4853 9.33712 71.0384 9.69318C71.5914 10.0492 72.0251 10.5625 72.3395 11.233C72.6577 11.9034 72.8168 12.7102 72.8168 13.6534C72.8168 14.5966 72.6596 15.4053 72.3452 16.0795C72.0308 16.75 71.599 17.267 71.0497 17.6307C70.5005 17.9905 69.8736 18.1705 69.169 18.1705C68.6387 18.1705 68.205 18.0814 67.8679 17.9034C67.5346 17.7254 67.2732 17.517 67.0838 17.2784C66.8944 17.0398 66.7486 16.8277 66.6463 16.642H66.544V21.2727H64.8452ZM66.5099 13.6364C66.5099 14.25 66.599 14.7879 66.777 15.25C66.955 15.7121 67.2126 16.0739 67.5497 16.3352C67.8868 16.5928 68.2997 16.7216 68.7884 16.7216C69.2959 16.7216 69.7202 16.5871 70.0611 16.3182C70.402 16.0455 70.6596 15.6761 70.8338 15.2102C71.0118 14.7443 71.1009 14.2197 71.1009 13.6364C71.1009 13.0606 71.0137 12.5436 70.8395 12.0852C70.669 11.6269 70.4115 11.2652 70.0668 11C69.7259 10.7348 69.2997 10.6023 68.7884 10.6023C68.2959 10.6023 67.8793 10.7292 67.5384 10.983C67.2012 11.2367 66.9455 11.5909 66.7713 12.0455C66.5971 12.5 66.5099 13.0303 66.5099 13.6364ZM74.7202 18V9.27273H76.419V18H74.7202ZM75.5781 7.92614C75.2827 7.92614 75.0289 7.82765 74.8168 7.63068C74.6084 7.42992 74.5043 7.19129 74.5043 6.91477C74.5043 6.63447 74.6084 6.39583 74.8168 6.19886C75.0289 5.99811 75.2827 5.89773 75.5781 5.89773C75.8736 5.89773 76.1255 5.99811 76.3338 6.19886C76.5459 6.39583 76.652 6.63447 76.652 6.91477C76.652 7.19129 76.5459 7.42992 76.3338 7.63068C76.1255 7.82765 75.8736 7.92614 75.5781 7.92614ZM80.4034 6.36364V18H78.7045V6.36364H80.4034ZM86.3651 18.1761C85.5469 18.1761 84.8329 17.9886 84.223 17.6136C83.6132 17.2386 83.1397 16.714 82.8026 16.0398C82.4654 15.3655 82.2969 14.5777 82.2969 13.6761C82.2969 12.7708 82.4654 11.9792 82.8026 11.3011C83.1397 10.6231 83.6132 10.0966 84.223 9.72159C84.8329 9.34659 85.5469 9.15909 86.3651 9.15909C87.1832 9.15909 87.8973 9.34659 88.5071 9.72159C89.117 10.0966 89.5904 10.6231 89.9276 11.3011C90.2647 11.9792 90.4332 12.7708 90.4332 13.6761C90.4332 14.5777 90.2647 15.3655 89.9276 16.0398C89.5904 16.714 89.117 17.2386 88.5071 17.6136C87.8973 17.9886 87.1832 18.1761 86.3651 18.1761ZM86.3707 16.75C86.901 16.75 87.3404 16.6098 87.6889 16.3295C88.0374 16.0492 88.295 15.6761 88.4616 15.2102C88.6321 14.7443 88.7173 14.2311 88.7173 13.6705C88.7173 13.1136 88.6321 12.6023 88.4616 12.1364C88.295 11.6667 88.0374 11.2898 87.6889 11.0057C87.3404 10.7216 86.901 10.5795 86.3707 10.5795C85.8366 10.5795 85.3935 10.7216 85.0412 11.0057C84.6927 11.2898 84.4332 11.6667 84.2628 12.1364C84.0961 12.6023 84.0128 13.1136 84.0128 13.6705C84.0128 14.2311 84.0961 14.7443 84.2628 15.2102C84.4332 15.6761 84.6927 16.0492 85.0412 16.3295C85.3935 16.6098 85.8366 16.75 86.3707 16.75ZM96.4034 9.27273V10.6364H91.6364V9.27273H96.4034ZM92.9148 7.18182H94.6136V15.4375C94.6136 15.767 94.6629 16.0152 94.7614 16.1818C94.8598 16.3447 94.9867 16.4564 95.142 16.517C95.3011 16.5739 95.4735 16.6023 95.6591 16.6023C95.7955 16.6023 95.9148 16.5928 96.017 16.5739C96.1193 16.5549 96.1989 16.5398 96.2557 16.5284L96.5625 17.9318C96.464 17.9697 96.3239 18.0076 96.142 18.0455C95.9602 18.0871 95.733 18.1098 95.4602 18.1136C95.0133 18.1212 94.5966 18.0417 94.2102 17.875C93.8239 17.7083 93.5114 17.4508 93.2727 17.1023C93.0341 16.7538 92.9148 16.3163 92.9148 15.7898V7.18182Z" fill="#525252"/>
<rect width="32" height="32" transform="translate(0 32.5)" fill="#00B67A"/>
<g clip-path="url(#clip1_2250_97900)">
<path d="M16 53.77L22.18 57.5L20.54 50.47L26 45.74L18.81 45.13L16 38.5L13.19 45.13L6 45.74L11.46 50.47L9.82 57.5L16 53.77Z" fill="white"/>
</g>
<rect width="32" height="32" transform="translate(44 32.5)" fill="#00B67A"/>
<g clip-path="url(#clip2_2250_97900)">
<path d="M60 53.77L66.18 57.5L64.54 50.47L70 45.74L62.81 45.13L60 38.5L57.19 45.13L50 45.74L55.46 50.47L53.82 57.5L60 53.77Z" fill="white"/>
</g>
<rect width="32" height="32" transform="translate(88 32.5)" fill="#00B67A"/>
<g clip-path="url(#clip3_2250_97900)">
<path d="M104 53.77L110.18 57.5L108.54 50.47L114 45.74L106.81 45.13L104 38.5L101.19 45.13L94 45.74L99.46 50.47L97.82 57.5L104 53.77Z" fill="white"/>
</g>
<rect width="32" height="32" transform="translate(132 32.5)" fill="#00B67A"/>
<g clip-path="url(#clip4_2250_97900)">
<path d="M148 53.77L154.18 57.5L152.54 50.47L158 45.74L150.81 45.13L148 38.5L145.19 45.13L138 45.74L143.46 50.47L141.82 57.5L148 53.77Z" fill="white"/>
</g>
<rect width="32" height="32" transform="translate(176 32.5)" fill="#00B67A"/>
<g clip-path="url(#clip5_2250_97900)">
<path d="M192 53.77L198.18 57.5L196.54 50.47L202 45.74L194.81 45.13L192 38.5L189.19 45.13L182 45.74L187.46 50.47L185.82 57.5L192 53.77Z" fill="white"/>
</g>
<path d="M0.616477 77.6406V76.3182H8.49645V77.6406H5.3196V86.5H3.78835V77.6406H0.616477ZM9.32546 86.5V78.8636H10.7623V80.0767H10.8418C10.981 79.6657 11.2263 79.3426 11.5776 79.1072C11.9322 78.8686 12.3333 78.7493 12.7807 78.7493C12.8735 78.7493 12.9829 78.7526 13.1088 78.7592C13.2381 78.7659 13.3392 78.7741 13.4121 78.7841V80.206C13.3525 80.1894 13.2464 80.1712 13.0939 80.1513C12.9415 80.1281 12.789 80.1165 12.6365 80.1165C12.2852 80.1165 11.972 80.1911 11.6969 80.3402C11.4251 80.486 11.2097 80.6899 11.0506 80.9517C10.8915 81.2102 10.812 81.5052 10.812 81.8366V86.5H9.32546ZM19.5359 83.3331V78.8636H21.0273V86.5H19.5657V85.1776H19.4862C19.3105 85.5852 19.0288 85.925 18.641 86.1967C18.2565 86.4652 17.7776 86.5994 17.2042 86.5994C16.7137 86.5994 16.2795 86.4917 15.9016 86.2763C15.5271 86.0575 15.2321 85.7344 15.0167 85.3068C14.8046 84.8793 14.6985 84.3506 14.6985 83.7209V78.8636H16.185V83.5419C16.185 84.0623 16.3292 84.4766 16.6175 84.7848C16.9059 85.093 17.2804 85.2472 17.7411 85.2472C18.0195 85.2472 18.2963 85.1776 18.5714 85.0384C18.8498 84.8991 19.0801 84.6887 19.2624 84.407C19.448 84.1252 19.5392 83.7673 19.5359 83.3331ZM28.747 80.728L27.3997 80.9666C27.3433 80.7943 27.2538 80.6302 27.1312 80.4744C27.0119 80.3187 26.8495 80.1911 26.644 80.0916C26.4385 79.9922 26.1816 79.9425 25.8734 79.9425C25.4525 79.9425 25.1011 80.0369 24.8194 80.2259C24.5377 80.4115 24.3968 80.6518 24.3968 80.9467C24.3968 81.2019 24.4913 81.4074 24.6802 81.5632C24.8691 81.719 25.1741 81.8466 25.595 81.946L26.8081 82.2244C27.5107 82.3868 28.0344 82.6371 28.3791 82.9751C28.7238 83.3132 28.8961 83.7524 28.8961 84.2926C28.8961 84.75 28.7636 85.1577 28.4984 85.5156C28.2366 85.8703 27.8703 86.1487 27.3997 86.3509C26.9324 86.553 26.3904 86.6541 25.774 86.6541C24.9189 86.6541 24.2212 86.4718 23.6809 86.1072C23.1407 85.7393 22.8092 85.2173 22.6866 84.5412L24.1234 84.3224C24.2129 84.697 24.3968 84.9804 24.6752 85.1726C24.9537 85.3615 25.3166 85.456 25.764 85.456C26.2512 85.456 26.6407 85.3549 26.9324 85.1527C27.224 84.9472 27.3699 84.697 27.3699 84.402C27.3699 84.1634 27.2804 83.9628 27.1014 83.8004C26.9257 83.638 26.6556 83.5154 26.291 83.4325L24.9984 83.1491C24.2858 82.9867 23.7588 82.7282 23.4174 82.3736C23.0794 82.0189 22.9103 81.5698 22.9103 81.0263C22.9103 80.5755 23.0363 80.1811 23.2882 79.843C23.5401 79.505 23.8881 79.2415 24.3322 79.0526C24.7763 78.8603 25.2851 78.7642 25.8585 78.7642C26.6838 78.7642 27.3334 78.9432 27.8074 79.3011C28.2813 79.6558 28.5945 80.1314 28.747 80.728ZM34.0952 78.8636V80.0568H29.924V78.8636H34.0952ZM31.0426 77.0341H32.5291V84.2578C32.5291 84.5462 32.5722 84.7633 32.6584 84.9091C32.7446 85.0516 32.8556 85.1494 32.9915 85.2024C33.1307 85.2521 33.2815 85.277 33.4439 85.277C33.5632 85.277 33.6676 85.2687 33.7571 85.2521C33.8466 85.2356 33.9162 85.2223 33.9659 85.2124L34.2344 86.4403C34.1482 86.4735 34.0256 86.5066 33.8665 86.5398C33.7074 86.5762 33.5085 86.5961 33.2699 86.5994C32.8788 86.6061 32.5142 86.5365 32.1761 86.3906C31.8381 86.2448 31.5646 86.0194 31.3558 85.7145C31.147 85.4096 31.0426 85.0268 31.0426 84.5661V77.0341ZM41.4121 78.9929C41.3591 78.5223 41.1403 78.1577 40.7559 77.8991C40.3714 77.6373 39.8875 77.5064 39.3042 77.5064C38.8865 77.5064 38.5253 77.5727 38.2203 77.7053C37.9154 77.8345 37.6784 78.0135 37.5094 78.2422C37.3437 78.4676 37.2608 78.7244 37.2608 79.0128C37.2608 79.2547 37.3172 79.4635 37.4299 79.6392C37.5459 79.8149 37.6967 79.9624 37.8823 80.0817C38.0712 80.1977 38.2734 80.2955 38.4888 80.375C38.7042 80.4512 38.9114 80.5142 39.1103 80.5639L40.1046 80.8224C40.4294 80.902 40.7625 81.0097 41.1039 81.1456C41.4453 81.2815 41.7618 81.4605 42.0534 81.6825C42.3451 81.9046 42.5804 82.1797 42.7594 82.5078C42.9417 82.8359 43.0328 83.2287 43.0328 83.6861C43.0328 84.2628 42.8837 84.7749 42.5854 85.2223C42.2904 85.6697 41.8612 86.0227 41.2978 86.2812C40.7376 86.5398 40.0598 86.669 39.2644 86.669C38.5021 86.669 37.8425 86.5481 37.2857 86.3061C36.7289 86.0642 36.293 85.7211 35.9782 85.277C35.6633 84.8295 35.4893 84.2992 35.4561 83.6861H36.9973C37.0272 84.054 37.1465 84.3606 37.3553 84.6058C37.5674 84.8478 37.8375 85.0284 38.1657 85.1477C38.4971 85.2637 38.86 85.3217 39.2544 85.3217C39.6886 85.3217 40.0748 85.2538 40.4128 85.1179C40.7542 84.9787 41.0227 84.7865 41.2182 84.5412C41.4138 84.2926 41.5115 84.0026 41.5115 83.6712C41.5115 83.3696 41.4254 83.1226 41.253 82.9304C41.084 82.7382 40.8536 82.5791 40.562 82.4531C40.2736 82.3272 39.9471 82.2161 39.5826 82.12L38.3794 81.7919C37.5641 81.5698 36.9178 81.2434 36.4405 80.8125C35.9666 80.3816 35.7296 79.8116 35.7296 79.1023C35.7296 78.5156 35.8887 78.0036 36.2069 77.5661C36.525 77.1286 36.9559 76.7888 37.4995 76.5469C38.043 76.3016 38.6562 76.179 39.339 76.179C40.0283 76.179 40.6365 76.3 41.1635 76.5419C41.6938 76.7839 42.1114 77.117 42.4164 77.5412C42.7213 77.9621 42.8804 78.446 42.8936 78.9929H41.4121ZM47.9659 86.6541C47.2268 86.6541 46.5904 86.4867 46.0568 86.152C45.5265 85.8139 45.1188 85.3482 44.8338 84.755C44.5488 84.1617 44.4062 83.4822 44.4062 82.7166C44.4062 81.9411 44.5521 81.2566 44.8438 80.6634C45.1354 80.0668 45.5464 79.6011 46.0767 79.2663C46.607 78.9316 47.2318 78.7642 47.951 78.7642C48.531 78.7642 49.0481 78.8719 49.5021 79.0874C49.9562 79.2995 50.3224 79.5978 50.6009 79.9822C50.8826 80.3667 51.05 80.8158 51.103 81.3295H49.6562C49.5767 80.9716 49.3944 80.6634 49.1094 80.4048C48.8277 80.1463 48.4498 80.017 47.9759 80.017C47.5616 80.017 47.1986 80.1264 46.8871 80.3452C46.5788 80.5606 46.3385 80.8688 46.1662 81.2699C45.9938 81.6676 45.9077 82.1383 45.9077 82.6818C45.9077 83.2386 45.9922 83.7192 46.1612 84.1236C46.3303 84.5279 46.5689 84.8411 46.8771 85.0632C47.1887 85.2853 47.5549 85.3963 47.9759 85.3963C48.2576 85.3963 48.5128 85.3449 48.7415 85.2422C48.9735 85.1361 49.1674 84.9853 49.3232 84.7898C49.4822 84.5942 49.5933 84.3589 49.6562 84.0838H51.103C51.05 84.5777 50.8892 85.0185 50.6207 85.4062C50.3523 85.794 49.9927 86.099 49.5419 86.321C49.0945 86.5431 48.5691 86.6541 47.9659 86.6541ZM55.9093 86.6541C55.1934 86.6541 54.5686 86.4901 54.035 86.1619C53.5014 85.8338 53.0871 85.3748 52.7921 84.7848C52.4971 84.1948 52.3496 83.5054 52.3496 82.7166C52.3496 81.9245 52.4971 81.2318 52.7921 80.6385C53.0871 80.0452 53.5014 79.5845 54.035 79.2564C54.5686 78.9283 55.1934 78.7642 55.9093 78.7642C56.6252 78.7642 57.2499 78.9283 57.7836 79.2564C58.3172 79.5845 58.7315 80.0452 59.0265 80.6385C59.3214 81.2318 59.4689 81.9245 59.4689 82.7166C59.4689 83.5054 59.3214 84.1948 59.0265 84.7848C58.7315 85.3748 58.3172 85.8338 57.7836 86.1619C57.2499 86.4901 56.6252 86.6541 55.9093 86.6541ZM55.9142 85.4062C56.3783 85.4062 56.7627 85.2836 57.0676 85.0384C57.3726 84.7931 57.598 84.4666 57.7438 84.0589C57.8929 83.6513 57.9675 83.2022 57.9675 82.7116C57.9675 82.2244 57.8929 81.777 57.7438 81.3693C57.598 80.9583 57.3726 80.6286 57.0676 80.38C56.7627 80.1314 56.3783 80.0071 55.9142 80.0071C55.4469 80.0071 55.0591 80.1314 54.7509 80.38C54.446 80.6286 54.2189 80.9583 54.0698 81.3693C53.9239 81.777 53.851 82.2244 53.851 82.7116C53.851 83.2022 53.9239 83.6513 54.0698 84.0589C54.2189 84.4666 54.446 84.7931 54.7509 85.0384C55.0591 85.2836 55.4469 85.4062 55.9142 85.4062ZM61.1282 86.5V78.8636H62.565V80.0767H62.6445C62.7837 79.6657 63.029 79.3426 63.3803 79.1072C63.735 78.8686 64.136 78.7493 64.5835 78.7493C64.6763 78.7493 64.7856 78.7526 64.9116 78.7592C65.0408 78.7659 65.1419 78.7741 65.2148 78.7841V80.206C65.1552 80.1894 65.0491 80.1712 64.8967 80.1513C64.7442 80.1281 64.5917 80.1165 64.4393 80.1165C64.088 80.1165 63.7747 80.1911 63.4996 80.3402C63.2279 80.486 63.0124 80.6899 62.8533 80.9517C62.6942 81.2102 62.6147 81.5052 62.6147 81.8366V86.5H61.1282ZM69.519 86.6541C68.7666 86.6541 68.1187 86.4934 67.5751 86.1719C67.0349 85.8471 66.6172 85.3913 66.3223 84.8047C66.0306 84.2147 65.8848 83.5237 65.8848 82.7315C65.8848 81.9493 66.0306 81.2599 66.3223 80.6634C66.6172 80.0668 67.0282 79.6011 67.5552 79.2663C68.0855 78.9316 68.7053 78.7642 69.4146 78.7642C69.8455 78.7642 70.2631 78.8355 70.6674 78.978C71.0718 79.1205 71.4347 79.3442 71.7562 79.6491C72.0777 79.9541 72.3313 80.3501 72.5169 80.8374C72.7025 81.3213 72.7953 81.9096 72.7953 82.6023V83.1293H66.725V82.0156H71.3386C71.3386 81.6245 71.2591 81.2782 71.1 80.9766C70.9409 80.6716 70.7172 80.4313 70.4288 80.2557C70.1438 80.08 69.809 79.9922 69.4245 79.9922C69.0069 79.9922 68.6423 80.0949 68.3308 80.3004C68.0225 80.5026 67.7839 80.7678 67.6149 81.0959C67.4492 81.4207 67.3663 81.7737 67.3663 82.1548V83.0249C67.3663 83.5353 67.4558 83.9695 67.6348 84.3274C67.8171 84.6854 68.0706 84.9588 68.3954 85.1477C68.7202 85.3333 69.0997 85.4261 69.5339 85.4261C69.8156 85.4261 70.0725 85.3864 70.3045 85.3068C70.5365 85.224 70.737 85.1013 70.9061 84.9389C71.0751 84.7765 71.2044 84.576 71.2939 84.3374L72.7008 84.5909C72.5881 85.0052 72.3859 85.3681 72.0943 85.6797C71.8059 85.9879 71.443 86.2282 71.0055 86.4006C70.5713 86.5696 70.0758 86.6541 69.519 86.6541ZM77.916 84.5114V83.2685L82.3159 76.3182H83.2953V78.1477H82.6738L79.5268 83.1293V83.2088H85.5574V84.5114H77.916ZM82.7434 86.5V84.1335L82.7534 83.5668V76.3182H84.21V86.5H82.7434ZM87.9064 86.5945C87.6346 86.5945 87.401 86.4983 87.2054 86.3061C87.0099 86.1106 86.9121 85.8752 86.9121 85.6001C86.9121 85.3284 87.0099 85.0964 87.2054 84.9041C87.401 84.7086 87.6346 84.6108 87.9064 84.6108C88.1782 84.6108 88.4119 84.7086 88.6074 84.9041C88.803 85.0964 88.9007 85.3284 88.9007 85.6001C88.9007 85.7824 88.8543 85.9498 88.7615 86.1023C88.6721 86.2514 88.5527 86.3707 88.4036 86.4602C88.2544 86.5497 88.0887 86.5945 87.9064 86.5945ZM90.9553 86.5L95.3999 77.7102V77.6357H90.2592V76.3182H96.9908V77.6804L92.5611 86.5H90.9553Z" fill="#525252"/>
<path d="M102 72.5V89.5" stroke="#525252"/>
<path d="M110.842 76.3182V86.5H109.301V77.8594H109.241L106.805 79.4503V77.9787L109.346 76.3182H110.842ZM113.597 86.5V85.3864L117.042 81.8168C117.41 81.429 117.713 81.0893 117.952 80.7976C118.194 80.5026 118.374 80.2225 118.494 79.9574C118.613 79.6922 118.673 79.4105 118.673 79.1122C118.673 78.7741 118.593 78.4825 118.434 78.2372C118.275 77.9886 118.058 77.7981 117.783 77.6655C117.508 77.5296 117.198 77.4616 116.853 77.4616C116.488 77.4616 116.17 77.5362 115.898 77.6854C115.627 77.8345 115.418 78.045 115.272 78.3168C115.126 78.5885 115.053 78.9067 115.053 79.2713H113.587C113.587 78.6515 113.729 78.1096 114.014 77.6456C114.299 77.1816 114.69 76.822 115.188 76.5668C115.685 76.3082 116.25 76.179 116.883 76.179C117.522 76.179 118.086 76.3066 118.573 76.5618C119.064 76.8137 119.446 77.1584 119.722 77.5959C119.997 78.0301 120.134 78.5206 120.134 79.0675C120.134 79.4453 120.063 79.8149 119.92 80.1761C119.781 80.5374 119.538 80.9401 119.19 81.3842C118.842 81.825 118.358 82.3603 117.738 82.9901L115.714 85.108V85.1825H120.298V86.5H113.597ZM124.136 85.108L124.062 85.6499C124.012 86.0476 123.928 86.4619 123.808 86.8928C123.692 87.3269 123.571 87.7296 123.445 88.1009C123.323 88.4721 123.222 88.767 123.142 88.9858H122.088C122.131 88.7803 122.191 88.5019 122.267 88.1506C122.343 87.8026 122.418 87.4131 122.491 86.9822C122.564 86.5514 122.618 86.1122 122.655 85.6648L122.705 85.108H124.136ZM129.391 86.669C128.606 86.6657 127.935 86.4586 127.378 86.0476C126.821 85.6366 126.395 85.0384 126.1 84.2528C125.805 83.4673 125.658 82.5211 125.658 81.4141C125.658 80.3104 125.805 79.3674 126.1 78.5852C126.398 77.803 126.826 77.2064 127.383 76.7955C127.943 76.3845 128.612 76.179 129.391 76.179C130.17 76.179 130.838 76.3861 131.395 76.8004C131.952 77.2114 132.378 77.808 132.673 78.5902C132.971 79.3691 133.12 80.3104 133.12 81.4141C133.12 82.5244 132.973 83.4723 132.678 84.2578C132.383 85.04 131.957 85.6383 131.4 86.0526C130.843 86.4635 130.174 86.669 129.391 86.669ZM129.391 85.3416C130.081 85.3416 130.619 85.0052 131.007 84.3324C131.398 83.6596 131.594 82.6868 131.594 81.4141C131.594 80.5689 131.504 79.8546 131.325 79.2713C131.15 78.6847 130.896 78.2405 130.565 77.9389C130.237 77.634 129.845 77.4815 129.391 77.4815C128.705 77.4815 128.167 77.8196 127.776 78.4957C127.384 79.1719 127.187 80.1446 127.184 81.4141C127.184 82.2625 127.272 82.9801 127.447 83.5668C127.626 84.1501 127.88 84.5926 128.208 84.8942C128.536 85.1925 128.931 85.3416 129.391 85.3416ZM138.269 76.179C138.723 76.1823 139.171 76.2652 139.612 76.4276C140.052 76.59 140.45 76.8551 140.805 77.223C141.163 77.5909 141.448 78.0881 141.66 78.7145C141.875 79.3376 141.985 80.1132 141.988 81.0412C141.988 81.9328 141.899 82.7266 141.72 83.4226C141.541 84.1153 141.284 84.7003 140.949 85.1776C140.618 85.6548 140.215 86.0178 139.741 86.2663C139.267 86.5149 138.733 86.6392 138.14 86.6392C137.534 86.6392 136.995 86.5199 136.524 86.2812C136.054 86.0426 135.671 85.7128 135.376 85.2919C135.081 84.8677 134.897 84.3804 134.824 83.8303H136.34C136.44 84.2678 136.642 84.6224 136.947 84.8942C137.255 85.1626 137.653 85.2969 138.14 85.2969C138.886 85.2969 139.468 84.9721 139.885 84.3224C140.303 83.6695 140.513 82.758 140.517 81.5881H140.437C140.265 81.8731 140.049 82.1184 139.791 82.3239C139.535 82.5294 139.249 82.6884 138.931 82.8011C138.612 82.9138 138.273 82.9702 137.911 82.9702C137.325 82.9702 136.791 82.826 136.311 82.5376C135.83 82.2493 135.447 81.8532 135.162 81.3494C134.877 80.8456 134.735 80.2706 134.735 79.6243C134.735 78.9813 134.88 78.398 135.172 77.8743C135.467 77.3506 135.878 76.9363 136.405 76.6314C136.935 76.3232 137.557 76.1723 138.269 76.179ZM138.274 77.4716C137.887 77.4716 137.537 77.5677 137.225 77.7599C136.917 77.9489 136.673 78.2057 136.494 78.5305C136.316 78.852 136.226 79.21 136.226 79.6044C136.226 79.9988 136.312 80.3568 136.485 80.6783C136.66 80.9964 136.899 81.25 137.2 81.4389C137.505 81.6245 137.853 81.7173 138.244 81.7173C138.536 81.7173 138.808 81.661 139.06 81.5483C139.312 81.4356 139.532 81.2798 139.721 81.081C139.91 80.8788 140.057 80.6501 140.164 80.3949C140.27 80.1397 140.323 79.8712 140.323 79.5895C140.323 79.215 140.233 78.867 140.054 78.5455C139.878 78.224 139.637 77.9654 139.328 77.7699C139.02 77.571 138.669 77.4716 138.274 77.4716ZM147.224 86.6392C146.512 86.6392 145.882 86.5166 145.335 86.2713C144.792 86.026 144.366 85.688 144.058 85.2571C143.749 84.8262 143.597 84.3357 143.6 83.7855C143.597 83.3546 143.685 82.9586 143.864 82.5973C144.046 82.2327 144.293 81.9295 144.604 81.6875C144.916 81.4422 145.264 81.2865 145.648 81.2202V81.1605C145.141 81.0379 144.735 80.7661 144.43 80.3452C144.125 79.9242 143.975 79.4403 143.978 78.8935C143.975 78.3731 144.112 77.9091 144.391 77.5014C144.672 77.0904 145.058 76.7673 145.549 76.532C146.04 76.2966 146.598 76.179 147.224 76.179C147.844 76.179 148.398 76.2983 148.885 76.5369C149.375 76.7723 149.762 77.0954 150.043 77.5064C150.325 77.9141 150.468 78.3764 150.471 78.8935C150.468 79.4403 150.312 79.9242 150.004 80.3452C149.695 80.7661 149.294 81.0379 148.8 81.1605V81.2202C149.182 81.2865 149.525 81.4422 149.83 81.6875C150.138 81.9295 150.383 82.2327 150.565 82.5973C150.751 82.9586 150.845 83.3546 150.849 83.7855C150.845 84.3357 150.69 84.8262 150.381 85.2571C150.073 85.688 149.646 86.026 149.099 86.2713C148.555 86.5166 147.93 86.6392 147.224 86.6392ZM147.224 85.3814C147.645 85.3814 148.01 85.3118 148.318 85.1726C148.626 85.0301 148.865 84.8329 149.034 84.581C149.203 84.3258 149.289 84.0275 149.293 83.6861C149.289 83.3314 149.196 83.0182 149.014 82.7464C148.835 82.4747 148.592 82.2609 148.283 82.1051C147.975 81.9493 147.622 81.8714 147.224 81.8714C146.823 81.8714 146.467 81.9493 146.156 82.1051C145.844 82.2609 145.599 82.4747 145.42 82.7464C145.241 83.0182 145.153 83.3314 145.156 83.6861C145.153 84.0275 145.234 84.3258 145.4 84.581C145.569 84.8329 145.809 85.0301 146.121 85.1726C146.432 85.3118 146.8 85.3814 147.224 85.3814ZM147.224 80.6435C147.563 80.6435 147.862 80.5755 148.124 80.4396C148.386 80.3037 148.592 80.1148 148.741 79.8729C148.893 79.6309 148.971 79.3475 148.974 79.0227C148.971 78.7045 148.895 78.4261 148.746 78.1875C148.6 77.9489 148.396 77.7649 148.134 77.6357C147.872 77.5031 147.569 77.4368 147.224 77.4368C146.873 77.4368 146.565 77.5031 146.3 77.6357C146.038 77.7649 145.834 77.9489 145.688 78.1875C145.542 78.4261 145.471 78.7045 145.474 79.0227C145.471 79.3475 145.544 79.6309 145.693 79.8729C145.842 80.1148 146.048 80.3037 146.31 80.4396C146.575 80.5755 146.88 80.6435 147.224 80.6435ZM156.355 86.5V78.8636H157.792V80.0767H157.871C158.01 79.6657 158.256 79.3426 158.607 79.1072C158.962 78.8686 159.363 78.7493 159.81 78.7493C159.903 78.7493 160.012 78.7526 160.138 78.7592C160.267 78.7659 160.368 78.7741 160.441 78.7841V80.206C160.382 80.1894 160.276 80.1712 160.123 80.1513C159.971 80.1281 159.818 80.1165 159.666 80.1165C159.315 80.1165 159.001 80.1911 158.726 80.3402C158.454 80.486 158.239 80.6899 158.08 80.9517C157.921 81.2102 157.841 81.5052 157.841 81.8366V86.5H156.355ZM164.746 86.6541C163.993 86.6541 163.345 86.4934 162.802 86.1719C162.261 85.8471 161.844 85.3913 161.549 84.8047C161.257 84.2147 161.111 83.5237 161.111 82.7315C161.111 81.9493 161.257 81.2599 161.549 80.6634C161.844 80.0668 162.255 79.6011 162.782 79.2663C163.312 78.9316 163.932 78.7642 164.641 78.7642C165.072 78.7642 165.49 78.8355 165.894 78.978C166.298 79.1205 166.661 79.3442 166.983 79.6491C167.304 79.9541 167.558 80.3501 167.743 80.8374C167.929 81.3213 168.022 81.9096 168.022 82.6023V83.1293H161.952V82.0156H166.565C166.565 81.6245 166.486 81.2782 166.327 80.9766C166.167 80.6716 165.944 80.4313 165.655 80.2557C165.37 80.08 165.036 79.9922 164.651 79.9922C164.233 79.9922 163.869 80.0949 163.557 80.3004C163.249 80.5026 163.01 80.7678 162.841 81.0959C162.676 81.4207 162.593 81.7737 162.593 82.1548V83.0249C162.593 83.5353 162.682 83.9695 162.861 84.3274C163.044 84.6854 163.297 84.9588 163.622 85.1477C163.947 85.3333 164.326 85.4261 164.76 85.4261C165.042 85.4261 165.299 85.3864 165.531 85.3068C165.763 85.224 165.964 85.1013 166.133 84.9389C166.302 84.7765 166.431 84.576 166.52 84.3374L167.927 84.5909C167.815 85.0052 167.613 85.3681 167.321 85.6797C167.032 85.9879 166.67 86.2282 166.232 86.4006C165.798 86.5696 165.302 86.6541 164.746 86.6541ZM175.985 78.8636L173.216 86.5H171.625L168.851 78.8636H170.447L172.381 84.7401H172.46L174.389 78.8636H175.985ZM177.382 86.5V78.8636H178.869V86.5H177.382ZM178.133 77.6854C177.874 77.6854 177.652 77.5992 177.467 77.4268C177.284 77.2512 177.193 77.0424 177.193 76.8004C177.193 76.5552 177.284 76.3464 177.467 76.174C177.652 75.9983 177.874 75.9105 178.133 75.9105C178.391 75.9105 178.612 75.9983 178.794 76.174C178.98 76.3464 179.072 76.5552 179.072 76.8004C179.072 77.0424 178.98 77.2512 178.794 77.4268C178.612 77.5992 178.391 77.6854 178.133 77.6854ZM184.16 86.6541C183.407 86.6541 182.759 86.4934 182.216 86.1719C181.675 85.8471 181.258 85.3913 180.963 84.8047C180.671 84.2147 180.525 83.5237 180.525 82.7315C180.525 81.9493 180.671 81.2599 180.963 80.6634C181.258 80.0668 181.669 79.6011 182.196 79.2663C182.726 78.9316 183.346 78.7642 184.055 78.7642C184.486 78.7642 184.904 78.8355 185.308 78.978C185.712 79.1205 186.075 79.3442 186.397 79.6491C186.718 79.9541 186.972 80.3501 187.157 80.8374C187.343 81.3213 187.436 81.9096 187.436 82.6023V83.1293H181.366V82.0156H185.979C185.979 81.6245 185.9 81.2782 185.741 80.9766C185.581 80.6716 185.358 80.4313 185.069 80.2557C184.784 80.08 184.45 79.9922 184.065 79.9922C183.648 79.9922 183.283 80.0949 182.971 80.3004C182.663 80.5026 182.425 80.7678 182.256 81.0959C182.09 81.4207 182.007 81.7737 182.007 82.1548V83.0249C182.007 83.5353 182.096 83.9695 182.275 84.3274C182.458 84.6854 182.711 84.9588 183.036 85.1477C183.361 85.3333 183.74 85.4261 184.175 85.4261C184.456 85.4261 184.713 85.3864 184.945 85.3068C185.177 85.224 185.378 85.1013 185.547 84.9389C185.716 84.7765 185.845 84.576 185.934 84.3374L187.341 84.5909C187.229 85.0052 187.027 85.3681 186.735 85.6797C186.447 85.9879 186.084 86.2282 185.646 86.4006C185.212 86.5696 184.716 86.6541 184.16 86.6541ZM190.727 86.5L188.48 78.8636H190.016L191.513 84.4716H191.587L193.089 78.8636H194.625L196.116 84.4467H196.191L197.677 78.8636H199.214L196.971 86.5H195.455L193.904 80.9865H193.79L192.238 86.5H190.727ZM206.347 80.728L204.999 80.9666C204.943 80.7943 204.853 80.6302 204.731 80.4744C204.612 80.3187 204.449 80.1911 204.244 80.0916C204.038 79.9922 203.781 79.9425 203.473 79.9425C203.052 79.9425 202.701 80.0369 202.419 80.2259C202.137 80.4115 201.996 80.6518 201.996 80.9467C201.996 81.2019 202.091 81.4074 202.28 81.5632C202.469 81.719 202.774 81.8466 203.195 81.946L204.408 82.2244C205.11 82.3868 205.634 82.6371 205.979 82.9751C206.323 83.3132 206.496 83.7524 206.496 84.2926C206.496 84.75 206.363 85.1577 206.098 85.5156C205.836 85.8703 205.47 86.1487 204.999 86.3509C204.532 86.553 203.99 86.6541 203.374 86.6541C202.518 86.6541 201.821 86.4718 201.281 86.1072C200.74 85.7393 200.409 85.2173 200.286 84.5412L201.723 84.3224C201.813 84.697 201.996 84.9804 202.275 85.1726C202.553 85.3615 202.916 85.456 203.364 85.456C203.851 85.456 204.24 85.3549 204.532 85.1527C204.824 84.9472 204.969 84.697 204.969 84.402C204.969 84.1634 204.88 83.9628 204.701 83.8004C204.525 83.638 204.255 83.5154 203.891 83.4325L202.598 83.1491C201.885 82.9867 201.358 82.7282 201.017 82.3736C200.679 82.0189 200.51 81.5698 200.51 81.0263C200.51 80.5755 200.636 80.1811 200.888 79.843C201.14 79.505 201.488 79.2415 201.932 79.0526C202.376 78.8603 202.885 78.7642 203.458 78.7642C204.283 78.7642 204.933 78.9432 205.407 79.3011C205.881 79.6558 206.194 80.1314 206.347 80.728Z" fill="#525252"/>
<defs>
<clipPath id="clip0_2250_97900">
<rect width="24" height="24" fill="white" transform="translate(0 0.5)"/>
</clipPath>
<clipPath id="clip1_2250_97900">
<rect width="24" height="24" fill="white" transform="translate(4 36.5)"/>
</clipPath>
<clipPath id="clip2_2250_97900">
<rect width="24" height="24" fill="white" transform="translate(48 36.5)"/>
</clipPath>
<clipPath id="clip3_2250_97900">
<rect width="24" height="24" fill="white" transform="translate(92 36.5)"/>
</clipPath>
<clipPath id="clip4_2250_97900">
<rect width="24" height="24" fill="white" transform="translate(136 36.5)"/>
</clipPath>
<clipPath id="clip5_2250_97900">
<rect width="24" height="24" fill="white" transform="translate(180 36.5)"/>
</clipPath>
</defs>
</svg>
