<svg width="139" height="41" viewBox="0 0 139 41" fill="none" xmlns="http://www.w3.org/2000/svg">
<path d="M0 3.34286L6 0V41L0.276393 38.1382C0.107001 38.0535 0 37.8804 0 37.691V3.34286Z" fill="#1212B8"/>
<path d="M0 3H139L128 20L139 38H0V3Z" fill="#5555DD"/>
<path d="M14.25 12C14.25 9.92893 15.9289 8.25 18 8.25H110C112.071 8.25 113.75 9.92893 113.75 12V28C113.75 30.0711 112.071 31.75 110 31.75H18C15.9289 31.75 14.25 30.0711 14.25 28V12Z" fill="#DFDFF9"/>
<path d="M14.25 12C14.25 9.92893 15.9289 8.25 18 8.25H110C112.071 8.25 113.75 9.92893 113.75 12V28C113.75 30.0711 112.071 31.75 110 31.75H18C15.9289 31.75 14.25 30.0711 14.25 28V12Z" stroke="#2C2CCD" stroke-width="0.5"/>
<path d="M56.5 17C56.5 18.45 56.07 19.78 55.33 20.89C54.25 22.49 52.54 23.62 50.55 23.91C50.21 23.97 49.86 24 49.5 24C49.14 24 48.79 23.97 48.45 23.91C46.46 23.62 44.75 22.49 43.67 20.89C42.93 19.78 42.5 18.45 42.5 17C42.5 13.13 45.63 10 49.5 10C53.37 10 56.5 13.13 56.5 17Z" fill="#000087" stroke="white" stroke-linecap="round" stroke-linejoin="round"/>
<path d="M58.75 26.4699L57.1 26.8599C56.73 26.9499 56.44 27.2299 56.36 27.5999L56.01 29.0699C55.82 29.8699 54.8 30.1099 54.27 29.4799L49.5 23.9999L44.73 29.4899C44.2 30.1199 43.18 29.8799 42.99 29.0799L42.64 27.6099C42.55 27.2399 42.26 26.9499 41.9 26.8699L40.25 26.4799C39.49 26.2999 39.22 25.3499 39.77 24.7999L43.67 20.8999C44.75 22.4999 46.46 23.6299 48.45 23.9199C48.79 23.9799 49.14 24.0099 49.5 24.0099C49.86 24.0099 50.21 23.9799 50.55 23.9199C52.54 23.6299 54.25 22.4999 55.33 20.8999L59.23 24.7999C59.78 25.3399 59.51 26.2899 58.75 26.4699Z" fill="#000087" stroke="white" stroke-linecap="round" stroke-linejoin="round"/>
<path d="M50.08 13.98L50.67 15.16C50.75 15.32 50.96 15.48 51.15 15.51L52.22 15.69C52.9 15.8 53.06 16.3 52.57 16.79L51.74 17.62C51.6 17.76 51.52 18.03 51.57 18.23L51.81 19.26C52 20.07 51.57 20.39 50.85 19.96L49.85 19.37C49.67 19.26 49.37 19.26 49.19 19.37L48.19 19.96C47.47 20.38 47.04 20.07 47.23 19.26L47.47 18.23C47.51 18.04 47.44 17.76 47.3 17.62L46.47 16.79C45.98 16.3 46.14 15.81 46.82 15.69L47.89 15.51C48.07 15.48 48.28 15.32 48.36 15.16L48.95 13.98C49.24 13.34 49.76 13.34 50.08 13.98Z" fill="white"/>
<path d="M72.9148 15.7727L75.5057 23.1193H75.608L78.1989 15.7727H79.3068L76.1023 24.5H75.0114L71.8068 15.7727H72.9148ZM81.723 15.7727V24.5H80.6662V15.7727H81.723ZM83.842 24.5V15.7727H86.7908C87.4755 15.7727 88.0352 15.8963 88.4698 16.1435C88.9073 16.3878 89.2312 16.7188 89.4414 17.1364C89.6516 17.554 89.7567 18.0199 89.7567 18.5341C89.7567 19.0483 89.6516 19.5156 89.4414 19.9361C89.234 20.3565 88.913 20.6918 88.4783 20.9418C88.0437 21.1889 87.4869 21.3125 86.8079 21.3125H84.6942V20.375H86.7738C87.2425 20.375 87.619 20.294 87.9031 20.1321C88.1871 19.9702 88.3931 19.7514 88.521 19.4759C88.6516 19.1974 88.717 18.8835 88.717 18.5341C88.717 18.1847 88.6516 17.8722 88.521 17.5966C88.3931 17.321 88.1857 17.1051 87.8988 16.9489C87.6119 16.7898 87.2312 16.7102 86.7567 16.7102H84.8988V24.5H83.842Z" fill="#000087"/>
</svg>
