<svg width="1440" height="622" viewBox="0 0 1440 622" fill="none" xmlns="http://www.w3.org/2000/svg">
<g clip-path="url(#clip0_2195_97829)">
<rect width="1440" height="622" fill="#8989E9"/>
<g opacity="0.1">
<circle cx="175.633" cy="309.833" r="133.384" transform="rotate(-45 175.633 309.833)" fill="url(#paint0_linear_2195_97829)"/>
<circle cx="1264.82" cy="309.833" r="133.384" transform="rotate(-45 1264.82 309.833)" fill="url(#paint1_linear_2195_97829)"/>
<circle cx="347.663" cy="310.375" r="91.26" transform="rotate(-45 347.663 310.375)" fill="url(#paint2_linear_2195_97829)"/>
<circle cx="1092.83" cy="310.375" r="91.26" transform="rotate(-45 1092.83 310.375)" fill="url(#paint3_linear_2195_97829)"/>
<circle cx="534.799" cy="495.879" r="64.0493" transform="rotate(-90 534.799 495.879)" fill="url(#paint4_linear_2195_97829)"/>
<circle cx="535.995" cy="127.215" r="64.0493" transform="rotate(-90 535.995 127.215)" fill="url(#paint5_linear_2195_97829)"/>
<circle cx="904.604" cy="495.879" r="64.0493" transform="rotate(-90 904.604 495.879)" fill="url(#paint6_linear_2195_97829)"/>
<circle cx="458.783" cy="310.724" r="64.0493" transform="rotate(-45 458.783 310.724)" fill="url(#paint7_linear_2195_97829)"/>
<circle cx="981.743" cy="310.724" r="64.0493" transform="rotate(-45 981.743 310.724)" fill="url(#paint8_linear_2195_97829)"/>
<circle cx="904.604" cy="126.049" r="64.0493" transform="rotate(-90 904.604 126.049)" fill="url(#paint9_linear_2195_97829)"/>
</g>
</g>
<defs>
<linearGradient id="paint0_linear_2195_97829" x1="175.633" y1="176.45" x2="175.633" y2="443.217" gradientUnits="userSpaceOnUse">
<stop stop-color="white"/>
<stop offset="1" stop-color="#C4C4C4" stop-opacity="0"/>
</linearGradient>
<linearGradient id="paint1_linear_2195_97829" x1="1264.82" y1="176.45" x2="1264.82" y2="443.217" gradientUnits="userSpaceOnUse">
<stop stop-color="white"/>
<stop offset="1" stop-color="#C4C4C4" stop-opacity="0"/>
</linearGradient>
<linearGradient id="paint2_linear_2195_97829" x1="347.663" y1="219.115" x2="347.663" y2="401.634" gradientUnits="userSpaceOnUse">
<stop stop-color="white"/>
<stop offset="1" stop-color="#C4C4C4" stop-opacity="0"/>
</linearGradient>
<linearGradient id="paint3_linear_2195_97829" x1="1092.83" y1="219.115" x2="1092.83" y2="401.634" gradientUnits="userSpaceOnUse">
<stop stop-color="white"/>
<stop offset="1" stop-color="#C4C4C4" stop-opacity="0"/>
</linearGradient>
<linearGradient id="paint4_linear_2195_97829" x1="534.799" y1="431.83" x2="534.799" y2="559.929" gradientUnits="userSpaceOnUse">
<stop stop-color="white"/>
<stop offset="1" stop-color="#C4C4C4" stop-opacity="0"/>
</linearGradient>
<linearGradient id="paint5_linear_2195_97829" x1="535.995" y1="63.1661" x2="535.995" y2="191.265" gradientUnits="userSpaceOnUse">
<stop stop-color="white"/>
<stop offset="1" stop-color="#C4C4C4" stop-opacity="0"/>
</linearGradient>
<linearGradient id="paint6_linear_2195_97829" x1="904.604" y1="431.83" x2="904.604" y2="559.929" gradientUnits="userSpaceOnUse">
<stop stop-color="white"/>
<stop offset="1" stop-color="#C4C4C4" stop-opacity="0"/>
</linearGradient>
<linearGradient id="paint7_linear_2195_97829" x1="458.783" y1="246.675" x2="458.783" y2="374.773" gradientUnits="userSpaceOnUse">
<stop stop-color="white"/>
<stop offset="1" stop-color="#C4C4C4" stop-opacity="0"/>
</linearGradient>
<linearGradient id="paint8_linear_2195_97829" x1="981.743" y1="246.675" x2="981.743" y2="374.773" gradientUnits="userSpaceOnUse">
<stop stop-color="white"/>
<stop offset="1" stop-color="#C4C4C4" stop-opacity="0"/>
</linearGradient>
<linearGradient id="paint9_linear_2195_97829" x1="904.604" y1="62.0001" x2="904.604" y2="190.099" gradientUnits="userSpaceOnUse">
<stop stop-color="white"/>
<stop offset="1" stop-color="#C4C4C4" stop-opacity="0"/>
</linearGradient>
<clipPath id="clip0_2195_97829">
<rect width="1440" height="622" fill="white"/>
</clipPath>
</defs>
</svg>
