<svg width="40" height="40" viewBox="0 0 40 40" fill="none" xmlns="http://www.w3.org/2000/svg">
<path d="M10.0001 29.2002L11.435 23.8694C10.2778 21.7928 9.91009 19.3696 10.3995 17.0444C10.8888 14.7193 12.2025 12.6481 14.0992 11.211C15.996 9.77393 18.3487 9.06732 20.7257 9.22084C23.1026 9.37436 25.3443 10.3777 27.0395 12.0468C28.7346 13.7159 29.7695 15.9387 29.9541 18.3074C30.1388 20.6762 29.4609 23.0318 28.0448 24.9422C26.6287 26.8526 24.5694 28.1896 22.2448 28.7078C19.9203 29.2259 17.4863 28.8906 15.3896 27.7633L10.0001 29.2002ZM15.6495 25.7684L15.9828 25.9657C17.5015 26.8635 19.2753 27.2351 21.0278 27.0224C22.7803 26.8098 24.413 26.0248 25.6716 24.79C26.9301 23.5551 27.7438 21.9396 27.9858 20.1953C28.2277 18.451 27.8845 16.6758 27.0094 15.1465C26.1343 13.6171 24.7766 12.4194 23.1479 11.7401C21.5191 11.0607 19.7108 10.9379 18.0048 11.3906C16.2987 11.8434 14.7907 12.8464 13.7158 14.2433C12.6409 15.6402 12.0595 17.3525 12.0621 19.1134C12.0607 20.5735 12.4655 22.0054 13.2315 23.2496L13.4406 23.5933L12.6383 26.5686L15.6495 25.7684Z" fill="#00D95F"/>
<path fill-rule="evenodd" clip-rule="evenodd" d="M23.7393 20.4818C23.5439 20.3246 23.3151 20.2139 23.0704 20.1583C22.8256 20.1026 22.5714 20.1034 22.327 20.1606C21.9598 20.3127 21.7225 20.8875 21.4852 21.1749C21.4352 21.2438 21.3617 21.2921 21.2784 21.3108C21.1952 21.3294 21.1081 21.3172 21.0333 21.2763C19.6889 20.7511 18.562 19.788 17.8357 18.5433C17.7737 18.4656 17.7444 18.367 17.7539 18.2682C17.7634 18.1694 17.8109 18.0782 17.8865 18.0136C18.1512 17.7523 18.3455 17.4286 18.4515 17.0726C18.475 16.6798 18.3848 16.2886 18.1916 15.9456C18.0422 15.4646 17.758 15.0364 17.3724 14.7115C17.1736 14.6223 16.9531 14.5924 16.7376 14.6254C16.522 14.6583 16.3207 14.7528 16.1578 14.8974C15.875 15.1408 15.6506 15.4443 15.501 15.7856C15.3514 16.127 15.2805 16.4974 15.2934 16.8697C15.2943 17.0788 15.3209 17.2869 15.3725 17.4896C15.5037 17.9764 15.7055 18.4415 15.9714 18.8701C16.1632 19.1985 16.3725 19.5164 16.5985 19.8225C17.3326 20.8278 18.2555 21.6813 19.3158 22.3357C19.8479 22.6683 20.4166 22.9386 21.0107 23.1415C21.6278 23.4205 22.3091 23.5276 22.9823 23.4514C23.3659 23.3935 23.7293 23.2425 24.0406 23.0116C24.3519 22.7806 24.6015 22.477 24.7675 22.1272C24.8651 21.9159 24.8947 21.6797 24.8523 21.451C24.7506 20.9833 24.1235 20.7072 23.7393 20.4818Z" fill="#00D95F"/>
</svg>
