<svg width="24" height="16" viewBox="0 0 24 16" fill="none" xmlns="http://www.w3.org/2000/svg">
<path d="M23.1253 2.49818C22.8641 1.51636 22.0915 0.741818 21.1086 0.476364C19.3313 1.73395e-07 12.2004 0 12.2004 0C12.2004 0 5.07315 1.73395e-07 3.29224 0.476364C2.31292 0.738182 1.54035 1.51273 1.27557 2.49818C0.800415 4.28 0.800415 8 0.800415 8C0.800415 8 0.800415 11.72 1.27557 13.5018C1.53672 14.4836 2.30929 15.2582 3.29224 15.5236C5.07315 16 12.2004 16 12.2004 16C12.2004 16 19.3313 16 21.1086 15.5236C22.0879 15.2618 22.8605 14.4873 23.1253 13.5018C23.6004 11.72 23.6004 8 23.6004 8C23.6004 8 23.6004 4.28 23.1253 2.49818Z" fill="#FF3000"/>
<path d="M9.92259 11.4291L15.8457 8L9.92259 4.57091V11.4291Z" fill="white"/>
</svg>
